<svg width="16" height="16" viewBox="0 0 16 16" xmlns="http://www.w3.org/2000/svg">
    <path d="M5.27315 3.4165C6.17968 2.87717 7.22578 2.61877 8.27917 2.67397C8.64686 2.69324 8.96055 2.4108 8.97982 2.04311C8.99909 1.67543 8.71664 1.36174 8.34895 1.34247C7.03222 1.27346 5.72459 1.59646 4.59143 2.27062C3.45826 2.94478 2.55046 3.93983 1.98281 5.12992C1.41516 6.32002 1.21317 7.65172 1.40237 8.95661C1.59157 10.2615 2.16347 11.481 3.04575 12.4609C3.92802 13.4407 5.08105 14.137 6.35902 14.4615C7.637 14.7861 8.98251 14.7244 10.2254 14.2843C11.4683 13.8441 12.5528 13.0453 13.3417 11.9888C14.1307 10.9323 14.5886 9.66564 14.6576 8.3489C14.6768 7.98122 14.3944 7.66753 14.0267 7.64826C13.659 7.62899 13.3453 7.91144 13.3261 8.27912C13.2709 9.33251 12.9045 10.3459 12.2734 11.1911C11.6423 12.0363 10.7747 12.6753 9.78035 13.0274C8.78602 13.3795 7.70961 13.4289 6.68723 13.1692C5.66485 12.9096 4.74243 12.3526 4.03661 11.5687C3.33078 10.7848 2.87327 9.80921 2.7219 8.76529C2.57054 7.72137 2.73214 6.65601 3.18626 5.70394C3.64038 4.75186 4.36662 3.95583 5.27315 3.4165Z"/>
    <path d="M13.6068 4L14.4734 3.14C14.5976 3.0151 14.6673 2.84613 14.6673 2.67C14.6673 2.49388 14.5976 2.32491 14.4734 2.2C14.4114 2.13752 14.3377 2.08792 14.2565 2.05408C14.1752 2.02023 14.0881 2.0028 14.0001 2.0028C13.9121 2.0028 13.8249 2.02023 13.7437 2.05408C13.6625 2.08792 13.5887 2.13752 13.5268 2.2L12.6668 3.06L11.8068 2.2C11.7448 2.13752 11.671 2.08792 11.5898 2.05408C11.5086 2.02023 11.4214 2.0028 11.3334 2.0028C11.2454 2.0028 11.1583 2.02023 11.077 2.05408C10.9958 2.08792 10.9221 2.13752 10.8601 2.2C10.7359 2.32491 10.6662 2.49388 10.6662 2.67C10.6662 2.84613 10.7359 3.0151 10.8601 3.14L11.7268 4L10.8601 4.86667C10.7359 4.99158 10.6662 5.16055 10.6662 5.33667C10.6662 5.51279 10.7359 5.68176 10.8601 5.80667C10.9221 5.86916 10.9958 5.91875 11.077 5.9526C11.1583 5.98644 11.2454 6.00387 11.3334 6.00387C11.4214 6.00387 11.5086 5.98644 11.5898 5.9526C11.671 5.91875 11.7448 5.86916 11.8068 5.80667L12.6668 4.94667L13.5268 5.80667C13.5887 5.86916 13.6625 5.91875 13.7437 5.9526C13.8249 5.98644 13.9121 6.00387 14.0001 6.00387C14.0881 6.00387 14.1752 5.98644 14.2565 5.9526C14.3377 5.91875 14.4114 5.86916 14.4734 5.80667C14.5976 5.68176 14.6673 5.51279 14.6673 5.33667C14.6673 5.16055 14.5976 4.99158 14.4734 4.86667L13.6068 4Z"/>
    <path d="M8.00005 4.66666C8.36824 4.66666 8.66671 4.96514 8.66671 5.33333V8.25464L10.2982 9.07038C10.6275 9.23504 10.761 9.63549 10.5963 9.96481C10.4317 10.2941 10.0312 10.4276 9.7019 10.2629L7.33338 9.07869V5.33333C7.33338 4.96514 7.63186 4.66666 8.00005 4.66666Z" />
</svg>
