<svg width="16" height="16" viewBox="0 0 16 16" xmlns="http://www.w3.org/2000/svg">
<path d="M6.55556 12.2C6.7471 12.2 6.9308 12.1263 7.06624 11.995C7.20169 11.8637 7.27778 11.6857 7.27778 11.5V7.3C7.27778 7.11435 7.20169 6.9363 7.06624 6.80503C6.9308 6.67375 6.7471 6.6 6.55556 6.6C6.36401 6.6 6.18031 6.67375 6.04487 6.80503C5.90942 6.9363 5.83333 7.11435 5.83333 7.3V11.5C5.83333 11.6857 5.90942 11.8637 6.04487 11.995C6.18031 12.1263 6.36401 12.2 6.55556 12.2ZM13.7778 3.8H10.8889V3.1C10.8889 2.54305 10.6606 2.0089 10.2543 1.61508C9.84796 1.22125 9.29686 1 8.72222 1H7.27778C6.70314 1 6.15204 1.22125 5.74571 1.61508C5.33938 2.0089 5.11111 2.54305 5.11111 3.1V3.8H2.22222C2.03068 3.8 1.84698 3.87375 1.71153 4.00503C1.57609 4.1363 1.5 4.31435 1.5 4.5C1.5 4.68565 1.57609 4.8637 1.71153 4.99497C1.84698 5.12625 2.03068 5.2 2.22222 5.2H2.94444V12.9C2.94444 13.457 3.17272 13.9911 3.57905 14.3849C3.98538 14.7788 4.53648 15 5.11111 15H10.8889C11.4635 15 12.0146 14.7788 12.421 14.3849C12.8273 13.9911 13.0556 13.457 13.0556 12.9V5.2H13.7778C13.9693 5.2 14.153 5.12625 14.2885 4.99497C14.4239 4.8637 14.5 4.68565 14.5 4.5C14.5 4.31435 14.4239 4.1363 14.2885 4.00503C14.153 3.87375 13.9693 3.8 13.7778 3.8ZM6.55556 3.1C6.55556 2.91435 6.63165 2.7363 6.76709 2.60503C6.90253 2.47375 7.08623 2.4 7.27778 2.4H8.72222C8.91377 2.4 9.09747 2.47375 9.23291 2.60503C9.36835 2.7363 9.44444 2.91435 9.44444 3.1V3.8H6.55556V3.1ZM11.6111 12.9C11.6111 13.0857 11.535 13.2637 11.3996 13.395C11.2641 13.5263 11.0804 13.6 10.8889 13.6H5.11111C4.91957 13.6 4.73587 13.5263 4.60042 13.395C4.46498 13.2637 4.38889 13.0857 4.38889 12.9V5.2H11.6111V12.9ZM9.44444 12.2C9.63599 12.2 9.81969 12.1263 9.95513 11.995C10.0906 11.8637 10.1667 11.6857 10.1667 11.5V7.3C10.1667 7.11435 10.0906 6.9363 9.95513 6.80503C9.81969 6.67375 9.63599 6.6 9.44444 6.6C9.2529 6.6 9.0692 6.67375 8.93376 6.80503C8.79831 6.9363 8.72222 7.11435 8.72222 7.3V11.5C8.72222 11.6857 8.79831 11.8637 8.93376 11.995C9.0692 12.1263 9.2529 12.2 9.44444 12.2Z"/>
</svg>
