<svg width="16" height="16" viewBox="0 0 16 16" fill="none" xmlns="http://www.w3.org/2000/svg">
<path d="M15 4.66774C15.0005 4.57562 14.9829 4.4843 14.948 4.39902C14.9132 4.31374 14.8619 4.23618 14.797 4.17077L11.829 1.203C11.7636 1.13812 11.686 1.0868 11.6007 1.05197C11.5154 1.01714 11.4241 0.999479 11.332 1.00001C11.2399 0.999479 11.1485 1.01714 11.0633 1.05197C10.978 1.0868 10.9004 1.13812 10.835 1.203L8.854 3.18385L1.20301 10.8343C1.13813 10.8997 1.08681 10.9772 1.05197 11.0625C1.01714 11.1478 0.999479 11.2391 1.00001 11.3312V14.299C1.00001 14.4847 1.07376 14.6627 1.20504 14.794C1.33631 14.9252 1.51436 14.999 1.70001 14.999H4.66801C4.76595 15.0043 4.86393 14.989 4.95558 14.954C5.04723 14.919 5.1305 14.8652 5.2 14.796L12.809 7.14555L14.797 5.1997C14.8609 5.13186 14.9129 5.05378 14.951 4.96872C14.9577 4.91292 14.9577 4.85652 14.951 4.80073C14.9543 4.76815 14.9543 4.73532 14.951 4.70273L15 4.66774ZM4.38101 13.5991H2.40001V11.6182L9.351 4.66774L11.332 6.64859L4.38101 13.5991ZM12.319 5.66166L10.338 3.68081L11.332 2.69389L13.306 4.66774L12.319 5.66166Z" fill="black"/>
</svg>
