<svg width="16" height="16" viewBox="0 0 16 16" xmlns="http://www.w3.org/2000/svg">
<path d="M8.82617 10.8262C8.82617 11.2825 8.45628 11.6523 8 11.6523C7.54372 11.6523 7.17383 11.2825 7.17383 10.8262C7.17383 10.3699 7.54372 10 8 10C8.45628 10 8.82617 10.3699 8.82617 10.8262Z"/>
<path d="M8.75 5.05351C8.75 4.6393 8.41421 4.30351 8 4.30351C7.58579 4.30351 7.25 4.6393 7.25 5.05351V8.30115C7.25 8.71536 7.58579 9.05115 8 9.05115C8.41421 9.05115 8.75 8.71536 8.75 8.30115V5.05351Z"/>
<path fill-rule="evenodd" clip-rule="evenodd" d="M8 15C11.866 15 15 11.866 15 8C15 4.13401 11.866 1 8 1C4.13401 1 1 4.13401 1 8C1 11.866 4.13401 15 8 15ZM8 13.5C11.0376 13.5 13.5 11.0376 13.5 8C13.5 4.96243 11.0376 2.5 8 2.5C4.96243 2.5 2.5 4.96243 2.5 8C2.5 11.0376 4.96243 13.5 8 13.5Z"/>
</svg>
