<svg width="16" height="16" viewBox="0 0 16 16" xmlns="http://www.w3.org/2000/svg">
    <path d="M13.2653 3.98969C13.1727 3.89799 13.0625 3.82521 12.9411 3.77554C12.8197 3.72587 12.6895 3.7003 12.558 3.7003C12.4265 3.7003 12.2963 3.72587 12.1749 3.77554C12.0535 3.82521 11.9434 3.89799 11.8508 3.98969L5.85703 9.8874L4.13959 8.2432C4.04344 8.15198 3.92994 8.08026 3.80556 8.03212C3.68118 7.98398 3.54837 7.96037 3.4147 7.96265C3.28104 7.96492 3.14913 7.99302 3.02653 8.04535C2.90392 8.09769 2.79301 8.17323 2.70013 8.26766C2.60725 8.36208 2.53422 8.47356 2.4852 8.5957C2.43618 8.71785 2.41215 8.84829 2.41446 8.97956C2.41677 9.11083 2.44539 9.24037 2.49868 9.36078C2.55197 9.48119 2.62888 9.59011 2.72503 9.68133L5.14975 12.0104C5.24236 12.102 5.35254 12.1748 5.47393 12.2245C5.59532 12.2742 5.72553 12.2997 5.85703 12.2997C5.98854 12.2997 6.11874 12.2742 6.24013 12.2245C6.36153 12.1748 6.4717 12.102 6.56431 12.0104L13.2653 5.42782C13.3664 5.33621 13.4471 5.22502 13.5023 5.10126C13.5575 4.97751 13.586 4.84386 13.586 4.70875C13.586 4.57365 13.5575 4.44 13.5023 4.31624C13.4471 4.19249 13.3664 4.0813 13.2653 3.98969Z"/>
</svg>
