<svg width="16" height="16" viewBox="0 0 16 16" xmlns="http://www.w3.org/2000/svg">
    <path d="M2.5 4C2.5 3.44772 2.94772 3 3.5 3H5.5C6.05228 3 6.5 3.44772 6.5 4C6.5 4.55228 6.05228 5 5.5 5H3.5C2.94772 5 2.5 4.55228 2.5 4Z"/>
    <path d="M2.5 8C2.5 7.44772 2.94772 7 3.5 7H8.5C9.05229 7 9.5 7.44772 9.5 8C9.5 8.55229 9.05229 9 8.5 9H3.5C2.94772 9 2.5 8.55229 2.5 8Z"/>
    <path d="M3.5 11C2.94772 11 2.5 11.4477 2.5 12C2.5 12.5523 2.94772 13 3.5 13H12.5C13.0523 13 13.5 12.5523 13.5 12C13.5 11.4477 13.0523 11 12.5 11H3.5Z" />
</svg>
