<svg width="16" height="16" viewBox="0 0 16 16" xmlns="http://www.w3.org/2000/svg">
    <path d="M6.93213 9.06787C7.24265 9.36324 7.24265 9.84795 6.93213 10.1433C6.63676 10.4387 6.15205 10.4387 5.85669 10.1433C5.14733 9.4329 4.74891 8.47 4.74891 7.46606C4.74891 6.46213 5.14733 5.49924 5.85669 4.78881L8.53772 2.10778C9.24814 1.39842 10.211 1 11.215 1C12.2189 1 13.1818 1.39842 13.8922 2.10778C14.6016 2.8182 15 3.78109 15 4.78503C15 5.78896 14.6016 6.75186 13.8922 7.46228L13.8058 7.54868C13.37 7.98447 12.6239 7.74482 12.5234 7.13677C12.4841 6.89865 12.5606 6.65603 12.7295 6.48358L12.8168 6.39441C13.0291 6.18438 13.1976 5.93434 13.3127 5.65874C13.4277 5.38314 13.4869 5.08746 13.4869 4.78881C13.4869 4.49017 13.4277 4.19449 13.3127 3.91889C13.1976 3.64329 13.0291 3.39325 12.8168 3.18322C12.6068 2.97091 12.3567 2.80235 12.0811 2.68732C11.8055 2.57229 11.5098 2.51305 11.2112 2.51305C10.9125 2.51305 10.6169 2.57229 10.3413 2.68732C10.0657 2.80235 9.81562 2.97091 9.60559 3.18322L6.93213 5.85669C6.71981 6.06671 6.55126 6.31676 6.43623 6.59236C6.32119 6.86796 6.26196 7.16364 6.26196 7.46228C6.26196 7.76092 6.32119 8.0566 6.43623 8.3322C6.55126 8.6078 6.71981 8.85785 6.93213 9.06787ZM9.06787 5.85669C9.36324 5.56132 9.84795 5.56132 10.1433 5.85669C10.8527 6.56711 11.2511 7.53 11.2511 8.53394C11.2511 9.53787 10.8527 10.5008 10.1433 11.2112L7.46228 13.8922C6.75186 14.6016 5.78896 15 4.78503 15C3.78109 15 2.8182 14.6016 2.10778 13.8922C1.39842 13.1818 1 12.2189 1 11.215C1 10.211 1.39842 9.24814 2.10778 8.53772L2.19245 8.45305C2.62877 8.01673 3.37577 8.25694 3.47599 8.8658C3.51566 9.10674 3.43678 9.35204 3.26411 9.5247L3.18322 9.60559C2.97091 9.81562 2.80235 10.0657 2.68732 10.3413C2.57229 10.6169 2.51305 10.9125 2.51305 11.2112C2.51305 11.5098 2.57229 11.8055 2.68732 12.0811C2.80235 12.3567 2.97091 12.6068 3.18322 12.8168C3.39325 13.0291 3.64329 13.1976 3.91889 13.3127C4.19449 13.4277 4.49017 13.4869 4.78881 13.4869C5.08746 13.4869 5.38314 13.4277 5.65874 13.3127C5.93434 13.1976 6.18438 13.0291 6.39441 12.8168L9.06787 10.1433C9.28019 9.93329 9.44874 9.68324 9.56377 9.40764C9.67881 9.13204 9.73804 8.83637 9.73804 8.53772C9.73804 8.23908 9.67881 7.9434 9.56377 7.6678C9.44874 7.3922 9.28019 7.14215 9.06787 6.93213C8.99432 6.8632 8.93568 6.77992 8.8956 6.68743C8.85552 6.59494 8.83484 6.49521 8.83484 6.39441C8.83484 6.29361 8.85552 6.19387 8.8956 6.10138C8.93568 6.00889 8.99432 5.92561 9.06787 5.85669Z" />
</svg>
