<svg width="24" height="24" viewBox="0 0 24 24" xmlns="http://www.w3.org/2000/svg">
<path d="M12.7071 12.7071C12.5196 12.8946 12.2652 13 12 13C11.7348 13 11.4804 12.8946 11.2929 12.7071C11.1054 12.5196 11 12.2652 11 12V8C11 7.73478 11.1054 7.48043 11.2929 7.29289C11.4804 7.10536 11.7348 7 12 7C12.2652 7 12.5196 7.10536 12.7071 7.29289C12.8946 7.48043 13 7.73478 13 8V12C13 12.2652 12.8946 12.5196 12.7071 12.7071Z"/>
<path d="M12.6945 16.7893C12.4889 16.9267 12.2472 17 12 17C11.6685 17 11.3505 16.8683 11.1161 16.6339C10.8817 16.3995 10.75 16.0815 10.75 15.75C10.75 15.5028 10.8233 15.2611 10.9607 15.0555C11.098 14.85 11.2932 14.6898 11.5216 14.5952C11.7501 14.5005 12.0014 14.4758 12.2439 14.524C12.4863 14.5722 12.7091 14.6913 12.8839 14.8661C13.0587 15.0409 13.1778 15.2637 13.226 15.5061C13.2742 15.7486 13.2495 15.9999 13.1548 16.2284C13.0602 16.4568 12.9 16.652 12.6945 16.7893Z"/>
<path fill-rule="evenodd" clip-rule="evenodd" d="M6.4443 3.6853C8.08879 2.58649 10.0222 2 12 2C13.3132 2 14.6136 2.25866 15.8268 2.7612C17.0401 3.26375 18.1425 4.00035 19.0711 4.92893C19.9997 5.85752 20.7363 6.95991 21.2388 8.17317C21.7413 9.38642 22 10.6868 22 12C22 13.9778 21.4135 15.9112 20.3147 17.5557C19.2159 19.2002 17.6541 20.4819 15.8268 21.2388C13.9996 21.9957 11.9889 22.1937 10.0491 21.8079C8.10929 21.422 6.32746 20.4696 4.92894 19.0711C3.53041 17.6725 2.578 15.8907 2.19215 13.9509C1.8063 12.0111 2.00433 10.0004 2.76121 8.17317C3.51809 6.3459 4.79981 4.78412 6.4443 3.6853ZM7.55544 18.6518C8.87104 19.5308 10.4178 20 12 20C14.1217 20 16.1566 19.1571 17.6569 17.6569C19.1572 16.1566 20 14.1217 20 12C20 10.4177 19.5308 8.87103 18.6518 7.55544C17.7727 6.23984 16.5233 5.21447 15.0615 4.60896C13.5997 4.00346 11.9911 3.84504 10.4393 4.15372C8.88743 4.4624 7.46197 5.22433 6.34315 6.34315C5.22433 7.46197 4.4624 8.88743 4.15372 10.4393C3.84504 11.9911 4.00347 13.5997 4.60897 15.0615C5.21447 16.5233 6.23985 17.7727 7.55544 18.6518Z"/>
</svg>
