<svg width="24" height="24" viewBox="0 0 24 24" xmlns="http://www.w3.org/2000/svg">
<path d="M11.0655 6.11796C11.3685 6.03623 11.6812 5.99588 11.995 5.99802C13.0553 5.99802 14.0723 6.41924 14.822 7.16902C15.5718 7.91879 15.993 8.9357 15.993 9.99605V11.3354C15.993 11.6005 16.0983 11.8547 16.2858 12.0421C16.4732 12.2296 16.7274 12.3349 16.9925 12.3349C17.2576 12.3349 17.5118 12.2296 17.6993 12.0421C17.8867 11.8547 17.992 11.6005 17.992 11.3354V9.99605C17.9906 8.57987 17.488 7.20989 16.5733 6.12873C15.6587 5.04757 14.3909 4.325 12.9945 4.08897V2.99951C12.9945 2.73442 12.8892 2.48019 12.7018 2.29275C12.5143 2.1053 12.2601 2 11.995 2C11.7299 2 11.4757 2.1053 11.2882 2.29275C11.1008 2.48019 10.9955 2.73442 10.9955 2.99951V4.09896L10.5457 4.17892C10.2886 4.24784 10.0694 4.41609 9.93627 4.64665C9.80319 4.8772 9.76714 5.15118 9.83606 5.40831C9.90499 5.66545 10.0732 5.88467 10.3038 6.01776C10.5343 6.15084 10.8083 6.18689 11.0655 6.11796ZM21.7002 20.281L3.70909 2.28986C3.6159 2.19666 3.50527 2.12274 3.3835 2.0723C3.26174 2.02187 3.13124 1.99591 2.99944 1.99591C2.86765 1.99591 2.73715 2.02187 2.61539 2.0723C2.49362 2.12274 2.38299 2.19666 2.2898 2.28986C2.10159 2.47807 1.99585 2.73334 1.99585 2.99951C1.99585 3.26568 2.10159 3.52094 2.2898 3.70916L6.40776 7.81712C6.13692 8.51165 5.99795 9.25058 5.99796 9.99605V13.1745C5.4147 13.3807 4.9095 13.7623 4.55162 14.2669C4.19373 14.7715 4.00069 15.3744 3.99895 15.9931V17.9921C3.99895 18.2572 4.10426 18.5114 4.2917 18.6989C4.47914 18.8863 4.73337 18.9916 4.99846 18.9916H8.13691C8.36707 19.8385 8.86954 20.5862 9.56679 21.1193C10.264 21.6523 11.1173 21.9411 11.995 21.9411C12.8727 21.9411 13.7259 21.6523 14.4232 21.1193C15.1204 20.5862 15.6229 19.8385 15.8531 18.9916H17.5822L20.2809 21.7003C20.3738 21.7939 20.4844 21.8683 20.6062 21.919C20.728 21.9698 20.8586 21.9959 20.9905 21.9959C21.1225 21.9959 21.2531 21.9698 21.3749 21.919C21.4967 21.8683 21.6073 21.7939 21.7002 21.7003C21.7939 21.6073 21.8682 21.4968 21.919 21.375C21.9697 21.2532 21.9958 21.1226 21.9958 20.9906C21.9958 20.8587 21.9697 20.728 21.919 20.6062C21.8682 20.4844 21.7939 20.3739 21.7002 20.281ZM7.99697 9.99605C7.98172 9.81312 7.98172 9.62924 7.99697 9.44632L11.5852 12.9946H7.99697V9.99605ZM11.995 19.9911C11.6461 19.989 11.3039 19.8956 11.0023 19.7203C10.7007 19.5449 10.4503 19.2937 10.2758 18.9916H13.7141C13.5397 19.2937 13.2893 19.5449 12.9877 19.7203C12.6861 19.8956 12.3439 19.989 11.995 19.9911ZM5.99796 16.9926V15.9931C5.99796 15.728 6.10327 15.4738 6.29071 15.2863C6.47815 15.0989 6.73238 14.9936 6.99747 14.9936H13.5842L15.5832 16.9926H5.99796Z"/>
</svg>
