<svg width="24" height="24" viewBox="0 0 24 24" xmlns="http://www.w3.org/2000/svg">
<path d="M18 13.2075V10.0196C17.9986 8.59929 17.4958 7.22527 16.5806 6.14092C15.6655 5.05657 14.3971 4.33186 13 4.09513V3.00246C13 2.73659 12.8946 2.48161 12.7071 2.29361C12.5196 2.10562 12.2652 2 12 2C11.7348 2 11.4804 2.10562 11.2929 2.29361C11.1054 2.48161 11 2.73659 11 3.00246V4.09513C9.60294 4.33186 8.33452 5.05657 7.41939 6.14092C6.50425 7.22527 6.00144 8.59929 6 10.0196V13.2075C5.41645 13.4143 4.911 13.797 4.55294 14.3031C4.19488 14.8092 4.00174 15.4139 4 16.0344V18.0393C4 18.3052 4.10536 18.5601 4.29289 18.7481C4.48043 18.9361 4.73478 19.0418 5 19.0418H8.14C8.37028 19.8912 8.873 20.6411 9.5706 21.1757C10.2682 21.7103 11.1219 22 12 22C12.8781 22 13.7318 21.7103 14.4294 21.1757C15.127 20.6411 15.6297 19.8912 15.86 19.0418H19C19.2652 19.0418 19.5196 18.9361 19.7071 18.7481C19.8946 18.5601 20 18.3052 20 18.0393V16.0344C19.9983 15.4139 19.8051 14.8092 19.4471 14.3031C19.089 13.797 18.5835 13.4143 18 13.2075ZM8 10.0196C8 8.95618 8.42143 7.93626 9.17157 7.18427C9.92172 6.43229 10.9391 6.00982 12 6.00982C13.0609 6.00982 14.0783 6.43229 14.8284 7.18427C15.5786 7.93626 16 8.95618 16 10.0196V13.027H8V10.0196ZM12 20.0442C11.651 20.0421 11.3086 19.9485 11.0068 19.7726C10.7051 19.5967 10.4545 19.3448 10.28 19.0418H13.72C13.5455 19.3448 13.2949 19.5967 12.9932 19.7726C12.6914 19.9485 12.349 20.0421 12 20.0442ZM18 17.0368H6V16.0344C6 15.7685 6.10536 15.5135 6.29289 15.3255C6.48043 15.1375 6.73478 15.0319 7 15.0319H17C17.2652 15.0319 17.5196 15.1375 17.7071 15.3255C17.8946 15.5135 18 15.7685 18 16.0344V17.0368Z"/>
<path d="M18 5H19V6C19 6.26522 19.1054 6.51957 19.2929 6.70711C19.4804 6.89464 19.7348 7 20 7C20.2652 7 20.5196 6.89464 20.7071 6.70711C20.8946 6.51957 21 6.26522 21 6V5H22C22.2652 5 22.5196 4.89464 22.7071 4.70711C22.8946 4.51957 23 4.26522 23 4C23 3.73478 22.8946 3.48043 22.7071 3.29289C22.5196 3.10536 22.2652 3 22 3H21V2C21 1.73478 20.8946 1.48043 20.7071 1.29289C20.5196 1.10536 20.2652 1 20 1C19.7348 1 19.4804 1.10536 19.2929 1.29289C19.1054 1.48043 19 1.73478 19 2V3H18C17.7348 3 17.4804 3.10536 17.2929 3.29289C17.1054 3.48043 17 3.73478 17 4C17 4.26522 17.1054 4.51957 17.2929 4.70711C17.4804 4.89464 17.7348 5 18 5Z"/>
</svg>
