<svg width="24" height="24" viewBox="0 0 24 24" xmlns="http://www.w3.org/2000/svg">
<path d="M19.8901 9.54998C19.807 9.38507 19.6799 9.24638 19.5228 9.14931C19.3657 9.05223 19.1848 9.00054 19.0001 8.99998H14.0001V2.99998C14.0108 2.78067 13.9491 2.56391 13.8244 2.38318C13.6997 2.20245 13.519 2.06779 13.3101 1.99998C13.1093 1.93393 12.8928 1.93318 12.6916 1.99786C12.4903 2.06254 12.3148 2.18931 12.1901 2.35998L4.19011 13.36C4.08987 13.5048 4.02968 13.6736 4.01564 13.8492C4.00159 14.0248 4.03418 14.201 4.11011 14.36C4.18003 14.5417 4.30149 14.6991 4.4596 14.8128C4.6177 14.9265 4.80555 14.9915 5.00011 15H10.0001V21C10.0003 21.2109 10.0671 21.4163 10.191 21.5869C10.3149 21.7575 10.4896 21.8846 10.6901 21.95C10.7906 21.9811 10.8949 21.998 11.0001 22C11.1579 22.0004 11.3135 21.9635 11.4543 21.8922C11.5951 21.8209 11.717 21.7174 11.8101 21.59L19.8101 10.59C19.9178 10.4408 19.9823 10.2647 19.9964 10.0812C20.0106 9.89774 19.9738 9.71391 19.8901 9.54998ZM12.0001 17.92V14C12.0001 13.7348 11.8947 13.4804 11.7072 13.2929C11.5197 13.1053 11.2653 13 11.0001 13H7.00011L12.0001 6.07998V9.99998C12.0001 10.2652 12.1055 10.5196 12.293 10.7071C12.4805 10.8946 12.7349 11 13.0001 11H17.0001L12.0001 17.92Z"/>
</svg>
