<svg width="24" height="24" viewBox="0 0 24 24" xmlns="http://www.w3.org/2000/svg">
<path d="M12.29 5.21L13.79 6.71C13.883 6.80373 13.9936 6.87812 14.1154 6.92889C14.2373 6.97966 14.368 7.0058 14.5 7.0058C14.632 7.0058 14.7627 6.97966 14.8846 6.92889C15.0064 6.87812 15.117 6.80373 15.21 6.71C15.3618 6.5507 15.4567 6.34581 15.4803 6.12705C15.5038 5.9083 15.4545 5.6879 15.34 5.5H19C19.2652 5.5 19.5196 5.39464 19.7071 5.20711C19.8946 5.01957 20 4.76522 20 4.5C20 4.23478 19.8946 3.98043 19.7071 3.79289C19.5196 3.60536 19.2652 3.5 19 3.5H15.34C15.4545 3.3121 15.5038 3.0917 15.4803 2.87295C15.4567 2.65419 15.3618 2.4493 15.21 2.29C15.117 2.19627 15.0064 2.12188 14.8846 2.07111C14.7627 2.02034 14.632 1.9942 14.5 1.9942C14.368 1.9942 14.2373 2.02034 14.1154 2.07111C13.9936 2.12188 13.883 2.19627 13.79 2.29L12.29 3.79C12.199 3.8851 12.1276 3.99725 12.08 4.12C11.98 4.36346 11.98 4.63654 12.08 4.88C12.1276 5.00275 12.199 5.1149 12.29 5.21ZM22.92 9.12C22.8724 8.99725 22.801 8.8851 22.71 8.79L21.21 7.29C21.117 7.19627 21.0064 7.12188 20.8846 7.07111C20.7627 7.02034 20.632 6.9942 20.5 6.9942C20.368 6.9942 20.2373 7.02034 20.1154 7.07111C19.9936 7.12188 19.883 7.19627 19.79 7.29C19.6382 7.4493 19.5433 7.65419 19.5197 7.87295C19.4962 8.0917 19.5455 8.3121 19.66 8.5H16C15.7348 8.5 15.4804 8.60536 15.2929 8.79289C15.1054 8.98043 15 9.23478 15 9.5C15 9.76522 15.1054 10.0196 15.2929 10.2071C15.4804 10.3946 15.7348 10.5 16 10.5H19.66C19.5455 10.6879 19.4962 10.9083 19.5197 11.1271C19.5433 11.3458 19.6382 11.5507 19.79 11.71C19.883 11.8037 19.9936 11.8781 20.1154 11.9289C20.2373 11.9797 20.368 12.0058 20.5 12.0058C20.632 12.0058 20.7627 11.9797 20.8846 11.9289C21.0064 11.8781 21.117 11.8037 21.21 11.71L22.71 10.21C22.801 10.1149 22.8724 10.0028 22.92 9.88C23.02 9.63654 23.02 9.36346 22.92 9.12ZM11 10C10.2089 10 9.43552 10.2346 8.77772 10.6741C8.11992 11.1136 7.60723 11.7384 7.30448 12.4693C7.00173 13.2002 6.92252 14.0044 7.07686 14.7804C7.2312 15.5563 7.61216 16.269 8.17157 16.8284C8.73098 17.3878 9.44372 17.7688 10.2196 17.9231C10.9956 18.0775 11.7998 17.9983 12.5307 17.6955C13.2616 17.3928 13.8864 16.8801 14.3259 16.2223C14.7654 15.5645 15 14.7911 15 14C15 12.9391 14.5786 11.9217 13.8284 11.1716C13.0783 10.4214 12.0609 10 11 10ZM11 16C10.6044 16 10.2178 15.8827 9.88886 15.6629C9.55996 15.4432 9.30362 15.1308 9.15224 14.7654C9.00087 14.3999 8.96126 13.9978 9.03843 13.6098C9.1156 13.2219 9.30608 12.8655 9.58579 12.5858C9.86549 12.3061 10.2219 12.1156 10.6098 12.0384C10.9978 11.9613 11.3999 12.0009 11.7654 12.1522C12.1308 12.3036 12.4432 12.56 12.6629 12.8889C12.8827 13.2178 13 13.6044 13 14C13 14.5304 12.7893 15.0391 12.4142 15.4142C12.0391 15.7893 11.5304 16 11 16ZM20 13C19.7348 13 19.4804 13.1054 19.2929 13.2929C19.1054 13.4804 19 13.7348 19 14V19C19 19.2652 18.8946 19.5196 18.7071 19.7071C18.5196 19.8946 18.2652 20 18 20H4C3.73478 20 3.48043 19.8946 3.29289 19.7071C3.10536 19.5196 3 19.2652 3 19V11C3 10.7348 3.10536 10.4804 3.29289 10.2929C3.48043 10.1054 3.73478 10 4 10H6C6.21932 10.0107 6.43607 9.94898 6.6168 9.82428C6.79753 9.69957 6.93219 9.51885 7 9.31L7.54 7.69C7.60251 7.49739 7.72202 7.32829 7.88273 7.20508C8.04344 7.08188 8.23776 7.01036 8.44 7H10C10.2652 7 10.5196 6.89464 10.7071 6.70711C10.8946 6.51957 11 6.26522 11 6C11 5.73478 10.8946 5.48043 10.7071 5.29289C10.5196 5.10536 10.2652 5 10 5H8.44C7.80861 4.99977 7.19324 5.19877 6.68152 5.56864C6.16981 5.93851 5.78784 6.4604 5.59 7.06L5.28 8H4C3.20435 8 2.44129 8.31607 1.87868 8.87868C1.31607 9.44129 1 10.2044 1 11V19C1 19.7956 1.31607 20.5587 1.87868 21.1213C2.44129 21.6839 3.20435 22 4 22H18C18.7956 22 19.5587 21.6839 20.1213 21.1213C20.6839 20.5587 21 19.7956 21 19V14C21 13.7348 20.8946 13.4804 20.7071 13.2929C20.5196 13.1054 20.2652 13 20 13Z"/>
</svg>
