<svg width="24" height="24" viewBox="0 0 24 24" xmlns="http://www.w3.org/2000/svg">
<path d="M20.7051 5.68496C20.6121 5.59123 20.5015 5.51684 20.3796 5.46607C20.2578 5.4153 20.1271 5.38916 19.9951 5.38916C19.8631 5.38916 19.7323 5.4153 19.6105 5.46607C19.4886 5.51684 19.378 5.59123 19.2851 5.68496L8.83507 16.145L4.70507 12.005C4.60855 11.9117 4.4946 11.8384 4.36975 11.7892C4.24489 11.74 4.11157 11.7159 3.97739 11.7182C3.84321 11.7205 3.7108 11.7492 3.58772 11.8027C3.46464 11.8562 3.35331 11.9334 3.26007 12.03C3.16683 12.1265 3.09351 12.2404 3.04431 12.3653C2.99511 12.4901 2.97098 12.6235 2.9733 12.7576C2.97562 12.8918 3.00435 13.0242 3.05784 13.1473C3.11133 13.2704 3.18855 13.3817 3.28507 13.475L8.12507 18.315C8.21803 18.4087 8.32863 18.4831 8.45049 18.5338C8.57235 18.5846 8.70306 18.6108 8.83507 18.6108C8.96708 18.6108 9.09778 18.5846 9.21964 18.5338C9.3415 18.4831 9.4521 18.4087 9.54507 18.315L20.7051 7.15496C20.8066 7.06132 20.8876 6.94766 20.943 6.82117C20.9984 6.69467 21.027 6.55806 21.027 6.41996C21.027 6.28186 20.9984 6.14525 20.943 6.01875C20.8876 5.89225 20.8066 5.7786 20.7051 5.68496Z"/>
</svg>
