<svg width="24" height="24" viewBox="0 0 24 24" xmlns="http://www.w3.org/2000/svg">
<path d="M7.90966 5.12475C9.26946 4.31576 10.8386 3.92816 12.4187 4.01097C12.9702 4.03987 13.4408 3.6162 13.4697 3.06467C13.4986 2.51315 13.0749 2.04261 12.5234 2.01371C10.5483 1.9102 8.58682 2.3947 6.88708 3.40594C5.18733 4.41718 3.82563 5.90975 2.97416 7.69489C2.12268 9.48004 1.81969 11.4776 2.10349 13.4349C2.38729 15.3923 3.24514 17.2215 4.56856 18.6913C5.89197 20.1611 7.62152 21.2055 9.53847 21.6923C11.4554 22.1792 13.4737 22.0866 15.3381 21.4264C17.2024 20.7662 18.8292 19.568 20.0125 17.9832C21.1959 16.3985 21.8828 14.4985 21.9863 12.5234C22.0152 11.9718 21.5915 11.5013 21.04 11.4724C20.4885 11.4435 20.0179 11.8672 19.989 12.4187C19.9062 13.9988 19.3567 15.5188 18.41 16.7866C17.4633 18.0544 16.162 19.013 14.6705 19.5411C13.179 20.0693 11.5643 20.1433 10.0308 19.7539C8.49721 19.3644 7.11358 18.5289 6.05485 17.353C4.99612 16.1772 4.30984 14.7138 4.0828 13.1479C3.85575 11.5821 4.09815 9.98403 4.77933 8.55591C5.4605 7.1278 6.54987 5.93375 7.90966 5.12475Z"/>
<path d="M20.4101 6.00001L21.7101 4.71001C21.8963 4.52265 22.0009 4.2692 22.0009 4.00501C22.0009 3.74083 21.8963 3.48738 21.7101 3.30001C21.6171 3.20628 21.5065 3.13189 21.3846 3.08112C21.2628 3.03035 21.1321 3.00422 21.0001 3.00422C20.8681 3.00422 20.7374 3.03035 20.6155 3.08112C20.4936 3.13189 20.383 3.20628 20.2901 3.30001L19.0001 4.59001L17.7101 3.30001C17.6171 3.20628 17.5065 3.13189 17.3846 3.08112C17.2628 3.03035 17.1321 3.00422 17.0001 3.00422C16.8681 3.00422 16.7374 3.03035 16.6155 3.08112C16.4936 3.13189 16.383 3.20628 16.2901 3.30001C16.1038 3.48738 15.9993 3.74083 15.9993 4.00501C15.9993 4.2692 16.1038 4.52265 16.2901 4.71001L17.5901 6.00001L16.2901 7.30001C16.1038 7.48738 15.9993 7.74083 15.9993 8.00501C15.9993 8.2692 16.1038 8.52265 16.2901 8.71001C16.383 8.80374 16.4936 8.87814 16.6155 8.9289C16.7374 8.97967 16.8681 9.00581 17.0001 9.00581C17.1321 9.00581 17.2628 8.97967 17.3846 8.9289C17.5065 8.87814 17.6171 8.80374 17.7101 8.71001L19.0001 7.42001L20.2901 8.71001C20.383 8.80374 20.4936 8.87814 20.6155 8.9289C20.7374 8.97967 20.8681 9.00581 21.0001 9.00581C21.1321 9.00581 21.2628 8.97967 21.3846 8.9289C21.5065 8.87814 21.6171 8.80374 21.7101 8.71001C21.8963 8.52265 22.0009 8.2692 22.0009 8.00501C22.0009 7.74083 21.8963 7.48738 21.7101 7.30001L20.4101 6.00001Z"/>
<path d="M12 7C12.5523 7 13 7.44772 13 8V12.382L15.4472 13.6056C15.9412 13.8526 16.1414 14.4532 15.8944 14.9472C15.6474 15.4412 15.0468 15.6414 14.5528 15.3944L11 13.618V8C11 7.44772 11.4477 7 12 7Z"/>
</svg>
