<svg width="24" height="24" viewBox="0 0 24 24" xmlns="http://www.w3.org/2000/svg">
<path d="M14.2899 14.19L10.9999 17.48L9.70994 16.19C9.61698 16.0963 9.50638 16.0219 9.38452 15.9711C9.26266 15.9204 9.13195 15.8942 8.99994 15.8942C8.86793 15.8942 8.73722 15.9204 8.61537 15.9711C8.49351 16.0219 8.38291 16.0963 8.28994 16.19C8.10369 16.3774 7.99915 16.6308 7.99915 16.895C7.99915 17.1592 8.10369 17.4127 8.28994 17.6L10.2899 19.6C10.3829 19.6937 10.4935 19.7681 10.6154 19.8189C10.7372 19.8697 10.8679 19.8958 10.9999 19.8958C11.132 19.8958 11.2627 19.8697 11.3845 19.8189C11.5064 19.7681 11.617 19.6937 11.7099 19.6L15.7099 15.6C15.8962 15.4127 16.0007 15.1592 16.0007 14.895C16.0007 14.6308 15.8962 14.3774 15.7099 14.19C15.617 14.0963 15.5064 14.0219 15.3845 13.9711C15.2627 13.9204 15.132 13.8942 14.9999 13.8942C14.8679 13.8942 14.7372 13.9204 14.6154 13.9711C14.4935 14.0219 14.3829 14.0963 14.2899 14.19ZM18.4199 8.32002C17.8083 6.91583 16.7529 5.75102 15.4157 5.00418C14.0785 4.25733 12.5332 3.96969 11.0168 4.18534C9.50044 4.401 8.09664 5.10804 7.02066 6.19808C5.94468 7.28811 5.2559 8.70097 5.05994 10.22C4.22593 10.4269 3.48073 10.897 2.93468 11.5604C2.38863 12.2239 2.07075 13.0456 2.02812 13.9039C1.98549 14.7621 2.22037 15.6112 2.69798 16.3256C3.17559 17.0399 3.87055 17.5815 4.67994 17.87C4.80767 17.937 4.94839 17.9756 5.09245 17.9832C5.2365 17.9907 5.38048 17.967 5.51449 17.9136C5.64851 17.8602 5.7694 17.7785 5.86886 17.674C5.96833 17.5696 6.04401 17.4448 6.09072 17.3083C6.13743 17.1719 6.15406 17.0269 6.13946 16.8834C6.12487 16.7399 6.07941 16.6012 6.00619 16.4769C5.93297 16.3526 5.83373 16.2457 5.71527 16.1634C5.59682 16.081 5.46196 16.0253 5.31994 16C4.93017 15.8591 4.5938 15.6006 4.35734 15.2603C4.12087 14.9199 3.99598 14.5145 3.99994 14.1C3.99994 13.5696 4.21066 13.0609 4.58573 12.6858C4.9608 12.3107 5.46951 12.1 5.99994 12.1C6.26516 12.1 6.51951 11.9947 6.70705 11.8071C6.89458 11.6196 6.99994 11.3652 6.99994 11.1C7.00484 9.91815 7.42823 8.77622 8.19501 7.87683C8.96179 6.97745 10.0224 6.37876 11.1886 6.18699C12.3548 5.99521 13.5513 6.22276 14.5657 6.82924C15.5801 7.43573 16.3468 8.38195 16.7299 9.50002C16.7886 9.67 16.892 9.82101 17.0293 9.93716C17.1666 10.0533 17.3326 10.1303 17.5099 10.16C18.176 10.2859 18.7798 10.6336 19.223 11.1466C19.6661 11.6595 19.9225 12.3074 19.9503 12.9847C19.9782 13.6619 19.7758 14.3287 19.3762 14.8763C18.9767 15.4238 18.4034 15.8199 17.7499 16C17.4847 16.0332 17.2435 16.1703 17.0794 16.3813C16.9154 16.5923 16.8418 16.8598 16.8749 17.125C16.9081 17.3902 17.0452 17.6314 17.2562 17.7955C17.4672 17.9596 17.7347 18.0332 17.9999 18H18.2499C19.3023 17.7219 20.2352 17.108 20.9069 16.2515C21.5787 15.395 21.9525 14.3426 21.9718 13.2543C21.991 12.1659 21.6546 11.1011 21.0135 10.2213C20.3725 9.34162 19.4618 8.69512 18.4199 8.38002V8.32002Z"/>
</svg>
