<svg width="24" height="24" viewBox="0 0 24 24" xmlns="http://www.w3.org/2000/svg">
<path d="M10.1195 4.07536C9.9967 4.12296 9.88456 4.19432 9.78945 4.28536L6.78945 7.28536C6.69621 7.3786 6.62225 7.48929 6.57179 7.61111C6.52133 7.73293 6.49536 7.8635 6.49536 7.99536C6.49536 8.26166 6.60115 8.51706 6.78945 8.70536C6.88269 8.7986 6.99338 8.87256 7.1152 8.92302C7.23703 8.97348 7.36759 8.99945 7.49945 8.99945C7.76575 8.99945 8.02115 8.89367 8.20945 8.70536L9.49945 7.40536L9.49945 16.9954C9.49945 17.791 9.81552 18.5541 10.3781 19.1167C10.9407 19.6793 11.7038 19.9954 12.4995 19.9954L16.4995 19.9954C16.7647 19.9954 17.019 19.89 17.2066 19.7025C17.3941 19.5149 17.4995 19.2606 17.4995 18.9954C17.4995 18.7301 17.3941 18.4758 17.2066 18.2883C17.019 18.1007 16.7647 17.9954 16.4995 17.9954L12.4995 17.9954C12.2342 17.9954 11.9799 17.89 11.7923 17.7025C11.6048 17.5149 11.4995 17.2606 11.4995 16.9954L11.4995 7.40536L12.7895 8.70536C12.8824 8.79909 12.993 8.87348 13.1149 8.92425C13.2367 8.97502 13.3674 9.00116 13.4995 9.00116C13.6315 9.00116 13.7622 8.97502 13.884 8.92425C14.0059 8.87348 14.1165 8.79909 14.2095 8.70536C14.3032 8.6124 14.3776 8.5018 14.4283 8.37994C14.4791 8.25808 14.5053 8.12737 14.5053 7.99536C14.5053 7.86335 14.4791 7.73264 14.4283 7.61078C14.3776 7.48892 14.3032 7.37833 14.2095 7.28536L11.2095 4.28536C11.1143 4.19432 11.0022 4.12296 10.8795 4.07536C10.636 3.97534 10.3629 3.97534 10.1195 4.07536Z"/>
</svg>
