<svg width="24" height="24" viewBox="0 0 24 24" xmlns="http://www.w3.org/2000/svg">
<path d="M13.4038 11.995L18.7003 6.70853C18.8884 6.52038 18.9941 6.2652 18.9941 5.99911C18.9941 5.73303 18.8884 5.47785 18.7003 5.2897C18.5121 5.10155 18.257 4.99585 17.9909 4.99585C17.7248 4.99585 17.4696 5.10155 17.2815 5.2897L11.995 10.5862L6.70853 5.2897C6.52038 5.10155 6.26519 4.99585 5.99911 4.99585C5.73303 4.99585 5.47784 5.10155 5.2897 5.2897C5.10155 5.47785 4.99585 5.73303 4.99585 5.99911C4.99585 6.2652 5.10155 6.52038 5.2897 6.70853L10.5862 11.995L5.2897 17.2815C5.19604 17.3744 5.12171 17.4849 5.07098 17.6066C5.02026 17.7284 4.99414 17.859 4.99414 17.9909C4.99414 18.1228 5.02026 18.2534 5.07098 18.3751C5.12171 18.4969 5.19604 18.6074 5.2897 18.7003C5.38258 18.7939 5.49309 18.8683 5.61485 18.919C5.73661 18.9697 5.86721 18.9958 5.99911 18.9958C6.13101 18.9958 6.26161 18.9697 6.38337 18.919C6.50513 18.8683 6.61564 18.7939 6.70853 18.7003L11.995 13.4038L17.2815 18.7003C17.3743 18.7939 17.4849 18.8683 17.6066 18.919C17.7284 18.9697 17.859 18.9958 17.9909 18.9958C18.1228 18.9958 18.2534 18.9697 18.3751 18.919C18.4969 18.8683 18.6074 18.7939 18.7003 18.7003C18.7939 18.6074 18.8683 18.4969 18.919 18.3751C18.9697 18.2534 18.9958 18.1228 18.9958 17.9909C18.9958 17.859 18.9697 17.7284 18.919 17.6066C18.8683 17.4849 18.7939 17.3744 18.7003 17.2815L13.4038 11.995Z"/>
</svg>
