<svg width="24" height="24" viewBox="0 0 24 24" xmlns="http://www.w3.org/2000/svg">
<path d="M9 8C9 7.44772 9.44772 7 10 7C10.5523 7 11 7.44772 11 8C11 8.55228 10.5523 9 10 9C9.44772 9 9 8.55228 9 8ZM9 12C9 11.4477 9.44772 11 10 11C10.5523 11 11 11.4477 11 12C11 12.5523 10.5523 13 10 13C9.44772 13 9 12.5523 9 12Z"/>
<path d="M11 16C11 15.4477 10.5523 15 10 15C9.44772 15 9 15.4477 9 16C9 16.5523 9.44772 17 10 17C10.5523 17 11 16.5523 11 16Z"/>
<path d="M13 8C13 7.44772 13.4477 7 14 7C14.5523 7 15 7.44772 15 8C15 8.55228 14.5523 9 14 9C13.4477 9 13 8.55228 13 8ZM13 12C13 11.4477 13.4477 11 14 11C14.5523 11 15 11.4477 15 12C15 12.5523 14.5523 13 14 13C13.4477 13 13 12.5523 13 12Z"/>
<path d="M15 16C15 15.4477 14.5523 15 14 15C13.4477 15 13 15.4477 13 16C13 16.5523 13.4477 17 14 17C14.5523 17 15 16.5523 15 16Z"/>
</svg>
