<svg width="24" height="24" viewBox="0 0 24 24" xmlns="http://www.w3.org/2000/svg">
<path d="M3 4C3 3.44772 3.44772 3 4 3H8C8.55228 3 9 3.44772 9 4V6C9 6.55228 8.55228 7 8 7H4C3.44772 7 3 6.55228 3 6V4ZM15 11C15 10.4477 15.4477 10 16 10H20C20.5523 10 21 10.4477 21 11V13C21 13.5523 20.5523 14 20 14H16C15.4477 14 15 13.5523 15 13V11ZM15 18C15 17.4477 15.4477 17 16 17H20C20.5523 17 21 17.4477 21 18V20C21 20.5523 20.5523 21 20 21H16C15.4477 21 15 20.5523 15 20V18ZM13 12C13 12.5523 12.5523 13 12 13H7V18H12C12.5523 18 13 18.4477 13 19C13 19.5523 12.5523 20 12 20H5.81159C5.36336 20 5 19.6366 5 19.1884V10C5 9.44771 5.44772 9 6 9C6.55228 9 7 9.44772 7 10V11H12C12.5523 11 13 11.4477 13 12Z"/>
</svg>
