<svg width="24" height="24" viewBox="0 0 24 24" xmlns="http://www.w3.org/2000/svg">
<path fill-rule="evenodd" clip-rule="evenodd" d="M8 6.5V12.5H16.1492L13.6193 10.4761C12.9938 9.97568 12.9938 9.02432 13.6193 8.52391L16.1492 6.5H8ZM6 13.4982L6 13.5L6 13.5018V18.5H5C4.44772 18.5 4 18.9477 4 19.5C4 20.0523 4.44772 20.5 5 20.5H9C9.55228 20.5 10 20.0523 10 19.5C10 18.9477 9.55228 18.5 9 18.5H8V14.5H18.2873C19.4689 14.5 19.9908 13.012 19.0682 12.2739L15.6008 9.5L19.0682 6.72609C19.9908 5.98795 19.4689 4.5 18.2873 4.5L7.25 4.5C6.55965 4.5 6 5.05964 6 5.75V13.4982Z"/>
</svg>
