<svg width="24" height="24" viewBox="0 0 24 24" xmlns="http://www.w3.org/2000/svg">
<path d="M21.6601 10.25L12.6601 2.25002C12.4776 2.0897 12.243 2.00128 12.0001 2.00128C11.7572 2.00128 11.5226 2.0897 11.3401 2.25002L2.34012 10.25C2.18715 10.3853 2.07929 10.5642 2.03102 10.7627C1.98275 10.9611 1.99639 11.1696 2.07012 11.36C2.14264 11.548 2.27022 11.7096 2.43617 11.8238C2.60211 11.938 2.79868 11.9994 3.00012 12H4.00012V21C4.00012 21.2652 4.10548 21.5196 4.29301 21.7071C4.48055 21.8947 4.7349 22 5.00012 22H19.0001C19.2653 22 19.5197 21.8947 19.7072 21.7071C19.8948 21.5196 20.0001 21.2652 20.0001 21V12H21.0001C21.2016 11.9994 21.3981 11.938 21.5641 11.8238C21.73 11.7096 21.8576 11.548 21.9301 11.36C22.0038 11.1696 22.0175 10.9611 21.9692 10.7627C21.9209 10.5642 21.8131 10.3853 21.6601 10.25ZM13.0001 20H11.0001V17C11.0001 16.7348 11.1055 16.4804 11.293 16.2929C11.4805 16.1054 11.7349 16 12.0001 16C12.2653 16 12.5197 16.1054 12.7072 16.2929C12.8948 16.4804 13.0001 16.7348 13.0001 17V20ZM18.0001 20H15.0001V17C15.0001 16.2044 14.684 15.4413 14.1214 14.8787C13.5588 14.3161 12.7958 14 12.0001 14C11.2045 14 10.4414 14.3161 9.8788 14.8787C9.31619 15.4413 9.00012 16.2044 9.00012 17V20H6.00012V12H18.0001V20ZM5.63012 10L12.0001 4.34002L18.3701 10H5.63012Z"/>
</svg>
