<svg width="24" height="24" viewBox="0 0 24 24" xmlns="http://www.w3.org/2000/svg">
<path d="M10.59 14.83C11 14.44 11 13.8 10.59 13.41C10.3097 13.1327 10.0871 12.8025 9.93524 12.4386C9.78335 12.0747 9.70514 11.6843 9.70514 11.29C9.70514 10.8957 9.78335 10.5053 9.93524 10.1414C10.0871 9.77749 10.3097 9.44733 10.59 9.17002L14.12 5.64002C14.3973 5.35968 14.7275 5.13712 15.0914 4.98524C15.4553 4.83335 15.8457 4.75514 16.24 4.75514C16.6343 4.75514 17.0247 4.83335 17.3886 4.98524C17.7525 5.13712 18.0827 5.35968 18.36 5.64002C18.6404 5.91733 18.8629 6.24749 19.0148 6.61139C19.1667 6.97528 19.2449 7.36569 19.2449 7.76002C19.2449 8.15434 19.1667 8.54475 19.0148 8.90865C18.8629 9.27254 18.6404 9.6027 18.36 9.88002L18.2447 9.99776C18.0218 10.2255 17.9207 10.5458 17.9727 10.8602C18.1054 11.6631 19.0905 11.9795 19.6659 11.4041L19.78 11.29C20.7166 10.352 21.2427 9.08059 21.2427 7.75502C21.2427 6.42944 20.7166 5.15804 19.78 4.22002C18.842 3.28339 17.5706 2.75732 16.245 2.75732C14.9194 2.75732 13.648 3.28339 12.71 4.22002L9.17002 7.76002C8.23339 8.69804 7.70732 9.96944 7.70732 11.295C7.70732 12.6206 8.23339 13.892 9.17002 14.83C9.56002 15.22 10.2 15.22 10.59 14.83Z"/>
<path d="M14.83 9.17002C14.44 8.78002 13.8 8.78002 13.41 9.17002C13.3129 9.26102 13.2355 9.37099 13.1826 9.49311C13.1296 9.61523 13.1023 9.74692 13.1023 9.88002C13.1023 10.0131 13.1296 10.1448 13.1826 10.2669C13.2355 10.389 13.3129 10.499 13.41 10.59C13.6904 10.8673 13.9129 11.1975 14.0648 11.5614C14.2167 11.9253 14.2949 12.3157 14.2949 12.71C14.2949 13.1043 14.2167 13.4947 14.0648 13.8586C13.9129 14.2225 13.6904 14.5527 13.41 14.83L9.88002 18.36C9.6027 18.6404 9.27254 18.8629 8.90865 19.0148C8.54475 19.1667 8.15434 19.2449 7.76002 19.2449C7.36569 19.2449 6.97528 19.1667 6.61139 19.0148C6.24749 18.8629 5.91733 18.6404 5.64002 18.36C5.35968 18.0827 5.13712 17.7525 4.98524 17.3886C4.83335 17.0247 4.75514 16.6343 4.75514 16.24C4.75514 15.8457 4.83335 15.4553 4.98524 15.0914C5.13712 14.7275 5.35968 14.3973 5.64002 14.12L5.74682 14.0132C5.97481 13.7852 6.07896 13.4613 6.02659 13.1432C5.89426 12.3393 4.90793 12.0221 4.33182 12.5982L4.22002 12.71C3.28339 13.648 2.75732 14.9194 2.75732 16.245C2.75732 17.5706 3.28339 18.842 4.22002 19.78C5.15804 20.7166 6.42944 21.2427 7.75502 21.2427C9.08059 21.2427 10.352 20.7166 11.29 19.78L14.83 16.24C15.7666 15.302 16.2927 14.0306 16.2927 12.705C16.2927 11.3794 15.7666 10.108 14.83 9.17002Z"/>
<path d="M19.5356 16.7072L18.8285 17.4143L18.1214 16.7072C17.9339 16.5197 17.6795 16.4143 17.4143 16.4143C17.1491 16.4143 16.8947 16.5197 16.7072 16.7072C16.5197 16.8947 16.4143 17.1491 16.4143 17.4143C16.4143 17.6795 16.5197 17.9339 16.7072 18.1214L17.4143 18.8285L16.7072 19.5356C16.5197 19.7232 16.4143 19.9775 16.4143 20.2427C16.4143 20.5079 16.5197 20.7623 16.7072 20.9498C16.8947 21.1374 17.1491 21.2427 17.4143 21.2427C17.6795 21.2427 17.9339 21.1374 18.1214 20.9498L18.8285 20.2427L19.5356 20.9498C19.7232 21.1374 19.9775 21.2427 20.2427 21.2427C20.5079 21.2427 20.7623 21.1374 20.9498 20.9498C21.1374 20.7623 21.2427 20.508 21.2427 20.2427C21.2427 19.9775 21.1374 19.7232 20.9498 19.5356L20.2427 18.8285L20.9498 18.1214C21.1374 17.9339 21.2427 17.6795 21.2427 17.4143C21.2427 17.1491 21.1374 16.8947 20.9498 16.7072C20.7623 16.5197 20.5079 16.4143 20.2427 16.4143C19.9775 16.4143 19.7232 16.5197 19.5356 16.7072Z"/>
</svg>
