<svg width="24" height="24" viewBox="0 0 24 24" xmlns="http://www.w3.org/2000/svg">
    <path d="M3.70999 16.29C3.61488 16.199 3.50274 16.1276 3.37999 16.08C3.13653 15.98 2.86345 15.98 2.61999 16.08C2.49724 16.1276 2.38509 16.199 2.28999 16.29C2.19895 16.3851 2.12758 16.4972 2.07999 16.62C2.00341 16.8021 1.98249 17.0028 2.01986 17.1968C2.05723 17.3908 2.15123 17.5694 2.28999 17.71C2.38719 17.7983 2.4988 17.8694 2.61999 17.92C2.73969 17.9729 2.86912 18.0002 2.99999 18.0002C3.13086 18.0002 3.26029 17.9729 3.37999 17.92C3.50117 17.8694 3.61279 17.7983 3.70999 17.71C3.84875 17.5694 3.94274 17.3908 3.98012 17.1968C4.01749 17.0028 3.99657 16.8021 3.91999 16.62C3.87239 16.4972 3.80103 16.3851 3.70999 16.29ZM6.99999 8H21C21.2652 8 21.5196 7.89464 21.7071 7.70711C21.8946 7.51957 22 7.26522 22 7C22 6.73478 21.8946 6.48043 21.7071 6.29289C21.5196 6.10536 21.2652 6 21 6H6.99999C6.73477 6 6.48042 6.10536 6.29288 6.29289C6.10535 6.48043 5.99999 6.73478 5.99999 7C5.99999 7.26522 6.10535 7.51957 6.29288 7.70711C6.48042 7.89464 6.73477 8 6.99999 8ZM3.70999 11.29C3.56936 11.1512 3.39079 11.0572 3.1968 11.0199C3.00281 10.9825 2.8021 11.0034 2.61999 11.08C2.4988 11.1306 2.38719 11.2017 2.28999 11.29C2.19895 11.3851 2.12758 11.4972 2.07999 11.62C2.02708 11.7397 1.99976 11.8691 1.99976 12C1.99976 12.1309 2.02708 12.2603 2.07999 12.38C2.13063 12.5012 2.20166 12.6128 2.28999 12.71C2.38719 12.7983 2.4988 12.8694 2.61999 12.92C2.73969 12.9729 2.86912 13.0002 2.99999 13.0002C3.13086 13.0002 3.26029 12.9729 3.37999 12.92C3.50117 12.8694 3.61279 12.7983 3.70999 12.71C3.79832 12.6128 3.86935 12.5012 3.91999 12.38C3.97289 12.2603 4.00022 12.1309 4.00022 12C4.00022 11.8691 3.97289 11.7397 3.91999 11.62C3.87239 11.4972 3.80103 11.3851 3.70999 11.29ZM21 11H6.99999C6.73477 11 6.48042 11.1054 6.29288 11.2929C6.10535 11.4804 5.99999 11.7348 5.99999 12C5.99999 12.2652 6.10535 12.5196 6.29288 12.7071C6.48042 12.8946 6.73477 13 6.99999 13H21C21.2652 13 21.5196 12.8946 21.7071 12.7071C21.8946 12.5196 22 12.2652 22 12C22 11.7348 21.8946 11.4804 21.7071 11.2929C21.5196 11.1054 21.2652 11 21 11ZM3.70999 6.29C3.61488 6.19896 3.50274 6.12759 3.37999 6.08C3.19788 6.00342 2.99716 5.9825 2.80317 6.01987C2.60919 6.05725 2.43061 6.15124 2.28999 6.29C2.20166 6.3872 2.13063 6.49882 2.07999 6.62C2.02708 6.7397 1.99976 6.86913 1.99976 7C1.99976 7.13087 2.02708 7.2603 2.07999 7.38C2.13063 7.50119 2.20166 7.6128 2.28999 7.71C2.38719 7.79833 2.4988 7.86936 2.61999 7.92C2.8021 7.99658 3.00281 8.0175 3.1968 7.98013C3.39079 7.94275 3.56936 7.84876 3.70999 7.71C3.79832 7.6128 3.86935 7.50119 3.91999 7.38C3.97289 7.2603 4.00022 7.13087 4.00022 7C4.00022 6.86913 3.97289 6.7397 3.91999 6.62C3.86935 6.49882 3.79832 6.3872 3.70999 6.29ZM21 16H6.99999C6.73477 16 6.48042 16.1054 6.29288 16.2929C6.10535 16.4804 5.99999 16.7348 5.99999 17C5.99999 17.2652 6.10535 17.5196 6.29288 17.7071C6.48042 17.8946 6.73477 18 6.99999 18H21C21.2652 18 21.5196 17.8946 21.7071 17.7071C21.8946 17.5196 22 17.2652 22 17C22 16.7348 21.8946 16.4804 21.7071 16.2929C21.5196 16.1054 21.2652 16 21 16Z" />
</svg>
