<svg width="24" height="24" viewBox="0 0 24 24" xmlns="http://www.w3.org/2000/svg">
<path fill-rule="evenodd" clip-rule="evenodd" d="M12 6C11.2044 6 10.4413 6.31607 9.87868 6.87868C9.31607 7.44129 9 8.20435 9 9V10C8.46957 10 7.96086 10.2107 7.58579 10.5858C7.21071 10.9609 7 11.4696 7 12V16C7 16.5304 7.21071 17.0391 7.58579 17.4142C7.96086 17.7893 8.46957 18 9 18H15C15.5304 18 16.0391 17.7893 16.4142 17.4142C16.7893 17.0391 17 16.5304 17 16V12C17 11.4696 16.7893 10.9609 16.4142 10.5858C16.0391 10.2107 15.5304 10 15 10V9C15 8.20435 14.6839 7.44129 14.1213 6.87868C13.5587 6.31607 12.7956 6 12 6ZM11 9C11 8.73478 11.1054 8.48043 11.2929 8.29289C11.4804 8.10536 11.7348 8 12 8C12.2652 8 12.5196 8.10536 12.7071 8.29289C12.8946 8.48043 13 8.73478 13 9V10H11V9ZM15 12V16H9V12H15Z"/>
</svg>
