<svg width="24" height="24" viewBox="0 0 24 24" xmlns="http://www.w3.org/2000/svg">
<path d="M15.5765 6.69167L11 10.2949L11.0118 7.2705C9.6 7.52776 8.41569 8.22717 7.45882 9.36875C6.50196 10.5103 6.02353 11.8368 6.02353 13.3482C6.02353 14.8596 6.50196 16.186 7.45882 17.3276C8.41569 18.4692 9.6 19.1686 11.0118 19.4259V21.5C9.03529 21.2427 7.37255 20.3423 6.02353 18.7988C4.67451 17.2553 4 15.4384 4 13.3482C4 11.258 4.67451 9.4411 6.02353 7.89756C7.37255 6.35402 9.03529 5.45363 11.0118 5.19637L11 2.5L15.5765 6.69167ZM20 12.3352H17.9765C17.8196 11.4027 17.4745 10.5505 16.9412 9.77875L18.3529 8.33168C19.2627 9.52149 19.8118 10.856 20 12.3352ZM13.0353 19.4259C13.9137 19.2651 14.7294 18.9114 15.4824 18.3647L16.9412 19.86C15.7804 20.7604 14.4784 21.3071 13.0353 21.5V19.4259ZM16.9412 16.9176C17.4745 16.1458 17.8196 15.2937 17.9765 14.3611H20C19.8118 15.8404 19.2627 17.1749 18.3529 18.3647L16.9412 16.9176Z"/>
</svg>
