<svg width="24" height="24" viewBox="0 0 24 24" xmlns="http://www.w3.org/2000/svg">
<path fill-rule="evenodd" clip-rule="evenodd" d="M13.71 3.29L19.71 9.29C19.8027 9.38344 19.876 9.49426 19.9258 9.61609C19.9755 9.73793 20.0008 9.86839 20 10V13C20 13.3333 19.8 14 19 14C18.2 14 18 13.265 18 13V10.41L14 6.41V8C14 8.26522 13.8946 8.51957 13.7071 8.70711C13.5196 8.89464 13.2652 9 13 9H7C6.73478 9 6.48043 8.89464 6.29289 8.70711C6.10536 8.51957 6 8.26522 6 8V5H5C4.73478 5 4.48043 5.10536 4.29289 5.29289C4.10536 5.48043 4 5.73478 4 6V18C4 18.2652 4.10536 18.5196 4.29289 18.7071C4.48043 18.8946 4.73478 19 5 19H6V16C6 15.2044 6.31607 14.4413 6.87868 13.8787C7.44129 13.3161 8.20435 13 9 13H12C12.3333 13 13 13.2 13 14C13 14.8 12.3333 15 12 15H9C8.73478 15 8.48043 15.1054 8.29289 15.2929C8.10536 15.4804 8 15.7348 8 16V19H12C12.3333 19 13 19.2 13 20C13 20.8 12.3333 21 12 21H5C4.20435 21 3.44129 20.6839 2.87868 20.1213C2.31607 19.5587 2 18.7957 2 18V6C2 5.20435 2.31607 4.44129 2.87868 3.87868C3.44129 3.31607 4.20435 3 5 3H13C13.1338 3.0025 13.266 3.02962 13.39 3.08C13.5092 3.12874 13.6178 3.20005 13.71 3.29ZM12 5H8V7H12V5Z"/>
<path d="M21.92 17.1209C21.8724 16.9984 21.801 16.8865 21.71 16.7916L20.21 15.2951C20.117 15.2016 20.0064 15.1274 19.8846 15.0767C19.7627 15.0261 19.632 15 19.5 15C19.368 15 19.2373 15.0261 19.1154 15.0767C18.9936 15.1274 18.883 15.2016 18.79 15.2951C18.6382 15.454 18.5433 15.6585 18.5197 15.8767C18.4962 16.095 18.5455 16.3149 18.66 16.5023H15C14.7348 16.5023 14.4804 16.6074 14.2929 16.7945C14.1054 16.9816 14 17.2354 14 17.5C14 17.7646 14.1054 18.0184 14.2929 18.2055C14.4804 18.3926 14.7348 18.4977 15 18.4977H18.66C18.5455 18.6851 18.4962 18.905 18.5197 19.1233C18.5433 19.3415 18.6382 19.546 18.79 19.7049C18.883 19.7984 18.9936 19.8726 19.1154 19.9233C19.2373 19.9739 19.368 20 19.5 20C19.632 20 19.7627 19.9739 19.8846 19.9233C20.0064 19.8726 20.117 19.7984 20.21 19.7049L21.71 18.2084C21.801 18.1135 21.8724 18.0016 21.92 17.8791C22.02 17.6362 22.02 17.3638 21.92 17.1209Z"/>
</svg>
