<svg width="24" height="24" viewBox="0 0 24 24" xmlns="http://www.w3.org/2000/svg">
<path fill-rule="evenodd" clip-rule="evenodd" d="M7.90966 5.12475C9.26946 4.31576 10.8386 3.92816 12.4187 4.01097C12.9702 4.03987 13.4408 3.6162 13.4697 3.06467C13.4986 2.51315 13.0749 2.04261 12.5234 2.01371C10.5483 1.9102 8.58682 2.3947 6.88708 3.40594C5.18733 4.41718 3.82563 5.90975 2.97416 7.69489C2.12268 9.48004 1.81969 11.4776 2.10349 13.4349C2.38729 15.3923 3.24514 17.2215 4.56856 18.6913C5.89197 20.1611 7.62152 21.2055 9.53847 21.6923C11.4554 22.1792 13.4737 22.0866 15.3381 21.4264C17.2024 20.7662 18.8292 19.568 20.0125 17.9832C21.1959 16.3985 21.8828 14.4985 21.9863 12.5234C22.0152 11.9718 21.5915 11.5013 21.04 11.4724C20.4885 11.4435 20.0179 11.8672 19.989 12.4187C19.9062 13.9988 19.3567 15.5188 18.41 16.7866C18.166 17.1135 17.8983 17.4198 17.6099 17.7034V17.641C17.2285 16.7329 16.5876 15.9574 15.7676 15.4117C14.9476 14.866 13.9849 14.5742 12.9999 14.573H10.9999C10.0149 14.5742 9.05217 14.866 8.23217 15.4117C7.41217 15.9574 6.77134 16.7329 6.3899 17.641V17.7032C6.27494 17.5901 6.16319 17.4734 6.05485 17.353C4.99612 16.1772 4.30984 14.7138 4.0828 13.1479C3.85575 11.5821 4.09815 9.98403 4.77933 8.55591C5.4605 7.1278 6.54987 5.93375 7.90966 5.12475ZM8.02617 18.9432C8.65127 19.301 9.32515 19.5746 10.0308 19.7539C11.5643 20.1433 13.179 20.0693 14.6705 19.5411C15.1344 19.3769 15.5799 19.1709 16.0021 18.927H15.9259C15.7784 18.2605 15.4081 17.6641 14.8763 17.2362C14.3444 16.8083 13.6826 16.5744 12.9999 16.573H10.9999C10.3172 16.5742 9.65529 16.808 9.12337 17.236C8.59144 17.6639 8.22126 18.2604 8.0739 18.927L8.02617 18.9432Z"/>
<path d="M19.9944 4.28445V7.59653C19.9944 7.99589 19.6707 8.31963 19.2713 8.31963C18.872 8.31963 18.5482 7.99589 18.5482 7.59653V4.28445H17.3922C17.0375 4.28445 16.75 3.99692 16.75 3.64223C16.75 3.28754 17.0375 3 17.3922 3H21.1504C21.5051 3 21.7927 3.28754 21.7927 3.64223C21.7927 3.99692 21.5051 4.28445 21.1504 4.28445H19.9944Z"/>
<path fill-rule="evenodd" clip-rule="evenodd" d="M12 6C9.72001 6 8.00001 7.72 8.00001 10C8.00001 12.28 9.72001 14 12 14C14.28 14 16 12.28 16 10C16 7.72 14.28 6 12 6ZM12 12C10.822 12 10 11.178 10 10C10 8.822 10.822 8 12 8C13.178 8 14 8.822 14 10C14 11.178 13.178 12 12 12Z"/>
</svg>
