<svg width="20" height="14" viewBox="0 0 20 14" xmlns="http://www.w3.org/2000/svg">
<path d="M14 1C14 0.734784 13.8946 0.48043 13.7071 0.292893C13.5196 0.105357 13.2652 0 13 0H1C0.734784 0 0.48043 0.105357 0.292893 0.292893C0.105357 0.48043 0 0.734784 0 1C0 1.26522 0.105357 1.51957 0.292893 1.70711C0.48043 1.89464 0.734784 2 1 2H6V13C6 13.2652 6.10536 13.5196 6.29289 13.7071C6.48043 13.8946 6.73478 14 7 14C7.26522 14 7.51957 13.8946 7.70711 13.7071C7.89464 13.5196 8 13.2652 8 13V2H13C13.2652 2 13.5196 1.89464 13.7071 1.70711C13.8946 1.51957 14 1.26522 14 1ZM19 6H13C12.7348 6 12.4804 6.10536 12.2929 6.29289C12.1054 6.48043 12 6.73478 12 7C12 7.26522 12.1054 7.51957 12.2929 7.70711C12.4804 7.89464 12.7348 8 13 8H15V13C15 13.2652 15.1054 13.5196 15.2929 13.7071C15.4804 13.8946 15.7348 14 16 14C16.2652 14 16.5196 13.8946 16.7071 13.7071C16.8946 13.5196 17 13.2652 17 13V8H19C19.2652 8 19.5196 7.89464 19.7071 7.70711C19.8946 7.51957 20 7.26522 20 7C20 6.73478 19.8946 6.48043 19.7071 6.29289C19.5196 6.10536 19.2652 6 19 6Z" />
</svg>
