<svg xmlns="http://www.w3.org/2000/svg" xmlns:xlink="http://www.w3.org/1999/xlink"><defs><symbol id="icon-16-info-circle-b49fb" viewBox="0 0 16 16"><path d="M8 6.666A.833.833 0 118 5a.833.833 0 010 1.666zm0 1a.667.667 0 01.667.667v2a.667.667 0 11-1.334 0v-2A.667.667 0 018 7.666zm0-6.333A6.667 6.667 0 1014.667 8 6.674 6.674 0 008 1.333zm0 12A5.334 5.334 0 1113.333 8 5.34 5.34 0 018 13.333z"/></symbol><symbol id="icon-16-no-image-ce43a" viewBox="0 0 16 16"><path d="M12.667 6.667a.667.667 0 00-.667.666v2.26l-.987-.986a1.848 1.848 0 00-2.62 0l-.466.466-1.654-1.66a1.86 1.86 0 00-2.62 0l-.986.987V4.667A.667.667 0 013.333 4h5.334a.667.667 0 100-1.333H3.333a2 2 0 00-2 2v8a2 2 0 002 2h8a2 2 0 002-2V7.333a.667.667 0 00-.666-.666zm-9.334 6.666a.667.667 0 01-.666-.666v-2.38L4.6 8.353a.527.527 0 01.727 0l2.113 2.114 2.86 2.866H3.333zM12 12.667a.593.593 0 01-.12.353L8.873 10l.467-.467a.52.52 0 01.733 0L12 11.48v1.187zm1.607-9.334l.866-.86a.667.667 0 10-.946-.94l-.86.86-.86-.86a.667.667 0 10-.947.94l.867.86-.867.867a.667.667 0 10.947.94l.86-.86.86.86a.666.666 0 10.946-.94l-.866-.867z"/></symbol><symbol id="icon-16-small-circle-8fce5" viewBox="0 0 16 16"><circle cx="8" cy="8" r="3"/></symbol><symbol id="icon-16-triangle-down-alt-ff6ec" viewBox="0 0 16 16"><path d="M10.752 8.36a.6.6 0 01.468.975l-2.752 3.44a.6.6 0 01-.937 0L4.78 9.335a.6.6 0 01.468-.975h2V3.75a.75.75 0 011.5 0v4.61h2.004z"/></symbol><symbol id="icon-16-triangle-right-6dcac" viewBox="0 0 16 16"><path d="M5.5 5.748a.6.6 0 01.975-.468l3.44 2.751a.6.6 0 010 .938l-3.44 2.751a.6.6 0 01-.975-.468V5.748z"/></symbol><symbol id="icon-account-multiple-outline-72da9" viewBox="0 0 24 24"><path d="M12.3 12.22A4.92 4.92 0 0014 8.5a5 5 0 00-10 0 4.92 4.92 0 001.7 3.72A8 8 0 001 19.5a1 1 0 102 0 6 6 0 1112 0 1 1 0 002 0 8 8 0 00-4.7-7.28zM9 11.5a3 3 0 110-6 3 3 0 010 6zm9.74.32A5 5 0 0015 3.5a1 1 0 100 2 3 3 0 013 3 3 3 0 01-1.5 2.59 1 1 0 00-.05 1.7l.39.26.13.07a7 7 0 014 6.38 1 1 0 002 0 9 9 0 00-4.23-7.68z"/></symbol><symbol id="icon-alert-3f07f" viewBox="0 0 24 24"><path d="M12 14a1 1 0 001-1V7a1 1 0 00-2 0v6a1 1 0 001 1zm0 4a1.25 1.25 0 100-2.5 1.25 1.25 0 000 2.5z"/></symbol><symbol id="icon-arrow-down-38635" viewBox="0 0 24 24"><path d="M16.96 9.17a.994.994 0 00-1.405 0l-3.576 3.54-3.526-3.54a.994.994 0 00-1.699.71 1.003 1.003 0 00.295.71l4.223 4.24a.992.992 0 001.414 0l4.273-4.24a.997.997 0 00.218-1.095.999.999 0 00-.218-.325z"/></symbol><symbol id="icon-arrow-left-long-eb12a" viewBox="0 0 24 24"><path d="M7.914 11l2.88-2.88a1 1 0 00-1.415-1.415l-4.585 4.584a1.005 1.005 0 000 1.422l4.585 4.584a1 1 0 101.415-1.415L7.914 13H18.5a1 1 0 100-2H7.914z"/></symbol><symbol id="icon-arrow-left-02031" viewBox="0 0 24 24"><path d="M14.837 16.958a.994.994 0 000-1.405l-3.54-3.576 3.54-3.525a.994.994 0 00-.71-1.7 1.003 1.003 0 00-.71.295l-4.24 4.223a.996.996 0 000 1.415l4.24 4.273a.997.997 0 001.094.218.999.999 0 00.326-.218z"/></symbol><symbol id="icon-arrow-right-long-da661" viewBox="0 0 24 24"><path d="M16.086 13l-2.88 2.88a1 1 0 001.415 1.415l4.585-4.584a1.005 1.005 0 000-1.422L14.62 6.705a1 1 0 00-1.415 1.415l2.88 2.88H5.5a1 1 0 000 2h10.586z"/></symbol><symbol id="icon-arrow-right-c7bb5" viewBox="0 0 24 24"><path d="M9.172 16.958a.994.994 0 010-1.405l3.54-3.576-3.54-3.525a.994.994 0 01.71-1.7 1.003 1.003 0 01.71.295l4.24 4.223a.995.995 0 010 1.415l-4.24 4.273a.999.999 0 01-1.095.218.998.998 0 01-.325-.218z"/></symbol><symbol id="icon-arrow-up-d84cc" viewBox="0 0 24 24"><path d="M16.96 14.835a.994.994 0 01-1.405 0l-3.576-3.54-3.526 3.54a.994.994 0 01-1.622-.326 1.003 1.003 0 01.218-1.094l4.223-4.24a.994.994 0 011.414 0l4.273 4.24a.999.999 0 01.218 1.095.997.997 0 01-.218.325z"/></symbol><symbol id="icon-asterisk-2593d" viewBox="0 0 16 16"><path d="M14.562 10.634L10 8l4.562-2.634a1 1 0 00-1-1.732L9 6.268V1a1 1 0 10-2 0v5.268L2.438 3.634a1 1 0 00-1 1.732L6 8l-4.562 2.634a1 1 0 001 1.732L7 9.732V15a1 1 0 102 0V9.732l4.562 2.634a1 1 0 001-1.732z"/></symbol><symbol id="icon-attachment-big-de632" viewBox="0 0 24 24"><path d="M18.807 12.585l-6.296 6.302a4.331 4.331 0 01-7.204-3.107A4.325 4.325 0 016.4 12.778l8.15-8.144a2.619 2.619 0 013.606 0 2.564 2.564 0 010 3.604l-7.03 7.014a.778.778 0 01-1.14-1.059l5.226-5.212a1.022 1.022 0 10-1.447-1.445l-5.226 5.232a2.788 2.788 0 000 3.96 2.874 2.874 0 003.963 0l7.019-7.024a4.58 4.58 0 00-3.273-7.703 4.586 4.586 0 00-3.206 1.228l-8.15 8.145A6.36 6.36 0 009.52 21.999a6.37 6.37 0 004.428-1.697l6.306-6.292a1.022 1.022 0 10-1.446-1.445v.02z"/></symbol><symbol id="icon-badge-3760e" viewBox="0 0 8 8"><circle cx="4" cy="4" r="3"/></symbol><symbol id="icon-bolt-alt-3201c" viewBox="0 0 24 24"><path d="M19.89 9.55A1 1 0 0019 9h-5V3a1 1 0 00-1.309-1.002 1 1 0 00-.501.362l-8 11a1 1 0 00-.08 1A1 1 0 005 15h5v6a1 1 0 001.454.892 1 1 0 00.356-.302l8-11a1 1 0 00.08-1.04zM12 17.92V14a1 1 0 00-1-1H7l5-6.92V10a1 1 0 001 1h4l-5 6.92z"/></symbol><symbol id="icon-book-open-696a4" viewBox="0 0 24 24"><path d="M21.17 2.06A13.1 13.1 0 0019 1.87a12.94 12.94 0 00-7 2.05 12.94 12.94 0 00-7-2 13.1 13.1 0 00-2.17.19 1 1 0 00-.83 1v12a1 1 0 001.17 1 10.9 10.9 0 018.25 1.91l.12.07h.11a.91.91 0 00.7 0h.11l.12-.07A10.898 10.898 0 0120.83 16 .999.999 0 0022 15V3a1 1 0 00-.83-.94zM11 15.35a12.87 12.87 0 00-6-1.48H4v-10a8.34 8.34 0 011 0 10.86 10.86 0 016 1.8v9.68zm9-1.44h-1a12.87 12.87 0 00-6 1.48V5.67a10.86 10.86 0 016-1.8 8.34 8.34 0 011 0v10.04zm1.17 4.15a13.099 13.099 0 00-2.17-.19 12.94 12.94 0 00-7 2.05 12.94 12.94 0 00-7-2.05 13.05 13.05 0 00-2.17.19A1 1 0 002 19.21a1 1 0 001.17.79 10.9 10.9 0 018.25 1.91 1 1 0 001.16 0A10.9 10.9 0 0120.83 20a1 1 0 001.17-.79 1.002 1.002 0 00-.83-1.15z"/></symbol><symbol id="icon-bullseye-arrow-65a26" viewBox="0 0 24 24"><path d="M12 2a10 10 0 1010 10c0-1.16-.21-2.31-.61-3.39l-1.6 1.6c.14.59.21 1.19.21 1.79a8 8 0 11-8-8c.6 0 1.2.07 1.79.21L15.4 2.6C14.31 2.21 13.16 2 12 2zm7 0l-4 4v1.5l-2.55 2.55C12.3 10 12.15 10 12 10a2 2 0 102 2c0-.15 0-.3-.05-.45L16.5 9H18l4-4h-3V2zm-7 4a6 6 0 106 6h-2a4 4 0 11-4-4V6z"/></symbol><symbol id="icon-calendar-882bb" viewBox="0 0 24 24"><path d="M7 12h2v2H7v-2zm14-6v14a2 2 0 01-2 2H5a2 2 0 01-2-2V6a2 2 0 012-2h1V3a1 1 0 012 0v1h8V3a1 1 0 112 0v1h1a2 2 0 012 2zM5 8h14V6H5v2zm14 12V10H5v10h14zm-4-6v-2h2v2h-2zm-4 0v-2h2v2h-2zm-4 2h2v2H7v-2zm8 2v-2h2v2h-2zm-4 0v-2h2v2h-2z"/></symbol><symbol id="icon-camera-plus-590de" viewBox="0 0 24 24"><path d="M20 10.5a1 1 0 00-1 1v7a1 1 0 01-1 1H4a1 1 0 01-1-1v-8a1 1 0 011-1h2a1 1 0 001-.68l.54-1.64a1 1 0 01.95-.68H14a1 1 0 100-2H8.44A3 3 0 005.6 6.55l-.32 1H4a3 3 0 00-3 3v8a3 3 0 003 3h14a3 3 0 003-3v-7a1 1 0 00-1-1.05zm-9-1a4 4 0 100 8 4 4 0 000-8zm0 6a2 2 0 110-4 2 2 0 010 4zm11-11h-1v-1a1 1 0 00-2 0v1h-1a1 1 0 100 2h1v1a1 1 0 002 0v-1h1a1 1 0 100-2z"/></symbol><symbol id="icon-check-54975" viewBox="0 0 24 24"><path d="M18.71 7.21a.999.999 0 00-1.42 0l-7.45 7.46-3.13-3.14A1.02 1.02 0 105.29 13l3.84 3.84a1 1 0 001.42 0l8.16-8.16a.999.999 0 000-1.47z"/></symbol><symbol id="icon-content-multiple-bf175" viewBox="0 0 24 24"><path d="M18 19H6a3 3 0 01-3-3V8a1 1 0 00-2 0v8a5 5 0 005 5h12a1 1 0 000-2zm-4-8h-4a1 1 0 000 2h4a1 1 0 000-2zm9-1.06a1.307 1.307 0 00-.06-.27v-.09a1.07 1.07 0 00-.19-.28l-6-6a1.071 1.071 0 00-.28-.19h-.09a.88.88 0 00-.33-.11H8a3 3 0 00-3 3v8a3 3 0 003 3h12a3 3 0 003-3V9.94zm-6-3.53L19.59 9H18a1 1 0 01-1-1V6.41zM21 14a1 1 0 01-1 1H8a1 1 0 01-1-1V6a1 1 0 011-1h7v3a3 3 0 003 3h3v3zM10 9h2a1 1 0 100-2h-2a1 1 0 000 2z"/></symbol><symbol id="icon-cross-big-ed53c" viewBox="0 0 24 24"><path d="M13.404 11.995L17.7 7.71a1.003 1.003 0 00-1.418-1.42l-4.287 4.297L7.709 6.29a1.003 1.003 0 00-1.42 1.419l4.297 4.286-4.296 4.287a.999.999 0 000 1.418 1.001 1.001 0 001.419 0l4.286-4.296 4.287 4.296a1 1 0 001.637-.325 1 1 0 00-.219-1.093l-4.296-4.287z"/></symbol><symbol id="icon-cross-small-c6147" viewBox="0 0 24 24"><path d="M8.143 6.714a1.01 1.01 0 10-1.429 1.429l3.857 3.856-3.857 3.857a1.01 1.01 0 001.429 1.428l3.856-3.856H12l3.857 3.856a1.01 1.01 0 101.429-1.428l-3.857-3.857 3.857-3.856a1.01 1.01 0 10-1.429-1.429l-3.856 3.857L12 10.57 8.142 6.715z"/></symbol><symbol id="icon-dashboard-1f59f" viewBox="0 0 24 24"><path d="M10 13H4a1 1 0 00-1 1v6a1 1 0 001 1h6a1 1 0 001-1v-6a1 1 0 00-1-1zm-1 6H5v-4h4v4zM20 3h-6a1 1 0 00-1 1v6a1 1 0 001 1h6a1 1 0 001-1V4a1 1 0 00-1-1zm-1 6h-4V5h4v4zm-9-6H4a1 1 0 00-1 1v6a1 1 0 001 1h6a1 1 0 001-1V4a1 1 0 00-1-1zM9 9H5V5h4v4z"/><path fill-rule="evenodd" clip-rule="evenodd" d="M20 13h-6a1 1 0 00-1 1v6a1 1 0 001 1h6a1 1 0 001-1v-6a1 1 0 00-1-1zm-1 6h-4v-4h4v4z"/></symbol><symbol id="icon-delete-59b7a" viewBox="0 0 24 24"><path d="M10 18a1 1 0 001-1v-6a1 1 0 00-2 0v6a1 1 0 001 1zM20 6h-4V5a3 3 0 00-3-3h-2a3 3 0 00-3 3v1H4a1 1 0 000 2h1v11a3 3 0 003 3h8a3 3 0 003-3V8h1a1 1 0 100-2zM10 5a1 1 0 011-1h2a1 1 0 011 1v1h-4V5zm7 14a1 1 0 01-1 1H8a1 1 0 01-1-1V8h10v11zm-3-1a1 1 0 001-1v-6a1 1 0 00-2 0v6a1 1 0 001 1z"/></symbol><symbol id="icon-density-high-46fe1" viewBox="0 0 24 24"><path d="M3 4a1 1 0 011-1h16a1 1 0 110 2H4a1 1 0 01-1-1zm0 4a1 1 0 011-1h16a1 1 0 110 2H4a1 1 0 01-1-1zm0 4a1 1 0 011-1h16a1 1 0 110 2H4a1 1 0 01-1-1zm0 4a1 1 0 011-1h16a1 1 0 110 2H4a1 1 0 01-1-1zm0 4a1 1 0 011-1h16a1 1 0 110 2H4a1 1 0 01-1-1z"/></symbol><symbol id="icon-dot-b9116" viewBox="0 0 24 24"><path d="M10.337 13.111a2 2 0 113.325-2.222 2 2 0 01-3.325 2.222z"/></symbol><symbol id="icon-edit-alt-fa5fe" viewBox="0 0 24 24"><path d="M22 7.24a.999.999 0 00-.29-.71l-4.24-4.24a.999.999 0 00-.71-.29 1 1 0 00-.71.29l-2.83 2.83L2.29 16.05a1.001 1.001 0 00-.29.71V21a1 1 0 001 1h4.24a1.001 1.001 0 00.76-.29l10.87-10.93L21.71 8c.091-.097.166-.208.22-.33.01-.08.01-.16 0-.24a.697.697 0 000-.14l.07-.05zM6.83 20H4v-2.83l9.93-9.93 2.83 2.83L6.83 20zM18.17 8.66l-2.83-2.83 1.42-1.41 2.82 2.82-1.41 1.42z"/></symbol><symbol id="icon-edit-95b13" viewBox="0 0 24 24"><path d="M5 18h4.24a1 1 0 00.71-.29l6.92-6.93L19.71 8a1 1 0 000-1.42l-4.24-4.29a1 1 0 00-1.42 0l-2.82 2.83-6.94 6.93a1 1 0 00-.29.71V17a1 1 0 001 1zm9.76-13.59l2.83 2.83-1.42 1.42-2.83-2.83 1.42-1.42zM6 13.17l5.93-5.93 2.83 2.83L8.83 16H6v-2.83zM21 20H3a1 1 0 000 2h18a1 1 0 000-2z"/></symbol><symbol id="icon-external-link-alt-10cd2" viewBox="0 0 24 24"><path d="M18 10.82a1 1 0 00-1 1V19a1 1 0 01-1 1H5a1 1 0 01-1-1V8a1 1 0 011-1h7.18a1 1 0 100-2H5a3 3 0 00-3 3v11a3 3 0 003 3h11a3 3 0 003-3v-7.18a1 1 0 00-1-1zm3.92-8.2a1 1 0 00-.54-.54A1 1 0 0021 2h-6a1 1 0 100 2h3.59L8.29 14.29a1 1 0 00.325 1.639 1 1 0 001.095-.219L20 5.41V9a1 1 0 002 0V3a1.001 1.001 0 00-.08-.38z"/></symbol><symbol id="icon-eye-off-005c8" viewBox="0 0 24 24"><path d="M10.94 6.08c.35-.054.705-.08 1.06-.08 3.18 0 6.17 2.29 7.91 6a15.213 15.213 0 01-.9 1.64 1 1 0 00.05 1.152 1 1 0 001.65-.102c.466-.732.87-1.501 1.21-2.3a1 1 0 000-.79C19.9 6.91 16.1 4 12 4a7.77 7.77 0 00-1.4.12 1.015 1.015 0 00.34 2v-.04zM3.71 2.29a1.004 1.004 0 10-1.42 1.42l3.1 3.09a14.62 14.62 0 00-3.31 4.8 1 1 0 000 .8C4.1 17.09 7.9 20 12 20a9.26 9.26 0 005.05-1.54l3.24 3.25a1.001 1.001 0 001.639-.325 1 1 0 00-.22-1.095l-18-18zm6.36 9.19l2.45 2.45a2 2 0 01-2.45-2.45zM12 18c-3.18 0-6.17-2.29-7.9-6a12.09 12.09 0 012.7-3.79L8.57 10A4 4 0 0014 15.43L15.59 17A7.24 7.24 0 0112 18z"/></symbol><symbol id="icon-eye-on-7b907" viewBox="0 0 24 24"><path d="M21.92 11.6C19.9 6.91 16.1 4 12 4s-7.9 2.91-9.92 7.6a1 1 0 000 .8C4.1 17.09 7.9 20 12 20s7.9-2.91 9.92-7.6a1 1 0 000-.8zM12 18c-3.17 0-6.17-2.29-7.9-6C5.83 8.29 8.83 6 12 6s6.17 2.29 7.9 6c-1.73 3.71-4.73 6-7.9 6zm0-10a4 4 0 100 8 4 4 0 000-8zm0 6a2 2 0 110-4 2 2 0 010 4z"/></symbol><symbol id="icon-folder-outline-57201" viewBox="0 0 24 24"><path d="M19 5.5h-6.28l-.32-1a3 3 0 00-2.84-2H5a3 3 0 00-3 3v13a3 3 0 003 3h14a3 3 0 003-3v-10a3 3 0 00-3-3zm1 13a1 1 0 01-1 1H5a1 1 0 01-1-1v-13a1 1 0 011-1h4.56a1 1 0 01.95.68l.54 1.64a1 1 0 00.95.68h7a1 1 0 011 1v10z"/></symbol><symbol id="icon-grid-plus-outline-c712b" viewBox="0 0 24 24"><path d="M10 13H4a1 1 0 00-1 1v6a1 1 0 001 1h6a1 1 0 001-1v-6a1 1 0 00-1-1zm-1 6H5v-4h4v4zM20 3h-6a1 1 0 00-1 1v6a1 1 0 001 1h6a1 1 0 001-1V4a1 1 0 00-1-1zm-1 6h-4V5h4v4zm1 7h-2v-2a1 1 0 00-2 0v2h-2a1 1 0 000 2h2v2a1 1 0 002 0v-2h2a1 1 0 000-2zM10 3H4a1 1 0 00-1 1v6a1 1 0 001 1h6a1 1 0 001-1V4a1 1 0 00-1-1zM9 9H5V5h4v4z"/></symbol><symbol id="icon-kebab-horizontal-ab80d" viewBox="0 0 24 24"><path d="M7 12a2 2 0 10-4 0 2 2 0 004 0zm10 0a2 2 0 104 0 2 2 0 00-4 0zm-7 0a2 2 0 104 0 2 2 0 00-4 0z"/></symbol><symbol id="icon-log-out-8865b" viewBox="0 0 24 24"><path d="M22.646 12.354a.5.5 0 000-.708l-2.792-2.792a.5.5 0 00-.854.353V11h-8a1 1 0 100 2h8v1.793a.5.5 0 00.854.353l2.792-2.792zM1 18V6a2 2 0 012-2h12a2 2 0 012 2v2a1 1 0 11-2 0V6H3v12h12v-2a1 1 0 112 0v2a2 2 0 01-2 2H3a2 2 0 01-2-2z"/></symbol><symbol id="icon-minus-73802" viewBox="0 0 24 24"><path d="M17 12a1 1 0 01-1 1H8a1 1 0 110-2h8a1 1 0 011 1z"/></symbol><symbol id="icon-no-image-c5047" viewBox="0 0 24 24"><path d="M19 10a1 1 0 00-1 1v3.39l-1.48-1.48a2.771 2.771 0 00-3.93 0l-.7.7-2.48-2.49a2.79 2.79 0 00-3.93 0L4 12.6V7a1 1 0 011-1h8a1 1 0 100-2H5a3 3 0 00-3 3v12a3 3 0 003 3h12a3 3 0 003-3v-8a1 1 0 00-1-1zM5 20a1 1 0 01-1-1v-3.57l2.9-2.9a.79.79 0 011.09 0l3.17 3.17 4.29 4.3H5zm13-1a.89.89 0 01-.18.53L13.31 15l.7-.7a.78.78 0 011.1 0L18 17.22V19zm2.41-14l1.3-1.29a1 1 0 10-1.42-1.41L19 3.59 17.71 2.3a1 1 0 10-1.42 1.41L17.59 5l-1.3 1.3a1 1 0 101.42 1.41L19 6.42l1.29 1.29a1 1 0 101.42-1.41L20.41 5z"/></symbol><symbol id="icon-notes-3cad7" viewBox="0 0 24 24"><path d="M16 14H8a1 1 0 000 2h8a1 1 0 000-2zm0-4h-6a1 1 0 000 2h6a1 1 0 000-2zm4-6h-3V3a1 1 0 00-2 0v1h-2V3a1 1 0 00-2 0v1H9V3a1 1 0 00-2 0v1H4a1 1 0 00-1 1v14a3 3 0 003 3h12a3 3 0 003-3V5a1 1 0 00-1-1zm-1 15a1 1 0 01-1 1H6a1 1 0 01-1-1V6h2v1a1 1 0 002 0V6h2v1a1 1 0 002 0V6h2v1a1 1 0 002 0V6h2v13z"/></symbol><symbol id="icon-plus-big-4a937" viewBox="0 0 24 24"><path d="M20 11h-7V4a1 1 0 00-2 0v7H4a1 1 0 000 2h7v7a1 1 0 002 0v-7h7a1 1 0 000-2z"/></symbol><symbol id="icon-save-indicator-7c754" viewBox="0 0 24 24"><path d="M14.29 14.19L11 17.48l-1.29-1.29a1 1 0 10-1.42 1.41l2 2a.999.999 0 001.42 0l4-4a1 1 0 10-1.42-1.41zm4.13-5.87a7 7 0 00-13.36 1.9 4 4 0 00-.38 7.65.999.999 0 001.326-1.393A1 1 0 005.32 16 2 2 0 014 14.1a2 2 0 012-2 1 1 0 001-1 5 5 0 019.73-1.6 1 1 0 00.78.66 3 3 0 01.24 5.84 1.008 1.008 0 00.25 2h.25a5 5 0 00.17-9.62v-.06z"/></symbol><symbol id="icon-save-outline-fdaec" viewBox="0 0 24 24"><path d="M20.71 9.29l-6-6a1 1 0 00-.32-.21A1.09 1.09 0 0014 3H6a3 3 0 00-3 3v12a3 3 0 003 3h12a3 3 0 003-3v-8a1 1 0 00-.29-.71zM9 5h4v2H9V5zm6 14H9v-3a1 1 0 011-1h4a1 1 0 011 1v3zm4-1a1 1 0 01-1 1h-1v-3a3 3 0 00-3-3h-4a3 3 0 00-3 3v3H6a1 1 0 01-1-1V6a1 1 0 011-1h1v3a1 1 0 001 1h6a1 1 0 001-1V6.41l4 4V18z"/></symbol><symbol id="icon-search-big-aaf6f" viewBox="0 0 24 24"><path fill-rule="evenodd" clip-rule="evenodd" d="M15.9 17.32A7.998 7.998 0 013 11c0-4.418 3.58-8 7.996-8a7.998 7.998 0 017.996 8 7.967 7.967 0 01-1.68 4.906l3.4 3.384c.39.39.39 1.03 0 1.42-.391.39-1.03.39-1.42 0l-3.393-3.39zM16.992 11c0 3.314-2.685 6-5.997 6a5.999 5.999 0 01-5.997-6c0-3.314 2.685-6 5.997-6a5.998 5.998 0 015.997 6z"/></symbol><symbol id="icon-settings-c8087" viewBox="0 0 24 24"><path d="M21.32 9.55l-1.89-.63.89-1.78A1 1 0 0020.13 6L18 3.87a1 1 0 00-1.15-.19l-1.78.89-.63-1.89A1 1 0 0013.5 2h-3a1 1 0 00-.95.68l-.63 1.89-1.78-.89A1 1 0 006 3.87L3.87 6a1 1 0 00-.19 1.15l.89 1.78-1.89.63a1 1 0 00-.68.94v3a1 1 0 00.68.95l1.89.63-.89 1.78A1 1 0 003.87 18L6 20.13a1 1 0 001.15.19l1.78-.89.63 1.89a1 1 0 00.95.68h3a1 1 0 00.95-.68l.63-1.89 1.78.89a1 1 0 001.13-.19L20.13 18a1 1 0 00.19-1.15l-.89-1.78 1.89-.63a1 1 0 00.68-.94v-3a1 1 0 00-.68-.95zM20 12.78l-1.2.4A2 2 0 0017.64 16l.57 1.14-1.1 1.1-1.11-.6a2 2 0 00-2.79 1.16l-.4 1.2h-1.59l-.4-1.2A2 2 0 008 17.64l-1.14.57-1.1-1.1.6-1.11a2 2 0 00-1.16-2.82l-1.2-.4v-1.56l1.2-.4A2 2 0 006.36 8l-.57-1.11 1.1-1.1L8 6.36a2 2 0 002.82-1.16l.4-1.2h1.56l.4 1.2A2 2 0 0016 6.36l1.14-.57 1.1 1.1-.6 1.11a2 2 0 001.16 2.79l1.2.4v1.59zM12 8a4 4 0 100 8 4 4 0 000-8zm0 6a2 2 0 110-4 2 2 0 010 4z"/></symbol><symbol id="icon-sort-desc-9ebe3" viewBox="0 0 16 16"><path d="M2.5 12a1 1 0 001 1h2a1 1 0 100-2h-2a1 1 0 00-1 1zm0-4a1 1 0 001 1h5a1 1 0 100-2h-5a1 1 0 00-1 1zm1-3a1 1 0 110-2h9a1 1 0 110 2h-9z"/></symbol><symbol id="icon-user-9c4dc" viewBox="0 0 24 24"><path d="M12 2C6.579 2 2 6.579 2 12c0 3.189 1.592 6.078 4 7.924V20h.102C7.77 21.245 9.813 22 12 22s4.23-.755 5.898-2H18v-.076c2.408-1.846 4-4.734 4-7.924 0-5.421-4.579-10-10-10zM8.074 18.927A3.002 3.002 0 0111 16.573h2a3.003 3.003 0 012.926 2.354A7.82 7.82 0 0112 20a7.82 7.82 0 01-3.926-1.073zm9.536-1.286A5.007 5.007 0 0013 14.573h-2a5.007 5.007 0 00-4.61 3.068C4.923 16.182 4 14.176 4 12c0-4.337 3.663-8 8-8s8 3.663 8 8c0 2.176-.923 4.182-2.39 5.641z"/><path d="M12 6c-2.28 0-4 1.72-4 4 0 2.28 1.72 4 4 4 2.28 0 4-1.72 4-4 0-2.28-1.72-4-4-4zm0 6c-1.178 0-2-.822-2-2s.822-2 2-2 2 .822 2 2-.822 2-2 2z"/></symbol></defs><view id="view-icon-16-info-circle-b49fb" viewBox="0 0 50 50"></view><view id="view-icon-16-no-image-ce43a" viewBox="50 0 50 50"></view><view id="view-icon-16-small-circle-8fce5" viewBox="100 0 50 50"></view><view id="view-icon-16-triangle-down-alt-ff6ec" viewBox="150 0 50 50"></view><view id="view-icon-16-triangle-right-6dcac" viewBox="200 0 50 50"></view><view id="view-icon-account-multiple-outline-72da9" viewBox="250 0 50 50"></view><view id="view-icon-alert-3f07f" viewBox="300 0 50 50"></view><view id="view-icon-arrow-down-38635" viewBox="350 0 50 50"></view><view id="view-icon-arrow-left-long-eb12a" viewBox="400 0 50 50"></view><view id="view-icon-arrow-left-02031" viewBox="450 0 50 50"></view><view id="view-icon-arrow-right-long-da661" viewBox="500 0 50 50"></view><view id="view-icon-arrow-right-c7bb5" viewBox="550 0 50 50"></view><view id="view-icon-arrow-up-d84cc" viewBox="600 0 50 50"></view><view id="view-icon-asterisk-2593d" viewBox="650 0 50 50"></view><view id="view-icon-attachment-big-de632" viewBox="700 0 50 50"></view><view id="view-icon-badge-3760e" viewBox="750 0 50 50"></view><view id="view-icon-bolt-alt-3201c" viewBox="800 0 50 50"></view><view id="view-icon-book-open-696a4" viewBox="850 0 50 50"></view><view id="view-icon-bullseye-arrow-65a26" viewBox="900 0 50 50"></view><view id="view-icon-calendar-882bb" viewBox="950 0 50 50"></view><view id="view-icon-camera-plus-590de" viewBox="0 50 50 50"></view><view id="view-icon-check-54975" viewBox="50 50 50 50"></view><view id="view-icon-content-multiple-bf175" viewBox="100 50 50 50"></view><view id="view-icon-cross-big-ed53c" viewBox="150 50 50 50"></view><view id="view-icon-cross-small-c6147" viewBox="200 50 50 50"></view><view id="view-icon-dashboard-1f59f" viewBox="250 50 50 50"></view><view id="view-icon-delete-59b7a" viewBox="300 50 50 50"></view><view id="view-icon-density-high-46fe1" viewBox="350 50 50 50"></view><view id="view-icon-dot-b9116" viewBox="400 50 50 50"></view><view id="view-icon-edit-alt-fa5fe" viewBox="450 50 50 50"></view><view id="view-icon-edit-95b13" viewBox="500 50 50 50"></view><view id="view-icon-external-link-alt-10cd2" viewBox="550 50 50 50"></view><view id="view-icon-eye-off-005c8" viewBox="600 50 50 50"></view><view id="view-icon-eye-on-7b907" viewBox="650 50 50 50"></view><view id="view-icon-folder-outline-57201" viewBox="700 50 50 50"></view><view id="view-icon-grid-plus-outline-c712b" viewBox="750 50 50 50"></view><view id="view-icon-kebab-horizontal-ab80d" viewBox="800 50 50 50"></view><view id="view-icon-log-out-8865b" viewBox="850 50 50 50"></view><view id="view-icon-minus-73802" viewBox="900 50 50 50"></view><view id="view-icon-no-image-c5047" viewBox="950 50 50 50"></view><view id="view-icon-notes-3cad7" viewBox="0 100 50 50"></view><view id="view-icon-plus-big-4a937" viewBox="50 100 50 50"></view><view id="view-icon-save-indicator-7c754" viewBox="100 100 50 50"></view><view id="view-icon-save-outline-fdaec" viewBox="150 100 50 50"></view><view id="view-icon-search-big-aaf6f" viewBox="200 100 50 50"></view><view id="view-icon-settings-c8087" viewBox="250 100 50 50"></view><view id="view-icon-sort-desc-9ebe3" viewBox="300 100 50 50"></view><view id="view-icon-user-9c4dc" viewBox="350 100 50 50"></view><use id="icon-16-info-circle-b49fb" xlink:href="#icon-16-info-circle-b49fb" width="50" height="50" x="0" y="0"></use><use id="icon-16-no-image-ce43a" xlink:href="#icon-16-no-image-ce43a" width="50" height="50" x="50" y="0"></use><use id="icon-16-small-circle-8fce5" xlink:href="#icon-16-small-circle-8fce5" width="50" height="50" x="100" y="0"></use><use id="icon-16-triangle-down-alt-ff6ec" xlink:href="#icon-16-triangle-down-alt-ff6ec" width="50" height="50" x="150" y="0"></use><use id="icon-16-triangle-right-6dcac" xlink:href="#icon-16-triangle-right-6dcac" width="50" height="50" x="200" y="0"></use><use id="icon-account-multiple-outline-72da9" xlink:href="#icon-account-multiple-outline-72da9" width="50" height="50" x="250" y="0"></use><use id="icon-alert-3f07f" xlink:href="#icon-alert-3f07f" width="50" height="50" x="300" y="0"></use><use id="icon-arrow-down-38635" xlink:href="#icon-arrow-down-38635" width="50" height="50" x="350" y="0"></use><use id="icon-arrow-left-long-eb12a" xlink:href="#icon-arrow-left-long-eb12a" width="50" height="50" x="400" y="0"></use><use id="icon-arrow-left-02031" xlink:href="#icon-arrow-left-02031" width="50" height="50" x="450" y="0"></use><use id="icon-arrow-right-long-da661" xlink:href="#icon-arrow-right-long-da661" width="50" height="50" x="500" y="0"></use><use id="icon-arrow-right-c7bb5" xlink:href="#icon-arrow-right-c7bb5" width="50" height="50" x="550" y="0"></use><use id="icon-arrow-up-d84cc" xlink:href="#icon-arrow-up-d84cc" width="50" height="50" x="600" y="0"></use><use id="icon-asterisk-2593d" xlink:href="#icon-asterisk-2593d" width="50" height="50" x="650" y="0"></use><use id="icon-attachment-big-de632" xlink:href="#icon-attachment-big-de632" width="50" height="50" x="700" y="0"></use><use id="icon-badge-3760e" xlink:href="#icon-badge-3760e" width="50" height="50" x="750" y="0"></use><use id="icon-bolt-alt-3201c" xlink:href="#icon-bolt-alt-3201c" width="50" height="50" x="800" y="0"></use><use id="icon-book-open-696a4" xlink:href="#icon-book-open-696a4" width="50" height="50" x="850" y="0"></use><use id="icon-bullseye-arrow-65a26" xlink:href="#icon-bullseye-arrow-65a26" width="50" height="50" x="900" y="0"></use><use id="icon-calendar-882bb" xlink:href="#icon-calendar-882bb" width="50" height="50" x="950" y="0"></use><use id="icon-camera-plus-590de" xlink:href="#icon-camera-plus-590de" width="50" height="50" x="0" y="50"></use><use id="icon-check-54975" xlink:href="#icon-check-54975" width="50" height="50" x="50" y="50"></use><use id="icon-content-multiple-bf175" xlink:href="#icon-content-multiple-bf175" width="50" height="50" x="100" y="50"></use><use id="icon-cross-big-ed53c" xlink:href="#icon-cross-big-ed53c" width="50" height="50" x="150" y="50"></use><use id="icon-cross-small-c6147" xlink:href="#icon-cross-small-c6147" width="50" height="50" x="200" y="50"></use><use id="icon-dashboard-1f59f" xlink:href="#icon-dashboard-1f59f" width="50" height="50" x="250" y="50"></use><use id="icon-delete-59b7a" xlink:href="#icon-delete-59b7a" width="50" height="50" x="300" y="50"></use><use id="icon-density-high-46fe1" xlink:href="#icon-density-high-46fe1" width="50" height="50" x="350" y="50"></use><use id="icon-dot-b9116" xlink:href="#icon-dot-b9116" width="50" height="50" x="400" y="50"></use><use id="icon-edit-alt-fa5fe" xlink:href="#icon-edit-alt-fa5fe" width="50" height="50" x="450" y="50"></use><use id="icon-edit-95b13" xlink:href="#icon-edit-95b13" width="50" height="50" x="500" y="50"></use><use id="icon-external-link-alt-10cd2" xlink:href="#icon-external-link-alt-10cd2" width="50" height="50" x="550" y="50"></use><use id="icon-eye-off-005c8" xlink:href="#icon-eye-off-005c8" width="50" height="50" x="600" y="50"></use><use id="icon-eye-on-7b907" xlink:href="#icon-eye-on-7b907" width="50" height="50" x="650" y="50"></use><use id="icon-folder-outline-57201" xlink:href="#icon-folder-outline-57201" width="50" height="50" x="700" y="50"></use><use id="icon-grid-plus-outline-c712b" xlink:href="#icon-grid-plus-outline-c712b" width="50" height="50" x="750" y="50"></use><use id="icon-kebab-horizontal-ab80d" xlink:href="#icon-kebab-horizontal-ab80d" width="50" height="50" x="800" y="50"></use><use id="icon-log-out-8865b" xlink:href="#icon-log-out-8865b" width="50" height="50" x="850" y="50"></use><use id="icon-minus-73802" xlink:href="#icon-minus-73802" width="50" height="50" x="900" y="50"></use><use id="icon-no-image-c5047" xlink:href="#icon-no-image-c5047" width="50" height="50" x="950" y="50"></use><use id="icon-notes-3cad7" xlink:href="#icon-notes-3cad7" width="50" height="50" x="0" y="100"></use><use id="icon-plus-big-4a937" xlink:href="#icon-plus-big-4a937" width="50" height="50" x="50" y="100"></use><use id="icon-save-indicator-7c754" xlink:href="#icon-save-indicator-7c754" width="50" height="50" x="100" y="100"></use><use id="icon-save-outline-fdaec" xlink:href="#icon-save-outline-fdaec" width="50" height="50" x="150" y="100"></use><use id="icon-search-big-aaf6f" xlink:href="#icon-search-big-aaf6f" width="50" height="50" x="200" y="100"></use><use id="icon-settings-c8087" xlink:href="#icon-settings-c8087" width="50" height="50" x="250" y="100"></use><use id="icon-sort-desc-9ebe3" xlink:href="#icon-sort-desc-9ebe3" width="50" height="50" x="300" y="100"></use><use id="icon-user-9c4dc" xlink:href="#icon-user-9c4dc" width="50" height="50" x="350" y="100"></use></svg>