<svg xmlns="http://www.w3.org/2000/svg" xmlns:xlink="http://www.w3.org/1999/xlink"><defs><symbol id="icon-alert-alt-565d2" viewBox="0 0 16 16"><path d="M8.826 10.826a.826.826 0 11-1.652 0 .826.826 0 011.652 0zM8.75 5.054a.75.75 0 00-1.5 0V8.3a.75.75 0 001.5 0V5.054z"/><path fill-rule="evenodd" clip-rule="evenodd" d="M8 15A7 7 0 108 1a7 7 0 000 14zm0-1.5a5.5 5.5 0 100-11 5.5 5.5 0 000 11z"/></symbol><symbol id="icon-deadline-07ddf" viewBox="0 0 16 16"><path d="M5.273 3.417a5.333 5.333 0 013.006-.743.667.667 0 10.07-1.332 6.667 6.667 0 106.309 7.007.667.667 0 00-1.332-.07 5.334 5.334 0 11-8.053-4.862z"/><path d="M13.607 4l.866-.86a.667.667 0 10-.946-.94l-.86.86-.86-.86a.668.668 0 10-.947.94l.867.86-.867.867a.667.667 0 10.947.94l.86-.86.86.86a.666.666 0 10.946-.94L13.607 4zM8 4.667c.368 0 .667.298.667.666v2.922l1.631.815a.667.667 0 11-.596 1.193L7.333 9.079V5.333c0-.368.299-.666.667-.666z"/></symbol><symbol id="icon-delete-1710b" viewBox="0 0 16 16"><path d="M6.556 12.2a.734.734 0 00.51-.205.69.69 0 00.212-.495V7.3a.69.69 0 00-.212-.495.734.734 0 00-.51-.205.734.734 0 00-.511.205.69.69 0 00-.212.495v4.2a.69.69 0 00.212.495.734.734 0 00.51.205zm7.222-8.4h-2.89v-.7c0-.557-.227-1.091-.634-1.485A2.202 2.202 0 008.722 1H7.278a2.2 2.2 0 00-1.532.615A2.068 2.068 0 005.11 3.1v.7H2.222a.734.734 0 00-.51.205.69.69 0 00-.212.495.69.69 0 00.212.495.734.734 0 00.51.205h.722v7.7c0 .557.229 1.091.635 1.485A2.2 2.2 0 005.111 15h5.778a2.2 2.2 0 001.532-.615 2.07 2.07 0 00.635-1.485V5.2h.722a.734.734 0 00.51-.205.69.69 0 00.212-.495.69.69 0 00-.211-.495.734.734 0 00-.511-.205zm-7.222-.7a.69.69 0 01.211-.495.734.734 0 01.51-.205h1.445c.192 0 .375.074.51.205a.69.69 0 01.212.495v.7H6.556v-.7zm5.055 9.8a.69.69 0 01-.211.495.734.734 0 01-.511.205H5.11a.734.734 0 01-.51-.205.69.69 0 01-.212-.495V5.2h7.222v7.7zm-2.167-.7a.734.734 0 00.511-.205.69.69 0 00.212-.495V7.3a.69.69 0 00-.212-.495.734.734 0 00-.51-.205.734.734 0 00-.511.205.69.69 0 00-.212.495v4.2a.69.69 0 00.212.495.734.734 0 00.51.205z"/></symbol><symbol id="icon-edit-fab57" viewBox="0 0 16 16"><path d="M15 4.668a.7.7 0 00-.203-.497l-2.968-2.968A.7.7 0 0011.332 1a.7.7 0 00-.497.203l-1.981 1.98-7.651 7.651a.7.7 0 00-.203.497V14.3a.7.7 0 00.7.7h2.968a.7.7 0 00.532-.203l7.609-7.65L14.797 5.2a.834.834 0 00.154-.231.705.705 0 000-.168.486.486 0 000-.098L15 4.668zM4.381 13.599H2.4v-1.98l6.951-6.951 1.981 1.98L4.381 13.6zm7.938-7.937L10.338 3.68l.994-.987 1.974 1.974-.987.994z"/></symbol><symbol id="icon-flag-565d2" viewBox="0 0 16 16"><path d="M8.826 10.826a.826.826 0 11-1.652 0 .826.826 0 011.652 0zM8.75 5.054a.75.75 0 00-1.5 0V8.3a.75.75 0 001.5 0V5.054z"/><path fill-rule="evenodd" clip-rule="evenodd" d="M8 15A7 7 0 108 1a7 7 0 000 14zm0-1.5a5.5 5.5 0 100-11 5.5 5.5 0 000 11z"/></symbol><symbol id="icon-info-circle-b49fb" viewBox="0 0 16 16"><path d="M8 6.666A.833.833 0 118 5a.833.833 0 010 1.666zm0 1a.667.667 0 01.667.667v2a.667.667 0 11-1.334 0v-2A.667.667 0 018 7.666zm0-6.333A6.667 6.667 0 1014.667 8 6.674 6.674 0 008 1.333zm0 12A5.334 5.334 0 1113.333 8 5.34 5.34 0 018 13.333z"/></symbol><symbol id="icon-link-5599e" viewBox="0 0 16 16"><path d="M6.932 9.068c.31.295.31.78 0 1.075a.763.763 0 01-1.075 0 3.789 3.789 0 010-5.354l2.68-2.681a3.789 3.789 0 015.355 0 3.789 3.789 0 010 5.354l-.086.087a.757.757 0 01-1.076-1.065l.087-.09a2.26 2.26 0 000-3.21 2.258 2.258 0 00-3.211 0L6.932 5.856a2.258 2.258 0 000 3.21zm2.136-3.211a.763.763 0 011.075 0 3.789 3.789 0 010 5.354l-2.68 2.681a3.789 3.789 0 01-5.355 0 3.789 3.789 0 010-5.354l.084-.085a.758.758 0 111.072 1.072l-.08.08a2.259 2.259 0 000 3.212 2.26 2.26 0 003.21 0l2.674-2.674a2.258 2.258 0 000-3.21.737.737 0 010-1.076z"/></symbol><symbol id="icon-no-image-ce43a" viewBox="0 0 16 16"><path d="M12.667 6.667a.667.667 0 00-.667.666v2.26l-.987-.986a1.848 1.848 0 00-2.62 0l-.466.466-1.654-1.66a1.86 1.86 0 00-2.62 0l-.986.987V4.667A.667.667 0 013.333 4h5.334a.667.667 0 100-1.333H3.333a2 2 0 00-2 2v8a2 2 0 002 2h8a2 2 0 002-2V7.333a.667.667 0 00-.666-.666zm-9.334 6.666a.667.667 0 01-.666-.666v-2.38L4.6 8.353a.527.527 0 01.727 0l2.113 2.114 2.86 2.866H3.333zM12 12.667a.593.593 0 01-.12.353L8.873 10l.467-.467a.52.52 0 01.733 0L12 11.48v1.187zm1.607-9.334l.866-.86a.667.667 0 10-.946-.94l-.86.86-.86-.86a.667.667 0 10-.947.94l.867.86-.867.867a.667.667 0 10.947.94l.86-.86.86.86a.666.666 0 10.946-.94l-.866-.867z"/></symbol><symbol id="icon-ok-fd84e" viewBox="0 0 16 16"><path d="M13.265 3.99a.997.997 0 00-.707-.29 1.012 1.012 0 00-.707.29L5.857 9.887 4.14 8.243a1.02 1.02 0 00-.725-.28 1.034 1.034 0 00-.715.305.998.998 0 00-.286.712.985.985 0 00.311.701l2.425 2.33a1 1 0 00.707.289 1.011 1.011 0 00.707-.29l6.701-6.582a.98.98 0 00.321-.72.963.963 0 00-.32-.718z"/></symbol><symbol id="icon-short-line-01150" viewBox="0 0 16 16"><path fill-rule="evenodd" clip-rule="evenodd" d="M12 8a1 1 0 01-1 1H5a1 1 0 010-2h6a1 1 0 011 1z"/></symbol><symbol id="icon-small-circle-8fce5" viewBox="0 0 16 16"><circle cx="8" cy="8" r="3"/></symbol><symbol id="icon-sort-asc-44b2a" viewBox="0 0 16 16"><path d="M2.5 4a1 1 0 011-1h2a1 1 0 010 2h-2a1 1 0 01-1-1zm0 4a1 1 0 011-1h5a1 1 0 110 2h-5a1 1 0 01-1-1zm1 3a1 1 0 100 2h9a1 1 0 100-2h-9z"/></symbol><symbol id="icon-sort-desc-9ebe3" viewBox="0 0 16 16"><path d="M2.5 12a1 1 0 001 1h2a1 1 0 100-2h-2a1 1 0 00-1 1zm0-4a1 1 0 001 1h5a1 1 0 100-2h-5a1 1 0 00-1 1zm1-3a1 1 0 110-2h9a1 1 0 110 2h-9z"/></symbol><symbol id="icon-triangle-down-alt-ff6ec" viewBox="0 0 16 16"><path d="M10.752 8.36a.6.6 0 01.468.975l-2.752 3.44a.6.6 0 01-.937 0L4.78 9.335a.6.6 0 01.468-.975h2V3.75a.75.75 0 011.5 0v4.61h2.004z"/></symbol><symbol id="icon-triangle-down-d858f" viewBox="0 0 16 16"><path d="M10.752 6a.6.6 0 01.468.975l-2.752 3.44a.6.6 0 01-.937 0L4.78 6.974A.6.6 0 015.248 6h5.504z"/></symbol><symbol id="icon-triangle-left-alt-13d4e" viewBox="0 0 16 16"><path d="M7.64 10.752a.6.6 0 01-.975.468l-3.44-2.75a.6.6 0 010-.938l3.44-2.751a.6.6 0 01.975.468v2h4.61a.75.75 0 010 1.5H7.64v2.004z"/></symbol><symbol id="icon-triangle-left-07bd3" viewBox="0 0 16 16"><path d="M10.14 5.748a.6.6 0 00-.975-.468l-3.44 2.75a.6.6 0 000 .938l3.44 2.751a.6.6 0 00.975-.468V5.748z"/></symbol><symbol id="icon-triangle-right-alt-4cccf" viewBox="0 0 16 16"><path d="M8.36 10.752a.6.6 0 00.975.468l3.44-2.751a.6.6 0 000-.938L9.335 4.78a.6.6 0 00-.975.468v2H3.75a.75.75 0 000 1.5h4.61v2.004z"/></symbol><symbol id="icon-triangle-right-6dcac" viewBox="0 0 16 16"><path d="M5.5 5.748a.6.6 0 01.975-.468l3.44 2.751a.6.6 0 010 .938l-3.44 2.751a.6.6 0 01-.975-.468V5.748z"/></symbol><symbol id="icon-triangle-up-alt-55152" viewBox="0 0 16 16"><path d="M10.752 7.64a.6.6 0 00.468-.975l-2.752-3.44a.6.6 0 00-.937 0L4.78 6.665a.6.6 0 00.468.975h2v4.61a.75.75 0 001.5 0V7.64h2.004z"/></symbol><symbol id="icon-triangle-up-down-b0cb8" viewBox="0 0 16 16"><path d="M11.22 6.025a.6.6 0 01-.468.975H5.248a.6.6 0 01-.468-.975l2.751-3.44a.6.6 0 01.937 0l2.752 3.44zm0 3.95A.6.6 0 0010.752 9H5.248a.6.6 0 00-.468.975l2.751 3.44c.24.3.697.3.937 0l2.752-3.44z"/></symbol><symbol id="icon-triangle-up-0496f" viewBox="0 0 16 16"><path d="M10.752 10.64a.6.6 0 00.468-.975l-2.752-3.44a.6.6 0 00-.937 0L4.78 9.665a.6.6 0 00.468.975h5.504z"/></symbol><symbol id="icon-account-multiple-outline-72da9" viewBox="0 0 24 24"><path d="M12.3 12.22A4.92 4.92 0 0014 8.5a5 5 0 00-10 0 4.92 4.92 0 001.7 3.72A8 8 0 001 19.5a1 1 0 102 0 6 6 0 1112 0 1 1 0 002 0 8 8 0 00-4.7-7.28zM9 11.5a3 3 0 110-6 3 3 0 010 6zm9.74.32A5 5 0 0015 3.5a1 1 0 100 2 3 3 0 013 3 3 3 0 01-1.5 2.59 1 1 0 00-.05 1.7l.39.26.13.07a7 7 0 014 6.38 1 1 0 002 0 9 9 0 00-4.23-7.68z"/></symbol><symbol id="icon-alert-alt-14309" viewBox="0 0 24 24"><path d="M12.707 12.707A1 1 0 0111 12V8a1 1 0 012 0v4a1 1 0 01-.293.707zm-.013 4.083a1.25 1.25 0 11-1.388-2.08 1.25 1.25 0 011.389 2.08z"/><path fill-rule="evenodd" clip-rule="evenodd" d="M6.444 3.685a10 10 0 1111.112 16.63A10 10 0 016.444 3.685zm1.111 14.967a8 8 0 108.89-13.305 8 8 0 00-8.89 13.305z"/></symbol><symbol id="icon-alert-3f07f" viewBox="0 0 24 24"><path d="M12 14a1 1 0 001-1V7a1 1 0 00-2 0v6a1 1 0 001 1zm0 4a1.25 1.25 0 100-2.5 1.25 1.25 0 000 2.5z"/></symbol><symbol id="icon-arrow-down-38635" viewBox="0 0 24 24"><path d="M16.96 9.17a.994.994 0 00-1.405 0l-3.576 3.54-3.526-3.54a.994.994 0 00-1.699.71 1.003 1.003 0 00.295.71l4.223 4.24a.992.992 0 001.414 0l4.273-4.24a.997.997 0 00.218-1.095.999.999 0 00-.218-.325z"/></symbol><symbol id="icon-arrow-left-02031" viewBox="0 0 24 24"><path d="M14.837 16.958a.994.994 0 000-1.405l-3.54-3.576 3.54-3.525a.994.994 0 00-.71-1.7 1.003 1.003 0 00-.71.295l-4.24 4.223a.996.996 0 000 1.415l4.24 4.273a.997.997 0 001.094.218.999.999 0 00.326-.218z"/></symbol><symbol id="icon-arrow-right-c7bb5" viewBox="0 0 24 24"><path d="M9.172 16.958a.994.994 0 010-1.405l3.54-3.576-3.54-3.525a.994.994 0 01.71-1.7 1.003 1.003 0 01.71.295l4.24 4.223a.995.995 0 010 1.415l-4.24 4.273a.999.999 0 01-1.095.218.998.998 0 01-.325-.218z"/></symbol><symbol id="icon-arrow-up-d84cc" viewBox="0 0 24 24"><path d="M16.96 14.835a.994.994 0 01-1.405 0l-3.576-3.54-3.526 3.54a.994.994 0 01-1.622-.326 1.003 1.003 0 01.218-1.094l4.223-4.24a.994.994 0 011.414 0l4.273 4.24a.999.999 0 01.218 1.095.997.997 0 01-.218.325z"/></symbol><symbol id="icon-arrow_long-down-74bee" viewBox="0 0 24 24"><path d="M11 16.086l-2.88-2.88a1 1 0 00-1.415 1.415l4.585 4.585a1.005 1.005 0 001.42 0l4.585-4.585a1 1 0 00-1.415-1.415L13 16.086V5.5a1 1 0 00-2 0v10.586z"/></symbol><symbol id="icon-arrow_long-left-eb12a" viewBox="0 0 24 24"><path d="M7.914 11l2.88-2.88a1 1 0 00-1.415-1.415l-4.585 4.584a1.005 1.005 0 000 1.422l4.585 4.584a1 1 0 101.415-1.415L7.914 13H18.5a1 1 0 100-2H7.914z"/></symbol><symbol id="icon-arrow_long-right-da661" viewBox="0 0 24 24"><path d="M16.086 13l-2.88 2.88a1 1 0 001.415 1.415l4.585-4.584a1.005 1.005 0 000-1.422L14.62 6.705a1 1 0 00-1.415 1.415l2.88 2.88H5.5a1 1 0 000 2h10.586z"/></symbol><symbol id="icon-arrow_long-up-9fc4d" viewBox="0 0 24 24"><path d="M11 7.914l-2.88 2.88a1 1 0 01-1.415-1.415l4.585-4.585a1.005 1.005 0 011.42 0l4.585 4.585a1 1 0 01-1.415 1.415L13 7.914V18.5a1 1 0 01-2 0V7.914z"/></symbol><symbol id="icon-asterisk-2593d" viewBox="0 0 16 16"><path d="M14.562 10.634L10 8l4.562-2.634a1 1 0 00-1-1.732L9 6.268V1a1 1 0 10-2 0v5.268L2.438 3.634a1 1 0 00-1 1.732L6 8l-4.562 2.634a1 1 0 001 1.732L7 9.732V15a1 1 0 102 0V9.732l4.562 2.634a1 1 0 001-1.732z"/></symbol><symbol id="icon-attachment-big-de632" viewBox="0 0 24 24"><path d="M18.807 12.585l-6.296 6.302a4.331 4.331 0 01-7.204-3.107A4.325 4.325 0 016.4 12.778l8.15-8.144a2.619 2.619 0 013.606 0 2.564 2.564 0 010 3.604l-7.03 7.014a.778.778 0 01-1.14-1.059l5.226-5.212a1.022 1.022 0 10-1.447-1.445l-5.226 5.232a2.788 2.788 0 000 3.96 2.874 2.874 0 003.963 0l7.019-7.024a4.58 4.58 0 00-3.273-7.703 4.586 4.586 0 00-3.206 1.228l-8.15 8.145A6.36 6.36 0 009.52 21.999a6.37 6.37 0 004.428-1.697l6.306-6.292a1.022 1.022 0 10-1.446-1.445v.02z"/></symbol><symbol id="icon-badge-3760e" viewBox="0 0 8 8"><circle cx="4" cy="4" r="3"/></symbol><symbol id="icon-bell-off-outlined-3ce08" viewBox="0 0 24 24"><path d="M11.066 6.118c.302-.082.615-.122.929-.12a3.998 3.998 0 013.998 3.998v1.34a1 1 0 101.999 0v-1.34a5.997 5.997 0 00-4.998-5.907v-1.09a1 1 0 00-1.998 0v1.1l-.45.08a1.004 1.004 0 00.52 1.939zM21.7 20.281L3.71 2.29a1.003 1.003 0 10-1.42 1.42l4.118 4.107a5.997 5.997 0 00-.41 2.179v3.178a2.999 2.999 0 00-2 2.82v1.998a1 1 0 001 1h3.139a3.998 3.998 0 007.716 0h1.73L20.28 21.7a1 1 0 001.42 0 1.001 1.001 0 000-1.419zM7.997 9.996a3.308 3.308 0 010-.55l3.588 3.549H7.997V9.996zm3.998 9.995a2 2 0 01-1.72-1h3.44a2 2 0 01-1.72 1zm-5.997-2.998v-1a1 1 0 011-1h6.586l2 2H5.997z"/></symbol><symbol id="icon-bell-outlined-f10b4" viewBox="0 0 24 24"><path d="M18 13.207V10.02a6.023 6.023 0 00-1.42-3.88A5.996 5.996 0 0013 4.096V3.002A1.004 1.004 0 0012 2a.999.999 0 00-1 1.002v1.093a5.997 5.997 0 00-3.58 2.046A6.024 6.024 0 006 10.02v3.188a3 3 0 00-2 2.826v2.005a1.004 1.004 0 001 1.003h3.14c.23.85.733 1.6 1.43 2.134a3.994 3.994 0 006.29-2.134H19a.999.999 0 001-1.003v-2.005a3.012 3.012 0 00-2-2.826zM8 10.02c0-1.064.421-2.084 1.172-2.836a3.995 3.995 0 015.656 0A4.015 4.015 0 0116 10.02v3.007H8V10.02zm4 10.024a1.996 1.996 0 01-1.72-1.002h3.44A2.003 2.003 0 0112 20.044zm6-3.007H6v-1.003a1.004 1.004 0 011-1.002h10a.999.999 0 011 1.002v1.003z"/></symbol><symbol id="icon-bell-subscribe-44e8f" viewBox="0 0 24 24"><path d="M18 13.207V10.02a6.023 6.023 0 00-1.42-3.88A5.996 5.996 0 0013 4.096V3.002A1.004 1.004 0 0012 2a.999.999 0 00-1 1.002v1.093a5.997 5.997 0 00-3.58 2.046A6.024 6.024 0 006 10.02v3.188a3 3 0 00-2 2.826v2.005a1.004 1.004 0 001 1.003h3.14c.23.85.733 1.6 1.43 2.134a3.994 3.994 0 006.29-2.134H19a.999.999 0 001-1.003v-2.005a3.012 3.012 0 00-2-2.826zM8 10.02c0-1.064.421-2.084 1.172-2.836a3.995 3.995 0 015.656 0A4.015 4.015 0 0116 10.02v3.007H8V10.02zm4 10.024a1.996 1.996 0 01-1.72-1.002h3.44A2.003 2.003 0 0112 20.044zm6-3.007H6v-1.003a1.004 1.004 0 011-1.002h10a.999.999 0 011 1.002v1.003zM18 5h1v1a1 1 0 002 0V5h1a1 1 0 100-2h-1V2a1 1 0 00-2 0v1h-1a1 1 0 100 2z"/></symbol><symbol id="icon-bell-subscribed-8d645" viewBox="0 0 24 24"><path d="M18 13.207V10.02a6.023 6.023 0 00-1.42-3.88A5.996 5.996 0 0013 4.096V3.002A1.004 1.004 0 0012 2a.999.999 0 00-1 1.002v1.093a5.997 5.997 0 00-3.58 2.046A6.024 6.024 0 006 10.02v3.188a3 3 0 00-2 2.826v2.005a1.004 1.004 0 001 1.003h3.14c.23.85.733 1.6 1.43 2.134a3.994 3.994 0 006.29-2.134H19a.999.999 0 001-1.003v-2.005a3.012 3.012 0 00-2-2.826zM8 10.02c0-1.064.421-2.084 1.172-2.836a3.995 3.995 0 015.656 0A4.015 4.015 0 0116 10.02v3.007H8V10.02zm4 10.024a1.996 1.996 0 01-1.72-1.002h3.44A2.003 2.003 0 0112 20.044zm6-3.007H6v-1.003a1.004 1.004 0 011-1.002h10a.999.999 0 011 1.002v1.003z"/><path fill-rule="evenodd" clip-rule="evenodd" d="M23.157.893a1 1 0 010 1.414l-3.359 3.359a1.25 1.25 0 01-1.768 0l-1.237-1.238a1 1 0 011.414-1.414l.707.707L21.742.893a1 1 0 011.415 0z"/></symbol><symbol id="icon-bolt-alt-b7b0a" viewBox="0 0 24 24"><path d="M19.89 9.55A1 1 0 0019 9h-5V3a1 1 0 00-1.308-1.002 1 1 0 00-.502.362l-8 11a1 1 0 00-.08 1A1 1 0 005 15h5v6a1 1 0 001.81.59l8-11a1 1 0 00.08-1.04zM12 17.92V14a1 1 0 00-1-1H7l5-6.92V10a1 1 0 001 1h4l-5 6.92z"/></symbol><symbol id="icon-book-open-696a4" viewBox="0 0 24 24"><path d="M21.17 2.06A13.1 13.1 0 0019 1.87a12.94 12.94 0 00-7 2.05 12.94 12.94 0 00-7-2 13.1 13.1 0 00-2.17.19 1 1 0 00-.83 1v12a1 1 0 001.17 1 10.9 10.9 0 018.25 1.91l.12.07h.11a.91.91 0 00.7 0h.11l.12-.07A10.898 10.898 0 0120.83 16 .999.999 0 0022 15V3a1 1 0 00-.83-.94zM11 15.35a12.87 12.87 0 00-6-1.48H4v-10a8.34 8.34 0 011 0 10.86 10.86 0 016 1.8v9.68zm9-1.44h-1a12.87 12.87 0 00-6 1.48V5.67a10.86 10.86 0 016-1.8 8.34 8.34 0 011 0v10.04zm1.17 4.15a13.099 13.099 0 00-2.17-.19 12.94 12.94 0 00-7 2.05 12.94 12.94 0 00-7-2.05 13.05 13.05 0 00-2.17.19A1 1 0 002 19.21a1 1 0 001.17.79 10.9 10.9 0 018.25 1.91 1 1 0 001.16 0A10.9 10.9 0 0120.83 20a1 1 0 001.17-.79 1.002 1.002 0 00-.83-1.15z"/></symbol><symbol id="icon-bullseye-arrow-65a26" viewBox="0 0 24 24"><path d="M12 2a10 10 0 1010 10c0-1.16-.21-2.31-.61-3.39l-1.6 1.6c.14.59.21 1.19.21 1.79a8 8 0 11-8-8c.6 0 1.2.07 1.79.21L15.4 2.6C14.31 2.21 13.16 2 12 2zm7 0l-4 4v1.5l-2.55 2.55C12.3 10 12.15 10 12 10a2 2 0 102 2c0-.15 0-.3-.05-.45L16.5 9H18l4-4h-3V2zm-7 4a6 6 0 106 6h-2a4 4 0 11-4-4V6z"/></symbol><symbol id="icon-calendar-882bb" viewBox="0 0 24 24"><path d="M7 12h2v2H7v-2zm14-6v14a2 2 0 01-2 2H5a2 2 0 01-2-2V6a2 2 0 012-2h1V3a1 1 0 012 0v1h8V3a1 1 0 112 0v1h1a2 2 0 012 2zM5 8h14V6H5v2zm14 12V10H5v10h14zm-4-6v-2h2v2h-2zm-4 0v-2h2v2h-2zm-4 2h2v2H7v-2zm8 2v-2h2v2h-2zm-4 0v-2h2v2h-2z"/></symbol><symbol id="icon-camera-change-05c98" viewBox="0 0 24 24"><path d="M12.29 5.21l1.5 1.5a1 1 0 001.42 0 1 1 0 00.13-1.21H19a1 1 0 100-2h-3.66a1 1 0 00-.13-1.21 1 1 0 00-1.42 0l-1.5 1.5a1 1 0 00-.21.33 1 1 0 000 .76 1 1 0 00.21.33zm10.63 3.91a1 1 0 00-.21-.33l-1.5-1.5a1 1 0 00-1.42 0 1 1 0 00-.13 1.21H16a1 1 0 100 2h3.66a1 1 0 00.13 1.21 1.002 1.002 0 001.42 0l1.5-1.5a1 1 0 00.21-.33 1 1 0 000-.76zM11 10a4 4 0 100 8 4 4 0 000-8zm0 6a2 2 0 110-4 2 2 0 010 4zm9-3a1 1 0 00-1 1v5a1 1 0 01-1 1H4a1 1 0 01-1-1v-8a1 1 0 011-1h2a1 1 0 001-.69l.54-1.62a1 1 0 01.9-.69H10a1 1 0 100-2H8.44a3 3 0 00-2.85 2.06L5.28 8H4a3 3 0 00-3 3v8a3 3 0 003 3h14a3 3 0 003-3v-5a1 1 0 00-1-1z"/></symbol><symbol id="icon-camera-plus-590de" viewBox="0 0 24 24"><path d="M20 10.5a1 1 0 00-1 1v7a1 1 0 01-1 1H4a1 1 0 01-1-1v-8a1 1 0 011-1h2a1 1 0 001-.68l.54-1.64a1 1 0 01.95-.68H14a1 1 0 100-2H8.44A3 3 0 005.6 6.55l-.32 1H4a3 3 0 00-3 3v8a3 3 0 003 3h14a3 3 0 003-3v-7a1 1 0 00-1-1.05zm-9-1a4 4 0 100 8 4 4 0 000-8zm0 6a2 2 0 110-4 2 2 0 010 4zm11-11h-1v-1a1 1 0 00-2 0v1h-1a1 1 0 100 2h1v1a1 1 0 002 0v-1h1a1 1 0 100-2z"/></symbol><symbol id="icon-chart-61b84" viewBox="0 0 24 24"><path d="M12 6a1 1 0 00-1 1v10a1 1 0 002 0V7a1 1 0 00-1-1zm-5 6a1 1 0 00-1 1v4a1 1 0 102 0v-4a1 1 0 00-1-1zm10-2a1 1 0 00-1 1v6a1 1 0 002 0v-6a1 1 0 00-1-1zm2-8H5a3 3 0 00-3 3v14a3 3 0 003 3h14a3 3 0 003-3V5a3 3 0 00-3-3zm1 17a1 1 0 01-1 1H5a1 1 0 01-1-1V5a1 1 0 011-1h14a1 1 0 011 1v14z"/></symbol><symbol id="icon-check-big-0d057" viewBox="0 0 24 24"><path d="M20.705 5.685a1 1 0 00-1.42 0l-10.45 10.46-4.13-4.14a1.021 1.021 0 10-1.42 1.47l4.84 4.84a1 1 0 001.42 0l11.16-11.16a1 1 0 000-1.47z"/></symbol><symbol id="icon-check-54975" viewBox="0 0 24 24"><path d="M18.71 7.21a.999.999 0 00-1.42 0l-7.45 7.46-3.13-3.14A1.02 1.02 0 105.29 13l3.84 3.84a1 1 0 001.42 0l8.16-8.16a.999.999 0 000-1.47z"/></symbol><symbol id="icon-clock-deadline-311e9" viewBox="0 0 24 24"><path d="M7.91 5.125a8 8 0 014.509-1.114 1 1 0 00.104-1.997 10 10 0 109.463 10.51 1 1 0 10-1.997-.105 8 8 0 11-12.08-7.294z"/><path d="M20.41 6l1.3-1.29a1 1 0 10-1.42-1.41L19 4.59 17.71 3.3a1 1 0 10-1.42 1.41L17.59 6l-1.3 1.3a1 1 0 101.42 1.41L19 7.42l1.29 1.29a.999.999 0 001.42 0 1 1 0 000-1.41L20.41 6zM12 7a1 1 0 011 1v4.382l2.447 1.224a1 1 0 11-.894 1.788L11 13.618V8a1 1 0 011-1z"/></symbol><symbol id="icon-cloud-check-aeb1a" viewBox="0 0 24 24"><path d="M14.29 14.19L11 17.48l-1.29-1.29a1 1 0 10-1.42 1.41l2 2a1.001 1.001 0 001.42 0l4-4a1 1 0 10-1.42-1.41zm4.13-5.87a7 7 0 00-13.36 1.9 4 4 0 00-.38 7.65 1.002 1.002 0 001.46-.987A1 1 0 005.32 16 2 2 0 014 14.1a2 2 0 012-2 1 1 0 001-1 5 5 0 019.73-1.6 1 1 0 00.78.66 3 3 0 01.24 5.84 1.008 1.008 0 00.25 2h.25a5 5 0 00.17-9.62v-.06z"/></symbol><symbol id="icon-content-copy-ad4ee" viewBox="0 0 24 24"><path d="M21 8.94a1.307 1.307 0 00-.06-.27v-.09a1.07 1.07 0 00-.19-.28l-6-6a1.071 1.071 0 00-.28-.19.32.32 0 00-.09 0 .88.88 0 00-.33-.11H10a3 3 0 00-3 3v1H6a3 3 0 00-3 3v10a3 3 0 003 3h8a3 3 0 003-3v-1h1a3 3 0 003-3V8.94zm-6-3.53L17.59 8H16a1 1 0 01-1-1V5.41zM15 19a1 1 0 01-1 1H6a1 1 0 01-1-1V9a1 1 0 011-1h1v7a3 3 0 003 3h5v1zm4-4a1 1 0 01-1 1h-8a1 1 0 01-1-1V5a1 1 0 011-1h3v3a3 3 0 003 3h3v5z"/></symbol><symbol id="icon-content-multiple-bf175" viewBox="0 0 24 24"><path d="M18 19H6a3 3 0 01-3-3V8a1 1 0 00-2 0v8a5 5 0 005 5h12a1 1 0 000-2zm-4-8h-4a1 1 0 000 2h4a1 1 0 000-2zm9-1.06a1.307 1.307 0 00-.06-.27v-.09a1.07 1.07 0 00-.19-.28l-6-6a1.071 1.071 0 00-.28-.19h-.09a.88.88 0 00-.33-.11H8a3 3 0 00-3 3v8a3 3 0 003 3h12a3 3 0 003-3V9.94zm-6-3.53L19.59 9H18a1 1 0 01-1-1V6.41zM21 14a1 1 0 01-1 1H8a1 1 0 01-1-1V6a1 1 0 011-1h7v3a3 3 0 003 3h3v3zM10 9h2a1 1 0 100-2h-2a1 1 0 000 2z"/></symbol><symbol id="icon-content-043b6" viewBox="0 0 24 24"><path d="M22 10.94a1.306 1.306 0 00-.06-.27v-.09a1.071 1.071 0 00-.19-.28l-6-6a1.071 1.071 0 00-.28-.19h-.1a1.099 1.099 0 00-.31-.11H5a3 3 0 00-3 3v10a3 3 0 003 3h14a3 3 0 003-3v-6.06zm-6-3.53L18.59 10H17a1 1 0 01-1-1V7.41zM20 17a1 1 0 01-1 1H5a1 1 0 01-1-1V7a1 1 0 011-1h9v3a3 3 0 003 3h3v5zM7 12h4a1 1 0 000-2H7a1 1 0 000 2zm0 2a1 1 0 000 2h10a1 1 0 000-2H7z"/></symbol><symbol id="icon-corner-arrow-left-47801" viewBox="0 0 24 24"><path d="M17 9.5H7.41l1.3-1.29a1.004 1.004 0 00-1.42-1.42l-3 3a1 1 0 00-.21.33 1 1 0 000 .76 1 1 0 00.21.33l3 3a.998.998 0 001.42 0 .999.999 0 000-1.42l-1.3-1.29H17a1 1 0 011 1v4a1 1 0 102 0v-4a3 3 0 00-3-3z"/></symbol><symbol id="icon-corner-arrow-right-a98ba" viewBox="0 0 24 24"><path d="M19.92 10.12a1.001 1.001 0 00-.21-.33l-3-3a1.003 1.003 0 10-1.42 1.42l1.3 1.29H7a3 3 0 00-3 3v4a1 1 0 102 0v-4a1 1 0 011-1h9.59l-1.3 1.29a1.001 1.001 0 00.325 1.639 1 1 0 001.095-.22l3-3a1 1 0 00.21-.33 1 1 0 000-.76z"/></symbol><symbol id="icon-corner-arrow-up-e63e4" viewBox="0 0 24 24"><path d="M10.12 4.075a1 1 0 00-.33.21l-3 3a1.004 1.004 0 101.42 1.42l1.29-1.3v9.59a3 3 0 003 3h4a1 1 0 000-2h-4a1 1 0 01-1-1v-9.59l1.29 1.3a.999.999 0 001.42 0 1 1 0 000-1.42l-3-3a1.002 1.002 0 00-.33-.21 1 1 0 00-.76 0z"/></symbol><symbol id="icon-cross-big-017a0" viewBox="0 0 24 24"><path d="M13.404 11.995L18.7 6.709a1.003 1.003 0 00-1.418-1.42l-5.287 5.297L6.709 5.29a1.003 1.003 0 00-1.42 1.419l5.297 5.286-5.296 5.287a1 1 0 00.325 1.637 1 1 0 001.094-.219l5.286-5.296 5.287 5.296a.999.999 0 001.418 0 1 1 0 000-1.418l-5.296-5.287z"/></symbol><symbol id="icon-cross-small-c6147" viewBox="0 0 24 24"><path d="M8.143 6.714a1.01 1.01 0 10-1.429 1.429l3.857 3.856-3.857 3.857a1.01 1.01 0 001.429 1.428l3.856-3.856H12l3.857 3.856a1.01 1.01 0 101.429-1.428l-3.857-3.857 3.857-3.856a1.01 1.01 0 10-1.429-1.429l-3.856 3.857L12 10.57 8.142 6.715z"/></symbol><symbol id="icon-dashboard-1f59f" viewBox="0 0 24 24"><path d="M10 13H4a1 1 0 00-1 1v6a1 1 0 001 1h6a1 1 0 001-1v-6a1 1 0 00-1-1zm-1 6H5v-4h4v4zM20 3h-6a1 1 0 00-1 1v6a1 1 0 001 1h6a1 1 0 001-1V4a1 1 0 00-1-1zm-1 6h-4V5h4v4zm-9-6H4a1 1 0 00-1 1v6a1 1 0 001 1h6a1 1 0 001-1V4a1 1 0 00-1-1zM9 9H5V5h4v4z"/><path fill-rule="evenodd" clip-rule="evenodd" d="M20 13h-6a1 1 0 00-1 1v6a1 1 0 001 1h6a1 1 0 001-1v-6a1 1 0 00-1-1zm-1 6h-4v-4h4v4z"/></symbol><symbol id="icon-delete-59b7a" viewBox="0 0 24 24"><path d="M10 18a1 1 0 001-1v-6a1 1 0 00-2 0v6a1 1 0 001 1zM20 6h-4V5a3 3 0 00-3-3h-2a3 3 0 00-3 3v1H4a1 1 0 000 2h1v11a3 3 0 003 3h8a3 3 0 003-3V8h1a1 1 0 100-2zM10 5a1 1 0 011-1h2a1 1 0 011 1v1h-4V5zm7 14a1 1 0 01-1 1H8a1 1 0 01-1-1V8h10v11zm-3-1a1 1 0 001-1v-6a1 1 0 00-2 0v6a1 1 0 001 1z"/></symbol><symbol id="icon-drag-indicator-f04db" viewBox="0 0 24 24"><path d="M9 8a1 1 0 112 0 1 1 0 01-2 0zm0 4a1 1 0 112 0 1 1 0 01-2 0zm2 4a1 1 0 10-2 0 1 1 0 002 0zm2-8a1 1 0 112 0 1 1 0 01-2 0zm0 4a1 1 0 112 0 1 1 0 01-2 0zm2 4a1 1 0 10-2 0 1 1 0 002 0z"/></symbol><symbol id="icon-edit-alt-fa5fe" viewBox="0 0 24 24"><path d="M22 7.24a.999.999 0 00-.29-.71l-4.24-4.24a.999.999 0 00-.71-.29 1 1 0 00-.71.29l-2.83 2.83L2.29 16.05a1.001 1.001 0 00-.29.71V21a1 1 0 001 1h4.24a1.001 1.001 0 00.76-.29l10.87-10.93L21.71 8c.091-.097.166-.208.22-.33.01-.08.01-.16 0-.24a.697.697 0 000-.14l.07-.05zM6.83 20H4v-2.83l9.93-9.93 2.83 2.83L6.83 20zM18.17 8.66l-2.83-2.83 1.42-1.41 2.82 2.82-1.41 1.42z"/></symbol><symbol id="icon-edit-95b13" viewBox="0 0 24 24"><path d="M5 18h4.24a1 1 0 00.71-.29l6.92-6.93L19.71 8a1 1 0 000-1.42l-4.24-4.29a1 1 0 00-1.42 0l-2.82 2.83-6.94 6.93a1 1 0 00-.29.71V17a1 1 0 001 1zm9.76-13.59l2.83 2.83-1.42 1.42-2.83-2.83 1.42-1.42zM6 13.17l5.93-5.93 2.83 2.83L8.83 16H6v-2.83zM21 20H3a1 1 0 000 2h18a1 1 0 000-2z"/></symbol><symbol id="icon-employee-6b04b" viewBox="0 0 24 24"><path d="M3.759 19.286C4.924 16.14 7.506 14 11.999 14c4.495 0 7.077 2.14 8.242 5.286A10.973 10.973 0 0112 23c-3.28 0-6.226-1.436-8.241-3.714zM15.976 7.935c-.313 2.744-2.346 4.765-4.542 4.515-2.196-.25-3.723-2.677-3.41-5.42.313-2.745 2.28-4.28 4.476-4.03s3.789 2.191 3.476 4.935z"/></symbol><symbol id="icon-external-link-alt-10cd2" viewBox="0 0 24 24"><path d="M18 10.82a1 1 0 00-1 1V19a1 1 0 01-1 1H5a1 1 0 01-1-1V8a1 1 0 011-1h7.18a1 1 0 100-2H5a3 3 0 00-3 3v11a3 3 0 003 3h11a3 3 0 003-3v-7.18a1 1 0 00-1-1zm3.92-8.2a1 1 0 00-.54-.54A1 1 0 0021 2h-6a1 1 0 100 2h3.59L8.29 14.29a1 1 0 00.325 1.639 1 1 0 001.095-.219L20 5.41V9a1 1 0 002 0V3a1.001 1.001 0 00-.08-.38z"/></symbol><symbol id="icon-eye-off-005c8" viewBox="0 0 24 24"><path d="M10.94 6.08c.35-.054.705-.08 1.06-.08 3.18 0 6.17 2.29 7.91 6a15.213 15.213 0 01-.9 1.64 1 1 0 00.05 1.152 1 1 0 001.65-.102c.466-.732.87-1.501 1.21-2.3a1 1 0 000-.79C19.9 6.91 16.1 4 12 4a7.77 7.77 0 00-1.4.12 1.015 1.015 0 00.34 2v-.04zM3.71 2.29a1.004 1.004 0 10-1.42 1.42l3.1 3.09a14.62 14.62 0 00-3.31 4.8 1 1 0 000 .8C4.1 17.09 7.9 20 12 20a9.26 9.26 0 005.05-1.54l3.24 3.25a1.001 1.001 0 001.639-.325 1 1 0 00-.22-1.095l-18-18zm6.36 9.19l2.45 2.45a2 2 0 01-2.45-2.45zM12 18c-3.18 0-6.17-2.29-7.9-6a12.09 12.09 0 012.7-3.79L8.57 10A4 4 0 0014 15.43L15.59 17A7.24 7.24 0 0112 18z"/></symbol><symbol id="icon-eye-on-a711c" viewBox="0 0 24 24"><path d="M21.92 11.6C19.9 6.91 16.1 4 12 4s-7.9 2.91-9.92 7.6a1 1 0 000 .8C4.1 17.09 7.9 20 12 20s7.9-2.91 9.92-7.6a1.001 1.001 0 000-.8zM12 18c-3.17 0-6.17-2.29-7.9-6C5.83 8.29 8.83 6 12 6s6.17 2.29 7.9 6c-1.73 3.71-4.73 6-7.9 6zm0-10a4 4 0 100 8 4 4 0 000-8zm0 6a2 2 0 110-4 2 2 0 010 4z"/></symbol><symbol id="icon-file-tree-cdab1" viewBox="0 0 24 24"><path d="M3 4a1 1 0 011-1h4a1 1 0 011 1v2a1 1 0 01-1 1H4a1 1 0 01-1-1V4zm12 7a1 1 0 011-1h4a1 1 0 011 1v2a1 1 0 01-1 1h-4a1 1 0 01-1-1v-2zm0 7a1 1 0 011-1h4a1 1 0 011 1v2a1 1 0 01-1 1h-4a1 1 0 01-1-1v-2zm-2-6a1 1 0 01-1 1H7v5h5a1 1 0 110 2H5.812A.812.812 0 015 19.188V10a1 1 0 112 0v1h5a1 1 0 011 1z"/></symbol><symbol id="icon-filter-c61da" viewBox="0 0 24 24"><path d="M11 18h2c.55 0 1-.45 1-1s-.45-1-1-1h-2c-.55 0-1 .45-1 1s.45 1 1 1zM3 7c0 .55.45 1 1 1h16c.55 0 1-.45 1-1s-.45-1-1-1H4c-.55 0-1 .45-1 1zm4 6h10c.55 0 1-.45 1-1s-.45-1-1-1H7c-.55 0-1 .45-1 1s.45 1 1 1z"/></symbol><symbol id="icon-fire-99bbb" viewBox="0 0 24 24"><path d="M8.468 8.395l-.002.001-.003.002.005-.003zm9.954-.187a1.233 1.233 0 00-.23-.175 1 1 0 00-1.4.411 5.782 5.782 0 01-1.398 1.778 8.714 8.714 0 00-4.266-9.092 1 1 0 00-1.492.806 7.017 7.017 0 01-2.471 4.942l-.23.187a8.513 8.513 0 00-1.988 1.863 8.983 8.983 0 003.656 13.908 1 1 0 001.327-1.238 6.977 6.977 0 01-.19-2.581 9.004 9.004 0 004.313 4.016c.225.1.48.114.715.038a8.994 8.994 0 003.654-14.863zm-3.905 12.831a6.965 6.965 0 01-3.577-4.402 8.933 8.933 0 01-.18-.964 1 1 0 00-1.857-.363 8.959 8.959 0 00-1.205 4.718 6.985 6.985 0 01-1.176-9.868 6.555 6.555 0 011.562-1.458.746.746 0 00.075-.055s.296-.245.306-.25a8.968 8.968 0 002.9-4.633 6.736 6.736 0 011.385 8.088 1 1 0 001.184 1.418 7.856 7.856 0 003.862-2.688 7 7 0 01-3.279 10.457z"/></symbol><symbol id="icon-flag-8abde" viewBox="0 0 24 24"><path fill-rule="evenodd" clip-rule="evenodd" d="M8 6.5v6h8.15l-2.53-2.024a1.25 1.25 0 010-1.952L16.15 6.5H8zm-2 6.998V18.5H5a1 1 0 100 2h4a1 1 0 100-2H8v-4h10.287c1.182 0 1.704-1.488.781-2.226L15.601 9.5l3.467-2.774c.923-.738.4-2.226-.78-2.226H7.25C6.56 4.5 6 5.06 6 5.75v7.748z"/></symbol><symbol id="icon-folder-outline-57201" viewBox="0 0 24 24"><path d="M19 5.5h-6.28l-.32-1a3 3 0 00-2.84-2H5a3 3 0 00-3 3v13a3 3 0 003 3h14a3 3 0 003-3v-10a3 3 0 00-3-3zm1 13a1 1 0 01-1 1H5a1 1 0 01-1-1v-13a1 1 0 011-1h4.56a1 1 0 01.95.68l.54 1.64a1 1 0 00.95.68h7a1 1 0 011 1v10z"/></symbol><symbol id="icon-grid-plus-outline-c712b" viewBox="0 0 24 24"><path d="M10 13H4a1 1 0 00-1 1v6a1 1 0 001 1h6a1 1 0 001-1v-6a1 1 0 00-1-1zm-1 6H5v-4h4v4zM20 3h-6a1 1 0 00-1 1v6a1 1 0 001 1h6a1 1 0 001-1V4a1 1 0 00-1-1zm-1 6h-4V5h4v4zm1 7h-2v-2a1 1 0 00-2 0v2h-2a1 1 0 000 2h2v2a1 1 0 002 0v-2h2a1 1 0 000-2zM10 3H4a1 1 0 00-1 1v6a1 1 0 001 1h6a1 1 0 001-1V4a1 1 0 00-1-1zM9 9H5V5h4v4z"/></symbol><symbol id="icon-help-circle-outline-6e73d" viewBox="0 0 24 24"><path d="M11.29 15.29a1.573 1.573 0 00-.12.15.762.762 0 00-.09.18.643.643 0 00-.06.18 1.362 1.362 0 000 .2.84.84 0 00.08.38.9.9 0 00.54.54.94.94 0 00.76 0 .9.9 0 00.54-.54A1 1 0 0013 16a1 1 0 00-1.71-.71zM12 2a10 10 0 100 20 10 10 0 000-20zm0 18a8 8 0 110-16.001A8 8 0 0112 20zm0-13a3 3 0 00-2.6 1.5 1 1 0 101.73 1A1 1 0 0112 9a1 1 0 110 2 1 1 0 00-1 1v1a1 1 0 002 0v-.18A3 3 0 0012 7z"/></symbol><symbol id="icon-home-e6cc8" viewBox="0 0 24 24"><path d="M21.66 10.25l-9-8a1 1 0 00-1.32 0l-9 8A1 1 0 003 12h1v9a1 1 0 001 1h14a1 1 0 001-1v-9h1a1 1 0 00.66-1.75zM13 20h-2v-3a1 1 0 012 0v3zm5 0h-3v-3a3 3 0 00-6 0v3H6v-8h12v8zM5.63 10L12 4.34 18.37 10H5.63z"/></symbol><symbol id="icon-kebab-horizontal-ab80d" viewBox="0 0 24 24"><path d="M7 12a2 2 0 10-4 0 2 2 0 004 0zm10 0a2 2 0 104 0 2 2 0 00-4 0zm-7 0a2 2 0 104 0 2 2 0 00-4 0z"/></symbol><symbol id="icon-link-remove-e1c33" viewBox="0 0 24 24"><path d="M10.59 14.83a.973.973 0 000-1.42 2.982 2.982 0 010-4.24l3.53-3.53a2.982 2.982 0 014.24 0 2.981 2.981 0 010 4.24l-.115.118a1 1 0 001.42 1.406l.115-.114a5.003 5.003 0 000-7.07 5.003 5.003 0 00-7.07 0L9.17 7.76a5.003 5.003 0 000 7.07c.39.39 1.03.39 1.42 0z"/><path d="M14.83 9.17c-.39-.39-1.03-.39-1.42 0a.973.973 0 000 1.42 2.981 2.981 0 010 4.24l-3.53 3.53a2.981 2.981 0 01-4.24 0 2.982 2.982 0 010-4.24l.107-.107a1 1 0 00-1.415-1.415l-.112.112a5.003 5.003 0 000 7.07 5.003 5.003 0 007.07 0l3.54-3.54a5.003 5.003 0 000-7.07zm4.706 7.537l-.708.707-.707-.707a1 1 0 00-1.414 1.414l.707.707-.707.708a1 1 0 001.414 1.414l.707-.707.708.707a1 1 0 101.414-1.414l-.707-.708.707-.707a1 1 0 10-1.414-1.414z"/></symbol><symbol id="icon-link-e6437" viewBox="0 0 24 24"><path d="M10.59 13.41c.41.39.41 1.03 0 1.42-.39.39-1.03.39-1.42 0a5.003 5.003 0 010-7.07l3.54-3.54a5.003 5.003 0 017.07 0 5.003 5.003 0 010 7.07l-.114.114a1 1 0 01-1.421-1.406l.115-.118a2.981 2.981 0 000-4.24 2.982 2.982 0 00-4.24 0l-3.53 3.53a2.982 2.982 0 000 4.24zm2.82-4.24c.39-.39 1.03-.39 1.42 0a5.003 5.003 0 010 7.07l-3.54 3.54a5.003 5.003 0 01-7.07 0 5.003 5.003 0 010-7.07l.112-.112a1 1 0 011.415 1.415l-.107.107a2.982 2.982 0 000 4.24 2.981 2.981 0 004.24 0l3.53-3.53a2.981 2.981 0 000-4.24.973.973 0 010-1.42z"/></symbol><symbol id="icon-list-numbered-669c8" viewBox="0 0 24 24"><path d="M3 6v3h1V5H2v1h1zm-1 9v1h2v.5H3v1h1v.5H2v1h3v-4H2zm2.78-4.78a.75.75 0 00-.53-.22H2v1h2l-2 2.08V14h3v-1H3.12l1.67-1.73a.75.75 0 00-.01-1.05zM21 8H7a1 1 0 010-2h14a1 1 0 110 2zM7 11h14a1 1 0 010 2H7a1 1 0 010-2zm0 5h14a1 1 0 010 2H7a1 1 0 010-2z"/></symbol><symbol id="icon-list-ul-d1ed3" viewBox="0 0 24 24"><path d="M3.71 16.29a1 1 0 00-.33-.21 1 1 0 00-.76 0 1 1 0 00-.33.21 1 1 0 00-.21.33 1 1 0 00.21 1.09c.097.088.209.16.33.21a.94.94 0 00.76 0 1.15 1.15 0 00.33-.21 1 1 0 00.21-1.09 1 1 0 00-.21-.33zM7 8h14a1 1 0 100-2H7a1 1 0 000 2zm-3.29 3.29a1 1 0 00-1.09-.21 1.15 1.15 0 00-.33.21 1 1 0 00-.21.33.94.94 0 000 .76c.05.121.122.233.21.33.097.088.209.16.33.21a.94.94 0 00.76 0 1.15 1.15 0 00.33-.21 1.15 1.15 0 00.21-.33.94.94 0 000-.76 1 1 0 00-.21-.33zM21 11H7a1 1 0 000 2h14a1 1 0 000-2zM3.71 6.29a1 1 0 00-.33-.21 1 1 0 00-1.09.21 1.15 1.15 0 00-.21.33.94.94 0 000 .76c.05.121.122.233.21.33.097.088.209.16.33.21a1 1 0 001.09-.21 1.15 1.15 0 00.21-.33.94.94 0 000-.76 1.15 1.15 0 00-.21-.33zM21 16H7a1 1 0 000 2h14a1 1 0 000-2z"/></symbol><symbol id="icon-locked-4980d" viewBox="0 0 24 24"><path fill-rule="evenodd" clip-rule="evenodd" d="M12 6a3 3 0 00-3 3v1a2 2 0 00-2 2v4a2 2 0 002 2h6a2 2 0 002-2v-4a2 2 0 00-2-2V9a3 3 0 00-3-3zm-1 3a1 1 0 012 0v1h-2V9zm4 3v4H9v-4h6z"/></symbol><symbol id="icon-log-out-8865b" viewBox="0 0 24 24"><path d="M22.646 12.354a.5.5 0 000-.708l-2.792-2.792a.5.5 0 00-.854.353V11h-8a1 1 0 100 2h8v1.793a.5.5 0 00.854.353l2.792-2.792zM1 18V6a2 2 0 012-2h12a2 2 0 012 2v2a1 1 0 11-2 0V6H3v12h12v-2a1 1 0 112 0v2a2 2 0 01-2 2H3a2 2 0 01-2-2z"/></symbol><symbol id="icon-minus-big-64e72" viewBox="0 0 24 24"><path d="M19 12a1 1 0 01-1 1H6a1 1 0 110-2h12a1 1 0 011 1z"/></symbol><symbol id="icon-minus-small-73802" viewBox="0 0 24 24"><path d="M17 12a1 1 0 01-1 1H8a1 1 0 110-2h8a1 1 0 011 1z"/></symbol><symbol id="icon-no-image-c5047" viewBox="0 0 24 24"><path d="M19 10a1 1 0 00-1 1v3.39l-1.48-1.48a2.771 2.771 0 00-3.93 0l-.7.7-2.48-2.49a2.79 2.79 0 00-3.93 0L4 12.6V7a1 1 0 011-1h8a1 1 0 100-2H5a3 3 0 00-3 3v12a3 3 0 003 3h12a3 3 0 003-3v-8a1 1 0 00-1-1zM5 20a1 1 0 01-1-1v-3.57l2.9-2.9a.79.79 0 011.09 0l3.17 3.17 4.29 4.3H5zm13-1a.89.89 0 01-.18.53L13.31 15l.7-.7a.78.78 0 011.1 0L18 17.22V19zm2.41-14l1.3-1.29a1 1 0 10-1.42-1.41L19 3.59 17.71 2.3a1 1 0 10-1.42 1.41L17.59 5l-1.3 1.3a1 1 0 101.42 1.41L19 6.42l1.29 1.29a1 1 0 101.42-1.41L20.41 5z"/></symbol><symbol id="icon-notes-3cad7" viewBox="0 0 24 24"><path d="M16 14H8a1 1 0 000 2h8a1 1 0 000-2zm0-4h-6a1 1 0 000 2h6a1 1 0 000-2zm4-6h-3V3a1 1 0 00-2 0v1h-2V3a1 1 0 00-2 0v1H9V3a1 1 0 00-2 0v1H4a1 1 0 00-1 1v14a3 3 0 003 3h12a3 3 0 003-3V5a1 1 0 00-1-1zm-1 15a1 1 0 01-1 1H6a1 1 0 01-1-1V6h2v1a1 1 0 002 0V6h2v1a1 1 0 002 0V6h2v1a1 1 0 002 0V6h2v13z"/></symbol><symbol id="icon-plus-big-4a9fe" viewBox="0 0 24 24"><path d="M19 11h-6V5a1 1 0 00-2 0v6H5a1 1 0 000 2h6v6a1 1 0 002 0v-6h6a1 1 0 000-2z"/></symbol><symbol id="icon-plus-small-9daed" viewBox="0 0 24 24"><path d="M18 12a1 1 0 01-1 1h-4v4a1 1 0 11-2 0v-4H7a1 1 0 110-2h4V7a1 1 0 112 0v4h4a1 1 0 011 1z"/></symbol><symbol id="icon-presentation-line-f8bbf" viewBox="0 0 24 24"><path d="M21 14h-1V3a1 1 0 00-1-1H5a1 1 0 00-1 1v11H3a1 1 0 000 2h8v1.15l-4.55 3A1 1 0 007 22a.94.94 0 00.55-.17L11 19.55V21a1 1 0 002 0v-1.45l3.45 2.28A.94.94 0 0017 22a1 1 0 00.55-1.83l-4.55-3V16h8a1 1 0 000-2zm-3 0H6V4h12v10zm-9-2a1 1 0 00.83-.45l1.33-2 1.13 1.14a1 1 0 00.81.29 1 1 0 00.73-.45l2-3a1 1 0 00-1.66-1.1l-1.33 2-1.13-1.14A1 1 0 0010.9 7a1 1 0 00-.73.45l-2 3a1 1 0 00.28 1.38A.94.94 0 009 12z"/></symbol><symbol id="icon-rotate-right-9c7aa" viewBox="0 0 24 24"><path d="M15.576 6.692L11 10.295l.012-3.024c-1.412.257-2.596.956-3.553 2.098-.957 1.141-1.435 2.468-1.435 3.98 0 1.51.478 2.837 1.435 3.979.957 1.141 2.141 1.84 3.553 2.098V21.5c-1.977-.257-3.64-1.158-4.988-2.701C4.674 17.255 4 15.439 4 13.349c0-2.091.675-3.908 2.024-5.451 1.349-1.544 3.011-2.444 4.988-2.702L11 2.5l4.576 4.192zM20 12.335h-2.023A6.273 6.273 0 0016.94 9.78l1.412-1.447A8.181 8.181 0 0120 12.335zm-6.965 7.09a5.946 5.946 0 002.447-1.06l1.46 1.495a7.997 7.997 0 01-3.907 1.64v-2.074zm3.906-2.507a6.273 6.273 0 001.036-2.557H20a8.181 8.181 0 01-1.647 4.004l-1.412-1.447z"/></symbol><symbol id="icon-save-move-outline-7d311" viewBox="0 0 24 24"><path fill-rule="evenodd" clip-rule="evenodd" d="M13.71 3.29l6 6A1 1 0 0120 10v3c0 .333-.2 1-1 1s-1-.735-1-1v-2.59l-4-4V8a1 1 0 01-1 1H7a1 1 0 01-1-1V5H5a1 1 0 00-1 1v12a1 1 0 001 1h1v-3a3 3 0 013-3h3c.333 0 1 .2 1 1s-.667 1-1 1H9a1 1 0 00-1 1v3h4c.333 0 1 .2 1 1s-.667 1-1 1H5a3 3 0 01-3-3V6a3 3 0 013-3h8c.134.002.266.03.39.08a1 1 0 01.32.21zM12 5H8v2h4V5z"/><path d="M21.92 17.12a.998.998 0 00-.21-.328l-1.5-1.497a1.002 1.002 0 00-1.42 0 .997.997 0 00-.13 1.207H15a1.001 1.001 0 00-1 .998.997.997 0 001 .998h3.66a.995.995 0 00.13 1.207 1.002 1.002 0 001.42 0l1.5-1.497a.998.998 0 00.21-.329c.1-.243.1-.515 0-.758z"/></symbol><symbol id="icon-save-outline-fdaec" viewBox="0 0 24 24"><path d="M20.71 9.29l-6-6a1 1 0 00-.32-.21A1.09 1.09 0 0014 3H6a3 3 0 00-3 3v12a3 3 0 003 3h12a3 3 0 003-3v-8a1 1 0 00-.29-.71zM9 5h4v2H9V5zm6 14H9v-3a1 1 0 011-1h4a1 1 0 011 1v3zm4-1a1 1 0 01-1 1h-1v-3a3 3 0 00-3-3h-4a3 3 0 00-3 3v3H6a1 1 0 01-1-1V6a1 1 0 011-1h1v3a1 1 0 001 1h6a1 1 0 001-1V6.41l4 4V18z"/></symbol><symbol id="icon-search-big-aaf6f" viewBox="0 0 24 24"><path fill-rule="evenodd" clip-rule="evenodd" d="M15.9 17.32A7.998 7.998 0 013 11c0-4.418 3.58-8 7.996-8a7.998 7.998 0 017.996 8 7.967 7.967 0 01-1.68 4.906l3.4 3.384c.39.39.39 1.03 0 1.42-.391.39-1.03.39-1.42 0l-3.393-3.39zM16.992 11c0 3.314-2.685 6-5.997 6a5.999 5.999 0 01-5.997-6c0-3.314 2.685-6 5.997-6a5.998 5.998 0 015.997 6z"/></symbol><symbol id="icon-settings-c8087" viewBox="0 0 24 24"><path d="M21.32 9.55l-1.89-.63.89-1.78A1 1 0 0020.13 6L18 3.87a1 1 0 00-1.15-.19l-1.78.89-.63-1.89A1 1 0 0013.5 2h-3a1 1 0 00-.95.68l-.63 1.89-1.78-.89A1 1 0 006 3.87L3.87 6a1 1 0 00-.19 1.15l.89 1.78-1.89.63a1 1 0 00-.68.94v3a1 1 0 00.68.95l1.89.63-.89 1.78A1 1 0 003.87 18L6 20.13a1 1 0 001.15.19l1.78-.89.63 1.89a1 1 0 00.95.68h3a1 1 0 00.95-.68l.63-1.89 1.78.89a1 1 0 001.13-.19L20.13 18a1 1 0 00.19-1.15l-.89-1.78 1.89-.63a1 1 0 00.68-.94v-3a1 1 0 00-.68-.95zM20 12.78l-1.2.4A2 2 0 0017.64 16l.57 1.14-1.1 1.1-1.11-.6a2 2 0 00-2.79 1.16l-.4 1.2h-1.59l-.4-1.2A2 2 0 008 17.64l-1.14.57-1.1-1.1.6-1.11a2 2 0 00-1.16-2.82l-1.2-.4v-1.56l1.2-.4A2 2 0 006.36 8l-.57-1.11 1.1-1.1L8 6.36a2 2 0 002.82-1.16l.4-1.2h1.56l.4 1.2A2 2 0 0016 6.36l1.14-.57 1.1 1.1-.6 1.11a2 2 0 001.16 2.79l1.2.4v1.59zM12 8a4 4 0 100 8 4 4 0 000-8zm0 6a2 2 0 110-4 2 2 0 010 4z"/></symbol><symbol id="icon-sitemap-36beb" viewBox="0 0 24 24"><path d="M22 15h-2v-3a1 1 0 00-1-1h-6V9h2a1 1 0 001-1V2a1 1 0 00-1-1H9a1 1 0 00-1 1v6a1 1 0 001 1h2v2H5a1 1 0 00-1 1v3H2a1 1 0 00-1 1v6a1 1 0 001 1h6a1 1 0 001-1v-6a1 1 0 00-1-1H6v-2h12v2h-2a1 1 0 00-1 1v6a1 1 0 001 1h6a1 1 0 001-1v-6a1 1 0 00-1-1zM7 17v4H3v-4h4zm3-10V3h4v4h-4zm11 14h-4v-4h4v4z"/></symbol><symbol id="icon-sort-desc-9ebe3" viewBox="0 0 16 16"><path d="M2.5 12a1 1 0 001 1h2a1 1 0 100-2h-2a1 1 0 00-1 1zm0-4a1 1 0 001 1h5a1 1 0 100-2h-5a1 1 0 00-1 1zm1-3a1 1 0 110-2h9a1 1 0 110 2h-9z"/></symbol><symbol id="icon-star-outline-690e8" viewBox="0 0 24 24"><path d="M22 9.67a1 1 0 00-.86-.67l-5.69-.83L12.9 3a1 1 0 00-1.8 0L8.55 8.16 2.86 9a1 1 0 00-.81.68 1 1 0 00.25 1l4.13 4-1 5.68a1 1 0 001.47 1.08l5.1-2.67 5.1 2.67c.14.08.299.12.46.12a1 1 0 00.59-.19 1 1 0 00.4-1l-1-5.68 4.13-4A1 1 0 0022 9.67zm-6.15 4a1 1 0 00-.29.88l.72 4.2-3.76-2a1.06 1.06 0 00-.94 0l-3.76 2 .72-4.2a1 1 0 00-.29-.88l-3-3 4.21-.61a1 1 0 00.76-.55L12 5.7l1.88 3.82a1 1 0 00.76.55l4.21.61-3 2.99z"/></symbol><symbol id="icon-sync-3c18a" viewBox="0 0 24 24"><path d="M19.91 15.51h-4.53a1 1 0 000 2h2.4A8 8 0 014 12a1 1 0 10-2 0 10 10 0 0016.88 7.23V21a1 1 0 002 0v-4.5a1 1 0 00-.97-.99zM12 2a10 10 0 00-6.88 2.77V3a1 1 0 00-2 0v4.5a1 1 0 001 1h4.5a1 1 0 000-2h-2.4A8 8 0 0120 12a1 1 0 002 0A10 10 0 0012 2z"/></symbol><symbol id="icon-team-143fd" viewBox="0 0 24 24"><path fill-rule="evenodd" clip-rule="evenodd" d="M7.91 5.125a8 8 0 014.509-1.114 1 1 0 00.104-1.997 10 10 0 109.463 10.51 1 1 0 10-1.997-.105 8 8 0 01-2.38 5.284v-.062A5.007 5.007 0 0013 14.573h-2a5.007 5.007 0 00-4.61 3.068v.062A8 8 0 017.91 5.125zm.116 13.818a8.002 8.002 0 007.976-.016h-.076A3.003 3.003 0 0013 16.573h-2a3.002 3.002 0 00-2.926 2.354l-.048.016z"/><path d="M19.994 4.284v3.313a.723.723 0 11-1.446 0V4.284h-1.156a.642.642 0 110-1.284h3.758a.642.642 0 110 1.284h-1.156z"/><path fill-rule="evenodd" clip-rule="evenodd" d="M12 6c-2.28 0-4 1.72-4 4 0 2.28 1.72 4 4 4 2.28 0 4-1.72 4-4 0-2.28-1.72-4-4-4zm0 6c-1.178 0-2-.822-2-2s.822-2 2-2 2 .822 2 2-.822 2-2 2z"/></symbol><symbol id="icon-tooltip-triangle-8f0f0" viewBox="0 0 16 8"><path class="tooltip-triangle" d="M8.707.707L16 8H0L7.293.707a1 1 0 011.414 0z"/></symbol><symbol id="icon-user-dc63d" viewBox="0 0 24 24"><path d="M12 2C6.579 2 2 6.579 2 12c0 3.189 1.592 6.078 4 7.924l.047.037.055.039C7.77 21.245 9.813 22 12 22s4.23-.755 5.898-2l.055-.04.047-.036c2.408-1.846 4-4.734 4-7.924 0-5.421-4.579-10-10-10zM8.074 18.927A3.002 3.002 0 0111 16.573h2a3.003 3.003 0 012.926 2.354A7.82 7.82 0 0112 20a7.82 7.82 0 01-3.926-1.073zm9.536-1.286A5.007 5.007 0 0013 14.573h-2a5.007 5.007 0 00-4.61 3.068C4.923 16.182 4 14.176 4 12c0-4.337 3.663-8 8-8s8 3.663 8 8c0 2.176-.923 4.182-2.39 5.641z"/><path d="M12 6c-2.28 0-4 1.72-4 4 0 2.28 1.72 4 4 4 2.28 0 4-1.72 4-4 0-2.28-1.72-4-4-4zm0 6c-1.178 0-2-.822-2-2s.822-2 2-2 2 .822 2 2-.822 2-2 2z"/></symbol><symbol id="icon-image-75352" viewBox="0 0 667 667"><path d="M613.659 171.75L333.5 657 53.34 171.75h560.32z"/></symbol></defs><view id="view-icon-alert-alt-565d2" viewBox="0 0 50 50"></view><view id="view-icon-deadline-07ddf" viewBox="50 0 50 50"></view><view id="view-icon-delete-1710b" viewBox="100 0 50 50"></view><view id="view-icon-edit-fab57" viewBox="150 0 50 50"></view><view id="view-icon-flag-565d2" viewBox="200 0 50 50"></view><view id="view-icon-info-circle-b49fb" viewBox="250 0 50 50"></view><view id="view-icon-link-5599e" viewBox="300 0 50 50"></view><view id="view-icon-no-image-ce43a" viewBox="350 0 50 50"></view><view id="view-icon-ok-fd84e" viewBox="400 0 50 50"></view><view id="view-icon-short-line-01150" viewBox="450 0 50 50"></view><view id="view-icon-small-circle-8fce5" viewBox="500 0 50 50"></view><view id="view-icon-sort-asc-44b2a" viewBox="550 0 50 50"></view><view id="view-icon-sort-desc-9ebe3" viewBox="600 0 50 50"></view><view id="view-icon-triangle-down-alt-ff6ec" viewBox="650 0 50 50"></view><view id="view-icon-triangle-down-d858f" viewBox="700 0 50 50"></view><view id="view-icon-triangle-left-alt-13d4e" viewBox="750 0 50 50"></view><view id="view-icon-triangle-left-07bd3" viewBox="800 0 50 50"></view><view id="view-icon-triangle-right-alt-4cccf" viewBox="850 0 50 50"></view><view id="view-icon-triangle-right-6dcac" viewBox="900 0 50 50"></view><view id="view-icon-triangle-up-alt-55152" viewBox="950 0 50 50"></view><view id="view-icon-triangle-up-down-b0cb8" viewBox="0 50 50 50"></view><view id="view-icon-triangle-up-0496f" viewBox="50 50 50 50"></view><view id="view-icon-account-multiple-outline-72da9" viewBox="100 50 50 50"></view><view id="view-icon-alert-alt-14309" viewBox="150 50 50 50"></view><view id="view-icon-alert-3f07f" viewBox="200 50 50 50"></view><view id="view-icon-arrow-down-38635" viewBox="250 50 50 50"></view><view id="view-icon-arrow-left-02031" viewBox="300 50 50 50"></view><view id="view-icon-arrow-right-c7bb5" viewBox="350 50 50 50"></view><view id="view-icon-arrow-up-d84cc" viewBox="400 50 50 50"></view><view id="view-icon-arrow_long-down-74bee" viewBox="450 50 50 50"></view><view id="view-icon-arrow_long-left-eb12a" viewBox="500 50 50 50"></view><view id="view-icon-arrow_long-right-da661" viewBox="550 50 50 50"></view><view id="view-icon-arrow_long-up-9fc4d" viewBox="600 50 50 50"></view><view id="view-icon-asterisk-2593d" viewBox="650 50 50 50"></view><view id="view-icon-attachment-big-de632" viewBox="700 50 50 50"></view><view id="view-icon-badge-3760e" viewBox="750 50 50 50"></view><view id="view-icon-bell-off-outlined-3ce08" viewBox="800 50 50 50"></view><view id="view-icon-bell-outlined-f10b4" viewBox="850 50 50 50"></view><view id="view-icon-bell-subscribe-44e8f" viewBox="900 50 50 50"></view><view id="view-icon-bell-subscribed-8d645" viewBox="950 50 50 50"></view><view id="view-icon-bolt-alt-b7b0a" viewBox="0 100 50 50"></view><view id="view-icon-book-open-696a4" viewBox="50 100 50 50"></view><view id="view-icon-bullseye-arrow-65a26" viewBox="100 100 50 50"></view><view id="view-icon-calendar-882bb" viewBox="150 100 50 50"></view><view id="view-icon-camera-change-05c98" viewBox="200 100 50 50"></view><view id="view-icon-camera-plus-590de" viewBox="250 100 50 50"></view><view id="view-icon-chart-61b84" viewBox="300 100 50 50"></view><view id="view-icon-check-big-0d057" viewBox="350 100 50 50"></view><view id="view-icon-check-54975" viewBox="400 100 50 50"></view><view id="view-icon-clock-deadline-311e9" viewBox="450 100 50 50"></view><view id="view-icon-cloud-check-aeb1a" viewBox="500 100 50 50"></view><view id="view-icon-content-copy-ad4ee" viewBox="550 100 50 50"></view><view id="view-icon-content-multiple-bf175" viewBox="600 100 50 50"></view><view id="view-icon-content-043b6" viewBox="650 100 50 50"></view><view id="view-icon-corner-arrow-left-47801" viewBox="700 100 50 50"></view><view id="view-icon-corner-arrow-right-a98ba" viewBox="750 100 50 50"></view><view id="view-icon-corner-arrow-up-e63e4" viewBox="800 100 50 50"></view><view id="view-icon-cross-big-017a0" viewBox="850 100 50 50"></view><view id="view-icon-cross-small-c6147" viewBox="900 100 50 50"></view><view id="view-icon-dashboard-1f59f" viewBox="950 100 50 50"></view><view id="view-icon-delete-59b7a" viewBox="0 150 50 50"></view><view id="view-icon-drag-indicator-f04db" viewBox="50 150 50 50"></view><view id="view-icon-edit-alt-fa5fe" viewBox="100 150 50 50"></view><view id="view-icon-edit-95b13" viewBox="150 150 50 50"></view><view id="view-icon-employee-6b04b" viewBox="200 150 50 50"></view><view id="view-icon-external-link-alt-10cd2" viewBox="250 150 50 50"></view><view id="view-icon-eye-off-005c8" viewBox="300 150 50 50"></view><view id="view-icon-eye-on-a711c" viewBox="350 150 50 50"></view><view id="view-icon-file-tree-cdab1" viewBox="400 150 50 50"></view><view id="view-icon-filter-c61da" viewBox="450 150 50 50"></view><view id="view-icon-fire-99bbb" viewBox="500 150 50 50"></view><view id="view-icon-flag-8abde" viewBox="550 150 50 50"></view><view id="view-icon-folder-outline-57201" viewBox="600 150 50 50"></view><view id="view-icon-grid-plus-outline-c712b" viewBox="650 150 50 50"></view><view id="view-icon-help-circle-outline-6e73d" viewBox="700 150 50 50"></view><view id="view-icon-home-e6cc8" viewBox="750 150 50 50"></view><view id="view-icon-kebab-horizontal-ab80d" viewBox="800 150 50 50"></view><view id="view-icon-link-remove-e1c33" viewBox="850 150 50 50"></view><view id="view-icon-link-e6437" viewBox="900 150 50 50"></view><view id="view-icon-list-numbered-669c8" viewBox="950 150 50 50"></view><view id="view-icon-list-ul-d1ed3" viewBox="0 200 50 50"></view><view id="view-icon-locked-4980d" viewBox="50 200 50 50"></view><view id="view-icon-log-out-8865b" viewBox="100 200 50 50"></view><view id="view-icon-minus-big-64e72" viewBox="150 200 50 50"></view><view id="view-icon-minus-small-73802" viewBox="200 200 50 50"></view><view id="view-icon-no-image-c5047" viewBox="250 200 50 50"></view><view id="view-icon-notes-3cad7" viewBox="300 200 50 50"></view><view id="view-icon-plus-big-4a9fe" viewBox="350 200 50 50"></view><view id="view-icon-plus-small-9daed" viewBox="400 200 50 50"></view><view id="view-icon-presentation-line-f8bbf" viewBox="450 200 50 50"></view><view id="view-icon-rotate-right-9c7aa" viewBox="500 200 50 50"></view><view id="view-icon-save-move-outline-7d311" viewBox="550 200 50 50"></view><view id="view-icon-save-outline-fdaec" viewBox="600 200 50 50"></view><view id="view-icon-search-big-aaf6f" viewBox="650 200 50 50"></view><view id="view-icon-settings-c8087" viewBox="700 200 50 50"></view><view id="view-icon-sitemap-36beb" viewBox="750 200 50 50"></view><view id="view-icon-sort-desc-9ebe3" viewBox="800 200 50 50"></view><view id="view-icon-star-outline-690e8" viewBox="850 200 50 50"></view><view id="view-icon-sync-3c18a" viewBox="900 200 50 50"></view><view id="view-icon-team-143fd" viewBox="950 200 50 50"></view><view id="view-icon-tooltip-triangle-8f0f0" viewBox="0 250 100 50"></view><view id="view-icon-user-dc63d" viewBox="100 250 50 50"></view><view id="view-icon-image-75352" viewBox="150 250 50 50"></view><use id="icon-alert-alt-565d2" xlink:href="#icon-alert-alt-565d2" width="50" height="50" x="0" y="0"></use><use id="icon-deadline-07ddf" xlink:href="#icon-deadline-07ddf" width="50" height="50" x="50" y="0"></use><use id="icon-delete-1710b" xlink:href="#icon-delete-1710b" width="50" height="50" x="100" y="0"></use><use id="icon-edit-fab57" xlink:href="#icon-edit-fab57" width="50" height="50" x="150" y="0"></use><use id="icon-flag-565d2" xlink:href="#icon-flag-565d2" width="50" height="50" x="200" y="0"></use><use id="icon-info-circle-b49fb" xlink:href="#icon-info-circle-b49fb" width="50" height="50" x="250" y="0"></use><use id="icon-link-5599e" xlink:href="#icon-link-5599e" width="50" height="50" x="300" y="0"></use><use id="icon-no-image-ce43a" xlink:href="#icon-no-image-ce43a" width="50" height="50" x="350" y="0"></use><use id="icon-ok-fd84e" xlink:href="#icon-ok-fd84e" width="50" height="50" x="400" y="0"></use><use id="icon-short-line-01150" xlink:href="#icon-short-line-01150" width="50" height="50" x="450" y="0"></use><use id="icon-small-circle-8fce5" xlink:href="#icon-small-circle-8fce5" width="50" height="50" x="500" y="0"></use><use id="icon-sort-asc-44b2a" xlink:href="#icon-sort-asc-44b2a" width="50" height="50" x="550" y="0"></use><use id="icon-sort-desc-9ebe3" xlink:href="#icon-sort-desc-9ebe3" width="50" height="50" x="600" y="0"></use><use id="icon-triangle-down-alt-ff6ec" xlink:href="#icon-triangle-down-alt-ff6ec" width="50" height="50" x="650" y="0"></use><use id="icon-triangle-down-d858f" xlink:href="#icon-triangle-down-d858f" width="50" height="50" x="700" y="0"></use><use id="icon-triangle-left-alt-13d4e" xlink:href="#icon-triangle-left-alt-13d4e" width="50" height="50" x="750" y="0"></use><use id="icon-triangle-left-07bd3" xlink:href="#icon-triangle-left-07bd3" width="50" height="50" x="800" y="0"></use><use id="icon-triangle-right-alt-4cccf" xlink:href="#icon-triangle-right-alt-4cccf" width="50" height="50" x="850" y="0"></use><use id="icon-triangle-right-6dcac" xlink:href="#icon-triangle-right-6dcac" width="50" height="50" x="900" y="0"></use><use id="icon-triangle-up-alt-55152" xlink:href="#icon-triangle-up-alt-55152" width="50" height="50" x="950" y="0"></use><use id="icon-triangle-up-down-b0cb8" xlink:href="#icon-triangle-up-down-b0cb8" width="50" height="50" x="0" y="50"></use><use id="icon-triangle-up-0496f" xlink:href="#icon-triangle-up-0496f" width="50" height="50" x="50" y="50"></use><use id="icon-account-multiple-outline-72da9" xlink:href="#icon-account-multiple-outline-72da9" width="50" height="50" x="100" y="50"></use><use id="icon-alert-alt-14309" xlink:href="#icon-alert-alt-14309" width="50" height="50" x="150" y="50"></use><use id="icon-alert-3f07f" xlink:href="#icon-alert-3f07f" width="50" height="50" x="200" y="50"></use><use id="icon-arrow-down-38635" xlink:href="#icon-arrow-down-38635" width="50" height="50" x="250" y="50"></use><use id="icon-arrow-left-02031" xlink:href="#icon-arrow-left-02031" width="50" height="50" x="300" y="50"></use><use id="icon-arrow-right-c7bb5" xlink:href="#icon-arrow-right-c7bb5" width="50" height="50" x="350" y="50"></use><use id="icon-arrow-up-d84cc" xlink:href="#icon-arrow-up-d84cc" width="50" height="50" x="400" y="50"></use><use id="icon-arrow_long-down-74bee" xlink:href="#icon-arrow_long-down-74bee" width="50" height="50" x="450" y="50"></use><use id="icon-arrow_long-left-eb12a" xlink:href="#icon-arrow_long-left-eb12a" width="50" height="50" x="500" y="50"></use><use id="icon-arrow_long-right-da661" xlink:href="#icon-arrow_long-right-da661" width="50" height="50" x="550" y="50"></use><use id="icon-arrow_long-up-9fc4d" xlink:href="#icon-arrow_long-up-9fc4d" width="50" height="50" x="600" y="50"></use><use id="icon-asterisk-2593d" xlink:href="#icon-asterisk-2593d" width="50" height="50" x="650" y="50"></use><use id="icon-attachment-big-de632" xlink:href="#icon-attachment-big-de632" width="50" height="50" x="700" y="50"></use><use id="icon-badge-3760e" xlink:href="#icon-badge-3760e" width="50" height="50" x="750" y="50"></use><use id="icon-bell-off-outlined-3ce08" xlink:href="#icon-bell-off-outlined-3ce08" width="50" height="50" x="800" y="50"></use><use id="icon-bell-outlined-f10b4" xlink:href="#icon-bell-outlined-f10b4" width="50" height="50" x="850" y="50"></use><use id="icon-bell-subscribe-44e8f" xlink:href="#icon-bell-subscribe-44e8f" width="50" height="50" x="900" y="50"></use><use id="icon-bell-subscribed-8d645" xlink:href="#icon-bell-subscribed-8d645" width="50" height="50" x="950" y="50"></use><use id="icon-bolt-alt-b7b0a" xlink:href="#icon-bolt-alt-b7b0a" width="50" height="50" x="0" y="100"></use><use id="icon-book-open-696a4" xlink:href="#icon-book-open-696a4" width="50" height="50" x="50" y="100"></use><use id="icon-bullseye-arrow-65a26" xlink:href="#icon-bullseye-arrow-65a26" width="50" height="50" x="100" y="100"></use><use id="icon-calendar-882bb" xlink:href="#icon-calendar-882bb" width="50" height="50" x="150" y="100"></use><use id="icon-camera-change-05c98" xlink:href="#icon-camera-change-05c98" width="50" height="50" x="200" y="100"></use><use id="icon-camera-plus-590de" xlink:href="#icon-camera-plus-590de" width="50" height="50" x="250" y="100"></use><use id="icon-chart-61b84" xlink:href="#icon-chart-61b84" width="50" height="50" x="300" y="100"></use><use id="icon-check-big-0d057" xlink:href="#icon-check-big-0d057" width="50" height="50" x="350" y="100"></use><use id="icon-check-54975" xlink:href="#icon-check-54975" width="50" height="50" x="400" y="100"></use><use id="icon-clock-deadline-311e9" xlink:href="#icon-clock-deadline-311e9" width="50" height="50" x="450" y="100"></use><use id="icon-cloud-check-aeb1a" xlink:href="#icon-cloud-check-aeb1a" width="50" height="50" x="500" y="100"></use><use id="icon-content-copy-ad4ee" xlink:href="#icon-content-copy-ad4ee" width="50" height="50" x="550" y="100"></use><use id="icon-content-multiple-bf175" xlink:href="#icon-content-multiple-bf175" width="50" height="50" x="600" y="100"></use><use id="icon-content-043b6" xlink:href="#icon-content-043b6" width="50" height="50" x="650" y="100"></use><use id="icon-corner-arrow-left-47801" xlink:href="#icon-corner-arrow-left-47801" width="50" height="50" x="700" y="100"></use><use id="icon-corner-arrow-right-a98ba" xlink:href="#icon-corner-arrow-right-a98ba" width="50" height="50" x="750" y="100"></use><use id="icon-corner-arrow-up-e63e4" xlink:href="#icon-corner-arrow-up-e63e4" width="50" height="50" x="800" y="100"></use><use id="icon-cross-big-017a0" xlink:href="#icon-cross-big-017a0" width="50" height="50" x="850" y="100"></use><use id="icon-cross-small-c6147" xlink:href="#icon-cross-small-c6147" width="50" height="50" x="900" y="100"></use><use id="icon-dashboard-1f59f" xlink:href="#icon-dashboard-1f59f" width="50" height="50" x="950" y="100"></use><use id="icon-delete-59b7a" xlink:href="#icon-delete-59b7a" width="50" height="50" x="0" y="150"></use><use id="icon-drag-indicator-f04db" xlink:href="#icon-drag-indicator-f04db" width="50" height="50" x="50" y="150"></use><use id="icon-edit-alt-fa5fe" xlink:href="#icon-edit-alt-fa5fe" width="50" height="50" x="100" y="150"></use><use id="icon-edit-95b13" xlink:href="#icon-edit-95b13" width="50" height="50" x="150" y="150"></use><use id="icon-employee-6b04b" xlink:href="#icon-employee-6b04b" width="50" height="50" x="200" y="150"></use><use id="icon-external-link-alt-10cd2" xlink:href="#icon-external-link-alt-10cd2" width="50" height="50" x="250" y="150"></use><use id="icon-eye-off-005c8" xlink:href="#icon-eye-off-005c8" width="50" height="50" x="300" y="150"></use><use id="icon-eye-on-a711c" xlink:href="#icon-eye-on-a711c" width="50" height="50" x="350" y="150"></use><use id="icon-file-tree-cdab1" xlink:href="#icon-file-tree-cdab1" width="50" height="50" x="400" y="150"></use><use id="icon-filter-c61da" xlink:href="#icon-filter-c61da" width="50" height="50" x="450" y="150"></use><use id="icon-fire-99bbb" xlink:href="#icon-fire-99bbb" width="50" height="50" x="500" y="150"></use><use id="icon-flag-8abde" xlink:href="#icon-flag-8abde" width="50" height="50" x="550" y="150"></use><use id="icon-folder-outline-57201" xlink:href="#icon-folder-outline-57201" width="50" height="50" x="600" y="150"></use><use id="icon-grid-plus-outline-c712b" xlink:href="#icon-grid-plus-outline-c712b" width="50" height="50" x="650" y="150"></use><use id="icon-help-circle-outline-6e73d" xlink:href="#icon-help-circle-outline-6e73d" width="50" height="50" x="700" y="150"></use><use id="icon-home-e6cc8" xlink:href="#icon-home-e6cc8" width="50" height="50" x="750" y="150"></use><use id="icon-kebab-horizontal-ab80d" xlink:href="#icon-kebab-horizontal-ab80d" width="50" height="50" x="800" y="150"></use><use id="icon-link-remove-e1c33" xlink:href="#icon-link-remove-e1c33" width="50" height="50" x="850" y="150"></use><use id="icon-link-e6437" xlink:href="#icon-link-e6437" width="50" height="50" x="900" y="150"></use><use id="icon-list-numbered-669c8" xlink:href="#icon-list-numbered-669c8" width="50" height="50" x="950" y="150"></use><use id="icon-list-ul-d1ed3" xlink:href="#icon-list-ul-d1ed3" width="50" height="50" x="0" y="200"></use><use id="icon-locked-4980d" xlink:href="#icon-locked-4980d" width="50" height="50" x="50" y="200"></use><use id="icon-log-out-8865b" xlink:href="#icon-log-out-8865b" width="50" height="50" x="100" y="200"></use><use id="icon-minus-big-64e72" xlink:href="#icon-minus-big-64e72" width="50" height="50" x="150" y="200"></use><use id="icon-minus-small-73802" xlink:href="#icon-minus-small-73802" width="50" height="50" x="200" y="200"></use><use id="icon-no-image-c5047" xlink:href="#icon-no-image-c5047" width="50" height="50" x="250" y="200"></use><use id="icon-notes-3cad7" xlink:href="#icon-notes-3cad7" width="50" height="50" x="300" y="200"></use><use id="icon-plus-big-4a9fe" xlink:href="#icon-plus-big-4a9fe" width="50" height="50" x="350" y="200"></use><use id="icon-plus-small-9daed" xlink:href="#icon-plus-small-9daed" width="50" height="50" x="400" y="200"></use><use id="icon-presentation-line-f8bbf" xlink:href="#icon-presentation-line-f8bbf" width="50" height="50" x="450" y="200"></use><use id="icon-rotate-right-9c7aa" xlink:href="#icon-rotate-right-9c7aa" width="50" height="50" x="500" y="200"></use><use id="icon-save-move-outline-7d311" xlink:href="#icon-save-move-outline-7d311" width="50" height="50" x="550" y="200"></use><use id="icon-save-outline-fdaec" xlink:href="#icon-save-outline-fdaec" width="50" height="50" x="600" y="200"></use><use id="icon-search-big-aaf6f" xlink:href="#icon-search-big-aaf6f" width="50" height="50" x="650" y="200"></use><use id="icon-settings-c8087" xlink:href="#icon-settings-c8087" width="50" height="50" x="700" y="200"></use><use id="icon-sitemap-36beb" xlink:href="#icon-sitemap-36beb" width="50" height="50" x="750" y="200"></use><use id="icon-sort-desc-9ebe3" xlink:href="#icon-sort-desc-9ebe3" width="50" height="50" x="800" y="200"></use><use id="icon-star-outline-690e8" xlink:href="#icon-star-outline-690e8" width="50" height="50" x="850" y="200"></use><use id="icon-sync-3c18a" xlink:href="#icon-sync-3c18a" width="50" height="50" x="900" y="200"></use><use id="icon-team-143fd" xlink:href="#icon-team-143fd" width="50" height="50" x="950" y="200"></use><use id="icon-tooltip-triangle-8f0f0" xlink:href="#icon-tooltip-triangle-8f0f0" width="100" height="50" x="0" y="250"></use><use id="icon-user-dc63d" xlink:href="#icon-user-dc63d" width="50" height="50" x="100" y="250"></use><use id="icon-image-75352" xlink:href="#icon-image-75352" width="50" height="50" x="150" y="250"></use></svg>